<ttFont>
          <CharString index="0">
            -104 callgsubr
            42 65 rlineto
            return
          </CharString>
          <CharString index="1">
            135 -77 74 -139 vhcurveto
            125 -352 rmoveto
            -55 -39 -27 -76 -79 -41 28 57 71 105 13 43 33 30 -2 -4 24 vhcurveto
            -81 vlineto
            return
          </CharString>
          <CharString index="2">
            -400 vlineto
            -131 -57 -61 -123 -123 -57 61 131 vhcurveto
            400 -93 -392 vlineto
            -180 99 -104 174 173 100 104 180 vhcurveto
            return
          </CharString>
          <CharString index="3">
            -296 vlineto
            -91 -37 -40 -82 -83 -37 40 91 vhcurveto
            296 -91 -289 vlineto
            -92 callsubr
            return
          </CharString>
          <CharString index="4">
            rmoveto
            -88 -58 callgsubr
            -33 -16 -10 -28 -3 -2 0 -2 hhcurveto
            95 -93 -105 callsubr
            250 vlineto
            -1 3 4 0 4 hhcurveto
            30 33 12 27 43 hvcurveto
            42 27 40 -2 callgsubr
            endchar
          </CharString>
          <CharString index="5">
            82 vlineto
            -19 -39 -57 -17 -76 hhcurveto
            -66 -61 23 104 -14 hvcurveto
            344 hlineto
            2 22 1 23 24 vvcurveto
            -348 14 rmoveto
            return
          </CharString>
          <CharString index="6">
            rmoveto
            -88 -58 callgsubr
            -32 -17 -10 -28 -1 -1 0 -1 hhcurveto
            95 -92 -104 callsubr
            146 vlineto
            2 3 0 2 hhcurveto
            31 32 12 27 43 hvcurveto
            43 27 39 -2 callgsubr
            return
          </CharString>
          <CharString index="7">
            rmoveto
            57 hlineto
            95 -67 callsubr
            return
          </CharString>
          <CharString index="8">
            rmoveto
            -42 65 rlineto
            -71 hlineto
            89 -122 rlineto
            48 hlineto
            88 -74 callgsubr
            -70 hlineto
            10 callgsubr
            return
          </CharString>
          <CharString index="9">
            -91 callgsubr
            0 callsubr
            return
          </CharString>
          <CharString index="10">
            rmoveto
            -132 -374 -134 374 rlineto
            -98 hlineto
            188 -499 rlineto
            -55 -18 -32 -60 -50 hhcurveto
            -18 -19 3 5 -19 hvcurveto
            -82 vlineto
            -5 23 24 -3 23 hhcurveto
            47 64 25 119 44 hvcurveto
            205 552 rlineto
            return
          </CharString>
          <CharString index="11">
            rmoveto
            -152 -62 -110 -145 -157 79 -87 143 34 34 5 9 33 hvcurveto
            -44 vlineto
            -33 0 -56 -136 -51 -47 9 13 -42 vhcurveto
            -87 vlineto
            -13 45 49 -8 54 hhcurveto
            181 38 95 80 hvcurveto
            371 vlineto
            103 -81 55 -119 vhcurveto
            109 -397 rmoveto
            -13 -32 -34 -6 -35 hhcurveto
            -68 -62 19 142 154 65 19 57 109 0 -52 -18 hvcurveto
            -245 vlineto
            endchar
          </CharString>
          <CharString index="12">
            154 485 rmoveto
            83 82 17 69 71 55 -23 -21 35 vhcurveto
            92 vlineto
            22 -43 -58 20 -71 hhcurveto
            -172 -61 -98 -92 hvcurveto
            -218 355 81 -173 vvcurveto
            -78 -85 -16 -71 -72 -65 24 32 -53 vhcurveto
            -96 vlineto
            return
          </CharString>
          <CharString index="13">
            435 87 -342 203 301 87 -301 203 return
          </CharString>
          <CharString index="14">
            rmoveto
            -91 -85 91 85 hlineto
            return
          </CharString>
          <CharString index="15">
            -139 77 -80 134 134 77 80 139 vhcurveto
            return
          </CharString>
          <CharString index="16">
            -63 callgsubr
            -89 -74 callgsubr
            return
          </CharString>
          <CharString index="17">
            rmoveto
            74 21 75 57 119 vvcurveto
            132 -94 70 -146 vhcurveto
            -246 -667 93 253 150 hlineto
            161 -253 rlineto
            110 hlineto
            -177 268 rlineto
            -95 73 rmoveto
            -149 243 145 hlineto
            128 27 -62 -60 -60 -23 -61 -128 hvcurveto
            endchar
          </CharString>
          <CharString index="18">
            rmoveto
            -76 -71 21 154 153 71 22 76 33 callsubr
            hvcurveto
            87 vlineto
            17 -43 -50 11 -54 hhcurveto
            -152 -83 -91 -166 -166 83 -92 152 54 50 11 17 43 hvcurveto
            87 vlineto
            -19 -40 -47 -13 -52 hhcurveto
            endchar
          </CharString>
          <CharString index="19">
            -72 callgsubr
            -97 callgsubr
            hvcurveto
            return
          </CharString>
          <CharString index="20">
            rmoveto
            -111 -369 -111 369 rlineto
            -85 hlineto
            -110 -369 -112 369 rlineto
            -101 hlineto
            165 -499 rlineto
            91 hlineto
            110 347 109 -347 rlineto
            91 hlineto
            165 499 rlineto
            return
          </CharString>
          <CharString index="21">
            -76 callgsubr
            -221 0 -199 -65 -208 125 -44 105 return
          </CharString>
          <CharString index="22">
            724 -100 callsubr
            return
          </CharString>
          <CharString index="23">
            141 169 59 283 return
          </CharString>
          <CharString index="24">
            rmoveto
            56 31 31 55 54 -31 32 -56 -55 -32 -32 -54 -55 32 -31 55 hvcurveto
            131 vmoveto
            29 10 -12 -33 -34 -10 -11 -29 -29 -10 11 34 33 10 12 29 hvcurveto
            return
          </CharString>
          <CharString index="25">
            -105 callgsubr
            endchar
          </CharString>
          <CharString index="26">
            -8 81 169 73 112 80 return
          </CharString>
          <CharString index="27">
            107 128 45 212 return
          </CharString>
          <CharString index="28">
            rmoveto
            35 41 -10 -49 -21 -7 -47 -69 -69 -7 47 21 49 41 10 35 hvcurveto
            hintmask 1110011000000000
            -63 101 rmoveto
            32 21 17 42 42 21 -17 -32 -17 -6 -39 -57 -57 -6 39 17 vhcurveto
            136 -75 rmoveto
            20 12 20 22 40 vvcurveto
            46 -30 49 -83 -84 -29 -49 -46 -38 20 -23 20 -14 vhcurveto
            hintmask 1111000010000000
            -29 -15 -24 -30 -39 vvcurveto
            -56 39 -57 87 87 39 57 56 48 -29 25 -24 12 vhcurveto
            endchar
          </CharString>
          <CharString index="29">
            -76 -8 79 127 83 145 82 return
          </CharString>
          <CharString index="30">
            34 18 30 81 44 42 -13 -17 37 vhcurveto
            79 vlineto
            20 -40 -46 13 -48 hhcurveto
            return
          </CharString>
          <CharString index="31">
            -42 58 71 -13 66 hhcurveto
            -84 callsubr
            109 -25 75 -39 52 hvcurveto
            82 97 rlineto
            -545 -333 rmoveto
            229 116 29 101 48 51 -7 -30 40 vhcurveto
            -325 -385 rlineto
            -19 38 -12 52 74 vvcurveto
            434 hmoveto
            -229 -116 -29 -101 -48 -51 6 31 -40 vhcurveto
            325 385 rlineto
            19 -38 12 -53 -73 vvcurveto
            endchar
          </CharString>
          <CharString index="32">
            rmoveto
            -141 -169 -59 -283 26 callgsubr
            283 -169 59 -141 hvcurveto
            -600 vmoveto
            -101 -116 29 229 hvcurveto
            return
          </CharString>
          <CharString index="33">
            213 hlineto
            206 108 115 218 219 -108 115 -206 hvcurveto
            -15 -585 rmoveto
            -105 return
          </CharString>
          <CharString index="34">
            -35 -14 -14 -37 vhcurveto
            return
          </CharString>
          <CharString index="35">
            680 435 rmoveto
            -56 88 -88 -56 29 -46 -31 -18 -17 -10 -26 -1 rlinecurve
            return
          </CharString>
          <CharString index="36">
            -106 callsubr
            endchar
          </CharString>
          <CharString index="37">
            rmoveto
            -76 callgsubr
            -85 -53 -29 -41 -32 vhcurveto
            46 -36 -59 24 -79 hhcurveto
            -40 callgsubr
            -101 callgsubr
            -39 15 -126 196 93 51 29 34 28 hvcurveto
            return
          </CharString>
          <CharString index="38">
            rmoveto
            15 12 -2 -2 10 hvcurveto
            79 vlineto
            4 -15 -18 3 -21 hhcurveto
            -111 -55 -63 -123 hvcurveto
            return
          </CharString>
          <CharString index="39">
            rmoveto
            -57 88 -87 -58 callgsubr
            -32 -17 -10 -27 hhcurveto
            return
          </CharString>
          <CharString index="40">
            117 rlineto
            -90 hlineto
            return
          </CharString>
          <CharString index="41">
            rmoveto
            -18 -165 25 -26 rlineto
            8 20 24 5 29 hhcurveto
            72 15 -27 -42 -41 -14 -27 -68 -53 -31 17 16 -17 hvcurveto
            -54 vlineto
            -15 25 33 -12 48 hhcurveto
            83 44 40 76 76 -44 40 -83 -20 -19 -2 -4 -16 hvcurveto
            9 91 rlineto
            155 46 -199 hlineto
            endchar
          </CharString>
          <CharString index="42">
            -107 callsubr
            endchar
          </CharString>
          <CharString index="43">
            -53 callgsubr
            48 -42 20 return
          </CharString>
          <CharString index="44">
            -43 callgsubr
            17 24 -5 -19 -12 -16 -6 -21 -2 hvcurveto
            -55 40 2 callsubr
            vhcurveto
            return
          </CharString>
          <CharString index="45">
            -707 rlineto
            63 hlineto
            437 707 rlineto
            return
          </CharString>
          <CharString index="46">
            -51 vlineto
            -155 hmoveto
            105 130 rlineto
            -130 -105 vlineto
            return
          </CharString>
          <CharString index="47">
            rmoveto
            83 -462 -93 0 callsubr
            -352 -493 rlineto
            -81 472 92 -350 vlineto
            return
          </CharString>
          <CharString index="48">
            -8 -11 callsubr
            81 return
          </CharString>
          <CharString index="49">
            95 -117 rlineto
            return
          </CharString>
          <CharString index="50">
            151 90 69 114 hvcurveto
            236 -355 -42 116 vvcurveto
            return
          </CharString>
          <CharString index="51">
            471 rmoveto
            77 vlineto
            hintmask 10111100
            -59 callgsubr
            hintmask 10111010
            -53 callsubr
            hintmask 11011100
            4 callsubr
            return
          </CharString>
          <CharString index="52">
            hstemhm
            43 50 -37 37 -37 50 126 50 -37 37 -37 50 hintmask 1110100100000000
            169 return
          </CharString>
          <CharString index="53">
            -20 callgsubr
            -160 -106 -106 callgsubr
            return
          </CharString>
          <CharString index="54">
            28 23 6 8 20 hvcurveto
            82 vlineto
            -8 -13 -19 -7 -26 hhcurveto
            return
          </CharString>
          <CharString index="55">
            160 rmoveto
            -12 -11 -1 -2 -10 hvcurveto
            -46 vlineto
            return
          </CharString>
          <CharString index="56">
            -109 hlineto
            -169 -190 169 -191 rlineto
            109 hlineto
            -178 191 178 190 rlineto
            return
          </CharString>
          <CharString index="57">
            rmoveto
            100 hlineto
            72 188 rlineto
            278 hlineto
            -21 callsubr
            100 -12 callsubr
            667 rlineto
            -91 hlineto
            -265 -37 callsubr
            205 274 rmoveto
            106 277 106 -277 rlineto
            -212 hlineto
            endchar
          </CharString>
          <CharString index="58">
            -179 -112 42 -57 82 86 38 62 61 56 -28 59 -92 -45 -29 -18 0 hvcurveto
            64 13 41 return
          </CharString>
          <CharString index="59">
            21 -50 -12 -35 callgsubr
            return
          </CharString>
          <CharString index="60">
            124 38 hvcurveto
            return
          </CharString>
          <CharString index="61">
            -100 callsubr
            65 -117 -100 callsubr
            endchar
          </CharString>
          <CharString index="62">
            rmoveto
            -98 -47 -72 -112 -113 47 -72 98 98 47 72 113 112 -47 72 -98 hvcurveto
            -312 vmoveto
            -60 -21 43 85 84 21 44 60 60 21 -44 -84 -85 -21 -43 -60 hvcurveto
            return
          </CharString>
          <CharString index="63">
            hstem
            -47 callgsubr
            vstem
            return
          </CharString>
          <CharString index="64">
            -20 14 -20 23 37 vvcurveto
            47 29 49 84 83 -7 callgsubr
            -110 490 rmoveto
            -437 -62 callsubr
            -63 hlineto
            endchar
          </CharString>
          <CharString index="65">
            -21 188 86 return
          </CharString>
          <CharString index="66">
            -73 callgsubr
            -84 249 22 callsubr
            return
          </CharString>
          <CharString index="67">
            rmoveto
            -92 667 92 -667 hlineto
            endchar
          </CharString>
          <CharString index="68">
            87 -435 -667 return
          </CharString>
          <CharString index="69">
            257 507 rmoveto
            -40 callgsubr
            -101 callgsubr
            return
          </CharString>
          <CharString index="70">
            -667 rlineto
            return
          </CharString>
          <CharString index="71">
            rmoveto
            201 -56 vlineto
            -158 -201 rlineto
            -46 32 callsubr
            46 -61 callsubr
            endchar
          </CharString>
          <CharString index="72">
            rmoveto
            -89 hlineto
            -63 -117 rlineto
            57 hlineto
            95 117 rlineto
            return
          </CharString>
          <CharString index="73">
            rmoveto
            217 208 rlineto
            -124 hlineto
            -216 -209 rlineto
            399 -91 -689 91 172 vlineto
            62 60 185 -232 rlineto
            122 hlineto
            return
          </CharString>
          <CharString index="74">
            -41 hvcurveto
            hintmask 11110000
            -37 -30 12 -25 callsubr
            38 hhcurveto
            hintmask 11100100
            99 35 5 callsubr
            endchar
          </CharString>
          <CharString index="75">
            rmoveto
            -93 hlineto
            -25 -29 rlineto
            27 -42 -50 9 -47 hhcurveto
            -107 -128 -45 -212 -77 17 -55 27 -39 hvcurveto
            -66 -78 rlineto
            93 hlineto
            24 28 rlineto
            return
          </CharString>
          <CharString index="76">
            -178 -191 rlineto
            109 hlineto
            169 191 -169 190 rlineto
            return
          </CharString>
          <CharString index="77">
            -41 -77 vhcurveto
            -78 vlineto
            119 58 55 112 hvcurveto
            return
          </CharString>
          <CharString index="78">
            rmoveto
            -470 vlineto
            -96 -45 -19 -68 -56 -43 21 26 -32 vhcurveto
            -97 vlineto
            -24 37 47 -17 56 hhcurveto
            74 122 28 184 hvcurveto
            464 return
          </CharString>
          <CharString index="79">
            -43 callgsubr
            17 24 -5 -19 -12 -17 -6 -20 -2 hvcurveto
            -55 40 23 vlineto
            0 49 7 48 vvcurveto
            48 -41 20 -50 vhcurveto
            return
          </CharString>
          <CharString index="80">
            -94 callsubr
            342 return
          </CharString>
          <CharString index="81">
            46 -8 84 207 87 221 84 return
          </CharString>
          <CharString index="82">
            8 callgsubr
            -12 24 31 -9 return
          </CharString>
          <CharString index="83">
            60 -60 222 return
          </CharString>
          <CharString index="84">
            77 149 -20 hstemhm
            111 91 -91 224 return
          </CharString>
          <CharString index="85">
            42 -58 -71 13 -66 hhcurveto
            -141 -169 -59 -283 -109 25 -75 39 -52 hvcurveto
            -82 -98 rlineto
            93 hlineto
            40 47 rlineto
            return
          </CharString>
          <CharString index="86">
            72 -188 rlineto
            return
          </CharString>
          <CharString index="87">
            hstem
            82 91 239 92 vstem
            return
          </CharString>
          <CharString index="88">
            -202 rlineto
            -45 32 callsubr
            45 -61 callsubr
            return
          </CharString>
          <CharString index="89">
            545 rmoveto
            -83 callgsubr
            return
          </CharString>
          <CharString index="90">
            -87 225 -580 92 580 226 return
          </CharString>
          <CharString index="91">
            hstemhm
            61 93 262 50 -50 93 return
          </CharString>
          <CharString index="92">
            21 -21 841 -20 hstem
            return
          </CharString>
          <CharString index="93">
            -20 hstem
            87 92 vstem
            return
          </CharString>
          <CharString index="94">
            rmoveto
            -124 -13 102 43 85 47 44 90 77 43 -32 -17 18 hvcurveto
            -225 -3 -91 0 -44 hhcurveto
            endchar
          </CharString>
          <CharString index="95">
            hlineto
            -266 return
          </CharString>
          <CharString index="96">
            81 352 return
          </CharString>
          <CharString index="97">
            179 112 -41 57 -83 -85 -39 -62 -61 -56 29 -59 91 46 29 18 0 hvcurveto
            -64 -14 -40 return
          </CharString>
          <CharString index="98">
            hstem
            56 50 148 50 vstem
            220 return
          </CharString>
          <CharString index="99">
            hstem
            49 50 148 50 vstem
            133 return
          </CharString>
          <CharString index="100">
            -1 -21 40 -21 45 127 45 104 return
          </CharString>
          <CharString index="101">
            56 9 callgsubr
            return
          </CharString>
          <CharString index="102">
            122 -20 return
          </CharString>
          <CharString index="103">
            hstemhm
            53 209 -50 50 -32 50 hintmask 11101000
            220 return
          </CharString>
          <CharString index="104">
            -159 -8 83 350 82 return
          </CharString>
          <CharString index="105">
            -6 callgsubr
            hstem
            return
          </CharString>
          <CharString index="106">
            21 -21 667 return
          </CharString>
          <CharString index="107">
            342 vlineto
            return
          </CharString>
          <CharString index="108">
            -52 132 70 400 -20 hstem
            108 132 rmoveto
            363 70 -363 -70 hlineto
            return
          </CharString>
          <CharString index="109">
            23 vlineto
            0 50 7 48 vvcurveto
            48 -42 20 -50 return
          </CharString>
          <CharString index="110">
            34 21 -42 callsubr
            425 58 -58 107 return
          </CharString>
          <CharString index="111">
            -47 -28 16 43 hvcurveto
            290 vlineto
            return
          </CharString>
          <CharString index="112">
            56 53 49 -32 26 -28 12 hvcurveto
            return
          </CharString>
          <CharString index="113">
            hstemhm
            56 91 16 -24 callsubr
            return
          </CharString>
          <CharString index="114">
            72 65 -17 -25 56 return
          </CharString>
          <CharString index="115">
            -343 21 -21 return
          </CharString>
          <CharString index="116">
            -20 -36 callgsubr
            return
          </CharString>
          <CharString index="117">
            -42 -9 -35 hvcurveto
            -29 -44 41 callsubr
            -11 -41 return
          </CharString>
          <CharString index="118">
            -49 rmoveto
            -45 -10 -32 -79 callgsubr
            -63 hlineto
            return
          </CharString>
          <CharString index="119">
            rmoveto
            -42 65 rlineto
            -70 hlineto
            88 -122 rlineto
            48 hlineto
            89 -74 callgsubr
            -71 hlineto
            return
          </CharString>
          <CharString index="120">
            rmoveto
            -58 -33 rlineto
            -52 vlineto
            63 36 rlineto
            -310 50 359 -55 vlineto
            endchar
          </CharString>
          <CharString index="121">
            -42 callgsubr
            endchar
          </CharString>
          <CharString index="122">
            rmoveto
            26 callgsubr
            vhcurveto
            return
          </CharString>
          <CharString index="123">
            -8 84 274 85 154 86 hstem
            65 93 275 93 vstem
            return
          </CharString>
          <CharString index="124">
            rmoveto
            -62 callgsubr
            -94 hlineto
            endchar
          </CharString>
          <CharString index="125">
            -129 23 hlineto
            104 45 0 47 vhcurveto
            return
          </CharString>
          <CharString index="126">
            -21 hhcurveto
            -40 -175 rmoveto
            49 25 -24 return
          </CharString>
          <CharString index="127">
            hstem
            82 40 callsubr
            return
          </CharString>
          <CharString index="128">
            hstemhm
            59 217 vstemhm
            276 return
          </CharString>
          <CharString index="129">
            hstemhm
            -34 callgsubr
            return
          </CharString>
          <CharString index="130">
            -93 -196 86 0 119 0 83 334 82 0 56 return
          </CharString>
          <CharString index="131">
            hlineto
            148 85 77 133 133 -85 77 -148 hvcurveto
            return
          </CharString>
          <CharString index="132">
            -419 -37 callsubr
            74 hlineto
            419 667 rlineto
            -74 hlineto
            return
          </CharString>
          <CharString index="133">
            -50 46 66 -14 59 hhcurveto
            71 59 13 20 47 hvcurveto
            83 vlineto
            return
          </CharString>
          <CharString index="134">
            29 -8 84 515 84 hstem
            65 93 345 93 vstem
            return
          </CharString>
          <CharString index="135">
            40 23 vlineto
            0 50 7 48 vvcurveto
            return
          </CharString>
          <CharString index="136">
            82 hstemhm
            110 91 -91 220 return
          </CharString>
          <CharString index="137">
            -12 callgsubr
            42 -11 callsubr
            81 return
          </CharString>
          <CharString index="138">
            92 290 320 -290 92 return
          </CharString>
          <CharString index="139">
            164 -112 50 112 51 return
          </CharString>
          <CharString index="140">
            52 47 -14 -19 40 return
          </CharString>
          <CharString index="141">
            -62 callgsubr
            endchar
          </CharString>
          <CharString index="142">
            -22 0 92 482 93 return
          </CharString>
          <CharString index="143">
            -67 -8 89 504 90 return
          </CharString>
          <CharString index="144">
            rmoveto
            -71 callgsubr
            return
          </CharString>
          <CharString index="145">
            -20 23 callgsubr
            return
          </CharString>
          <CharString index="146">
            rmoveto
            -13 -16 -6 -20 -2 vhcurveto
            return
          </CharString>
          <CharString index="147">
            92 230 92 vstem
            return
          </CharString>
          <CharString index="148">
            30 hlineto
            hintmask 11100100
            43 51 -11 -52 -52 -48 return
          </CharString>
          <CharString index="149">
            18 -201 rlineto
            58 hlineto
            17 201 rlineto
            return
          </CharString>
          <CharString index="150">
            705 rmoveto
            -83 callgsubr
            return
          </CharString>
          <CharString index="151">
            -20 hstemhm
            61 93 171 91 172 93 return
          </CharString>
          <CharString index="152">
            138 -34 83 191 15 124 38 return
          </CharString>
          <CharString index="153">
            -365 21 -21 return
          </CharString>
        <CharString name=".notdef">
          -131 endchar
        </CharString>
        <CharString name="A">
          -56 callgsubr
          393 -20 hstem
          543 hmoveto
          -98 callgsubr
        </CharString>
        <CharString name="AE">
          361 0 87 115 87 1 -50 callgsubr
          hstem
          489 93 vstem
          924 580 -57 callgsubr
        </CharString>
        <CharString name="AEacute">
          361 0 87 115 87 1 -50 callgsubr
          174 -20 hstem
          489 93 vstem
          523 -85 callsubr
          339 -261 -57 callgsubr
        </CharString>
        <CharString name="Aacute">
          -56 callgsubr
          567 -20 hstem
          305 724 rmoveto
          57 hlineto
          95 117 rlineto
          -89 hlineto
          175 -841 rmoveto
          -98 callgsubr
        </CharString>
        <CharString name="Abreve">
          -56 callgsubr
          431 58 -58 106 hstemhm
          221 222 hintmask 11101000
          332 763 rmoveto
          hintmask 11011000
          -36 -15 14 34 hvcurveto
          -60 hlineto
          -66 42 -40 69 70 41 40 66 vhcurveto
          -60 hlineto
          hintmask 11101000
          -34 -14 -14 -37 vhcurveto
          211 -763 rmoveto
          -98 callgsubr
        </CharString>
        <CharString name="Abreveacute">
          3 callsubr
          -107 239 hstemhm
          221 -24 callsubr
          hintmask 11001100
          299 821 -100 callsubr
          -29 -239 rmoveto
          hintmask 11010010
          -83 callgsubr
          hintmask 11100100
          -73 callsubr
          hintmask 11010100
          -93 callgsubr
          46 -32 -102 callgsubr
        </CharString>
        <CharString name="Abrevedotbelow">
          34 -12 callgsubr
          71 -42 callsubr
          425 -13 callgsubr
          221 -24 callsubr
          -157 91 hintmask 11101101
          377 -50 -93 callsubr
          -45 749 rmoveto
          hintmask 11101010
          -83 callgsubr
          hintmask 11110101
          -73 callsubr
          hintmask 11101101
          -93 callgsubr
          46 -32 -102 callgsubr
        </CharString>
        <CharString name="Abrevegrave">
          -56 callgsubr
          532 132 hstemhm
          221 222 -60 60 hintmask 11110000
          365 821 -92 callgsubr
          -33 -122 rmoveto
          -70 -41 40 67 hvcurveto
          60 hlineto
          -35 14 -14 37 vhcurveto
          hintmask 11101000
          36 15 14 35 hvcurveto
          60 hlineto
          -67 -42 -40 -69 vhcurveto
          -311 -699 -50 callsubr
        </CharString>
        <CharString name="Abrevehookabove">
          3 callsubr
          112 47 hstemhm
          221 -24 callsubr
          -92 53 hintmask 11011010
          332 699 rmoveto
          -83 callgsubr
          hintmask 11101101
          -73 callsubr
          hintmask 11011101
          -93 callgsubr
          -19 266 rmoveto
          -12 -11 -1 -2 -10 hvcurveto
          -46 vlineto
          1 8 11 1 12 hhcurveto
          16 -64 callsubr
          -49 vhcurveto
          65 -298 -102 callgsubr
        </CharString>
        <CharString name="Abrevetilde">
          3 callsubr
          hstemhm
          221 -24 callsubr
          hintmask 11010100
          332 699 rmoveto
          -83 callgsubr
          hintmask 11101000
          -73 callsubr
          hintmask 11011000
          -93 callgsubr
          152 176 -105 callgsubr
          -106 -208 -102 callgsubr
        </CharString>
        <CharString name="Acaron">
          -56 callgsubr
          572 -20 hstem
          332 781 12 callsubr
          169 -846 rmoveto
          -98 callgsubr
        </CharString>
        <CharString name="Acircumflex">
          33 -1 callsubr
          57 -5 callsubr
          hstem
          332 789 rmoveto
          -104 callgsubr
          253 -724 rmoveto
          -98 callgsubr
        </CharString>
        <CharString name="Acircumflexacute">
          -56 callgsubr
          641 -20 hstem
          400 798 -100 callsubr
          -130 -143 -106 callgsubr
          46 -105 -102 callgsubr
        </CharString>
        <CharString name="Acircumflexdotbelow">
          34 -12 callgsubr
          0 238 -167 -21 667 40 -24 callgsubr
          286 91 hintmask 10111100
          377 -50 -93 callsubr
          -46 822 -106 callgsubr
          47 -105 rmoveto
          -91 -12 callsubr
          -37 callsubr
          100 hlineto
          hintmask 01011100
          72 188 rlineto
          278 hlineto
          hintmask 10111100
          -21 callsubr
          -54 callgsubr
          -152 -393 rmoveto
          106 277 106 -277 rlineto
          -212 hlineto
          endchar
        </CharString>
        <CharString name="Acircumflexgrave">
          -56 callgsubr
          641 -20 hstem
          264 798 -92 callgsubr
          68 -69 callgsubr
          -311 -772 -50 callsubr
        </CharString>
        <CharString name="Acircumflexhookabove">
          34 21 -42 callsubr
          611 47 hstem
          454 53 vstem
          332 772 rmoveto
          42 -65 rlineto
          71 hlineto
          -89 122 rlineto
          -48 hlineto
          0 callgsubr
          1 8 11 1 12 hhcurveto
          16 -64 callsubr
          -49 vhcurveto
          -38 -265 -102 callgsubr
        </CharString>
        <CharString name="Acircumflextilde">
          34 -1 callsubr
          34 hstem
          491 -54 callsubr
          47 -99 -102 callgsubr
        </CharString>
        <CharString name="Acute">
          -374 745 -21 117 -20 hstem
          60 -85 callsubr
          -62 -117 rlineto
          endchar
        </CharString>
        <CharString name="Adieresis">
          -56 callgsubr
          450 85 hstem
          212 92 56 92 vstem
          212 724 rmoveto
          92 85 -92 hlineto
          148 -85 rmoveto
          92 85 -92 hlineto
          183 -809 rmoveto
          -98 callgsubr
        </CharString>
        <CharString name="Adotaccent">
          -56 callgsubr
          450 85 hstem
          286 91 vstem
          377 -29 callgsubr
          1 -142 -102 callgsubr
        </CharString>
        <CharString name="Adotbelow">
          33 -12 callgsubr
          71 -42 callsubr
          393 -20 hstem
          286 91 vstem
          377 -50 -93 callsubr
          1 717 -102 callgsubr
        </CharString>
        <CharString name="Agrave">
          -56 callgsubr
          567 -20 hstem
          296 841 rmoveto
          -89 hlineto
          -14 callgsubr
          184 -724 rmoveto
          -98 callgsubr
        </CharString>
        <CharString name="Ahookabove">
          -56 callgsubr
          549 47 hstem
          351 799 39 callsubr
          -54 -16 callgsubr
          47 -42 21 -49 -12 -15 callgsubr
          8 11 1 12 hhcurveto
          16 24 -6 -18 hvcurveto
          27 -132 -102 callgsubr
        </CharString>
        <CharString name="Amacron">
          -56 callgsubr
          462 60 hstem
          449 796 rmoveto
          -233 -60 233 hlineto
          94 -736 rmoveto
          -98 callgsubr
        </CharString>
        <CharString name="Aogonek">
          33 -175 53 143 -42 callsubr
          393 -20 hstem
          471 80 vstem
          610 -30 callgsubr
          41 callgsubr
          hvcurveto
          -90 callgsubr
          -21 callsubr
          16 hlineto
          -4 -2 -84 -46 -60 vvcurveto
          -67 54 0 18 56 44 35 45 10 vhcurveto
          -427 369 rmoveto
          106 277 106 -277 rlineto
          endchar
        </CharString>
        <CharString name="Aring">
          -56 callgsubr
          421 41 90 40 hstem
          245 48 78 48 vstem
          332 866 rmoveto
          -55 -32 -31 -54 -55 32 -31 55 55 32 31 55 54 -32 31 -55 hvcurveto
          -130 vmoveto
          -29 -10 11 34 33 10 12 29 29 10 -12 -33 -34 -10 -11 -29 hvcurveto
          211 -736 rmoveto
          -98 callgsubr
        </CharString>
        <CharString name="Atilde">
          -56 callgsubr
          hstem
          484 808 rmoveto
          -101 -119 -101 219 -102 -119 rrcurveto
          -66 vlineto
          102 119 101 -219 101 119 rrcurveto
          59 -742 rmoveto
          -98 callgsubr
        </CharString>
        <CharString name="B">
          -6 0 83 219 83 199 83 hstemhm
          87 93 264 93 -54 54 -54 93 hintmask 11111000
          458 349 rmoveto
          0 79 33 103 vvcurveto
          70 -28 112 -191 vhcurveto
          -231 -667 250 hlineto
          hintmask 11110010
          208 31 117 74 121 -118 37 0 hvcurveto
          -278 235 rmoveto
          128 hlineto
          hintmask 11111000
          83 53 -21 -81 -80 -54 -17 -73 hvcurveto
          -137 hlineto
          151 -302 rmoveto
          -151 -1 rlineto
          220 144 vlineto
          hintmask 11110100
          91 68 -18 -89 -81 -51 -31 -101 hvcurveto
          endchar
        </CharString>
        <CharString name="C">
          36 callgsubr
          hstem
          61 96 vstem
          382 76 rmoveto
          -44 callgsubr
          7 callsubr
          hvcurveto
          86 vlineto
          24 -60 -68 16 -76 hhcurveto
          -141 -169 -59 -283 -283 169 -59 141 76 68 16 24 60 hvcurveto
          86 vlineto
          -25 -56 -65 -17 -72 hhcurveto
          endchar
        </CharString>
        <CharString name="Cacute">
          36 callgsubr
          -84 249 hstemhm
          61 96 hintmask 10110000
          332 724 rmoveto
          57 hlineto
          95 117 rlineto
          -89 hlineto
          -13 -765 rmoveto
          -44 callgsubr
          7 callsubr
          hvcurveto
          86 vlineto
          hintmask 11010000
          24 -60 -68 16 -76 hhcurveto
          -141 -169 -59 -283 -283 169 -59 141 76 68 16 24 60 hvcurveto
          86 vlineto
          -25 -56 -65 -17 -72 hhcurveto
          endchar
        </CharString>
        <CharString name="Caron">
          -204 745 -21 -5 callsubr
          hstem
          214 781 -9 callgsubr
        </CharString>
        <CharString name="Ccaron">
          36 callgsubr
          170 -20 hstem
          61 96 vstem
          366 781 rmoveto
          -42 65 rlineto
          -71 hlineto
          89 -122 rlineto
          48 hlineto
          88 -74 callgsubr
          -70 hlineto
          -26 -770 rmoveto
          -44 callgsubr
          7 callsubr
          hvcurveto
          86 vlineto
          24 -60 -68 16 -76 hhcurveto
          -141 -169 -59 -283 -283 169 -59 141 76 68 16 24 60 hvcurveto
          86 vlineto
          -25 -56 -65 -17 -72 hhcurveto
          endchar
        </CharString>
        <CharString name="Ccedilla">
          -3 -128 204 -83 83 516 84 hstemhm
          61 96 hintmask 10110000
          382 14 callgsubr
          -141 -169 -59 -283 -255 138 -73 131 -12 hvcurveto
          -90 -122 rlineto
          92 hlineto
          hintmask 01110000
          67 121 65 3 59 15 52 21 rlinecurve
          86 vlineto
          -25 -56 -65 -17 -72 hhcurveto
          -44 callgsubr
          hvcurveto
          endchar
        </CharString>
        <CharString name="Ccircumflex">
          36 callgsubr
          0 48 -24 callgsubr
          61 96 hintmask 10111000
          366 789 rmoveto
          42 -65 rlineto
          70 hlineto
          -88 -74 callgsubr
          -48 hlineto
          -89 -122 -5 callgsubr
          58 -648 rmoveto
          -158 -67 78 180 hvcurveto
          hintmask 11011000
          181 67 77 158 7 callsubr
          vhcurveto
          86 vlineto
          24 -60 -68 16 -76 hhcurveto
          -141 -169 -59 -283 -283 169 -59 141 76 68 16 24 60 hvcurveto
          86 vlineto
          -25 -56 -65 -17 -72 hhcurveto
          endchar
        </CharString>
        <CharString name="Cdotaccent">
          36 callgsubr
          48 85 hstem
          61 96 158 92 vstem
          315 724 rmoveto
          92 85 -92 hlineto
          67 -733 rmoveto
          -44 callgsubr
          7 callsubr
          hvcurveto
          86 vlineto
          24 -60 -68 16 -76 hhcurveto
          -141 -169 -59 -283 -283 169 -59 141 76 68 16 24 60 hvcurveto
          86 vlineto
          -25 -56 -65 -17 -72 hhcurveto
          endchar
        </CharString>
        <CharString name="D">
          43 0 82 503 82 -36 callgsubr
          341 92 vstem
          300 -19 callgsubr
          -213 -667 213 hlineto
          205 108 115 218 219 -108 115 -205 hvcurveto
          -15 -585 rmoveto
          -105 503 105 hlineto
          163 73 -78 -174 -173 -73 -78 -163 hvcurveto
          endchar
        </CharString>
        <CharString name="Dbreve">
          39 0 82 503 82 38 -13 callgsubr
          86 93 9 -24 callsubr
          111 92 hintmask 11011011
          299 -19 callgsubr
          -213 -667 -74 callsubr
          503 -42 callgsubr
          15 623 rmoveto
          -83 callgsubr
          hintmask 11101101
          -73 callsubr
          hintmask 11011101
          -93 callgsubr
          endchar
        </CharString>
        <CharString name="Dcaron">
          39 0 82 503 82 179 -20 hstem
          86 93 342 92 vstem
          300 781 -99 callsubr
          -1 -114 rmoveto
          -213 -667 -74 callsubr
          503 14 callsubr
        </CharString>
        <CharString name="Dcroat">
          -77 callgsubr
        </CharString>
        <CharString name="Delta">
          108 0 82 585 -20 hstem
          403 -19 callgsubr
          -69 hlineto
          -307 -37 callsubr
          684 hlineto
          -308 667 rlineto
          -248 -585 rmoveto
          213 464 214 -464 rlineto
          -427 hlineto
          endchar
        </CharString>
        <CharString name="Dieresis">
          -233 723 85 hstem
          79 91 57 91 vstem
          318 808 -93 callsubr
          -148 hmoveto
          -91 -85 91 85 hlineto
          endchar
        </CharString>
        <CharString name="E">
          -82 callgsubr
          -36 callgsubr
          cntrmask 11100000
          522 580 rmoveto
          -91 callgsubr
          vlineto
          endchar
        </CharString>
        <CharString name="Eacute">
          -82 callgsubr
          174 9 callsubr
          vstem
          522 580 rmoveto
          -98 callsubr
          -238 144 -100 callsubr
          endchar
        </CharString>
        <CharString name="Ebreve">
          -82 callgsubr
          38 -13 callgsubr
          87 93 22 -24 callsubr
          hintmask 11101101
          313 43 callsubr
          hintmask 11110110
          -73 callsubr
          hintmask 11101110
          -93 callgsubr
          209 -125 rmoveto
          -98 callsubr
          endchar
        </CharString>
        <CharString name="Ecaron">
          -82 callgsubr
          179 9 callsubr
          vstem
          314 781 -99 callsubr
          208 -201 rmoveto
          -98 callsubr
          endchar
        </CharString>
        <CharString name="Ecircumflex">
          -82 callgsubr
          0 57 -24 callgsubr
          87 93 hintmask 11101100
          522 580 rmoveto
          -98 callsubr
          -207 209 rmoveto
          hintmask 11011100
          -65 callsubr
        </CharString>
        <CharString name="Ecircumflexacute">
          -82 callgsubr
          248 9 callsubr
          vstem
          381 798 -100 callsubr
          -129 -143 -106 callgsubr
          208 -192 rmoveto
          -98 callsubr
          endchar
        </CharString>
        <CharString name="Ecircumflexdotbelow">
          -51 -12 callgsubr
          50 87 203 -50 callgsubr
          0 40 -24 callgsubr
          87 93 93 91 hintmask 11101111
          364 -50 -93 callsubr
          -46 822 -106 callgsubr
          hintmask 11110111
          204 -192 rmoveto
          -98 callsubr
          endchar
        </CharString>
        <CharString name="Ecircumflexgrave">
          -82 callgsubr
          -87 127 208 -20 hstemhm
          87 93 hintmask 11011100
          252 798 -92 callgsubr
          67 -69 callgsubr
          203 -192 rmoveto
          hintmask 11101100
          -98 callsubr
          endchar
        </CharString>
        <CharString name="Ecircumflexhookabove">
          -82 callgsubr
          40 225 -47 47 hstemhm
          87 93 253 52 hintmask 11110110
          310 772 rmoveto
          42 -65 rlineto
          71 hlineto
          -89 122 rlineto
          -48 hlineto
          0 callgsubr
          hintmask 11101110
          -28 callsubr
          128 -352 rmoveto
          -98 callsubr
          endchar
        </CharString>
        <CharString name="Ecircumflextilde">
          -82 callgsubr
          0 34 hstemhm
          87 93 hintmask 11011000
          467 -20 callgsubr
          -159 -106 -106 callgsubr
          hintmask 11101000
          214 -186 rmoveto
          -98 callsubr
          endchar
        </CharString>
        <CharString name="Edieresis">
          -82 callgsubr
          57 85 -36 callgsubr
          14 91 57 91 vstem
          522 580 rmoveto
          -98 callsubr
          -89 229 -93 callsubr
          -148 hmoveto
          -91 -85 91 85 hlineto
          endchar
        </CharString>
        <CharString name="Edotaccent">
          -82 callgsubr
          57 85 -36 callgsubr
          88 91 vstem
          359 -29 callgsubr
          163 -229 rmoveto
          -98 callsubr
          endchar
        </CharString>
        <CharString name="Edotbelow">
          -51 -12 callgsubr
          50 87 203 -50 callgsubr
          -36 callgsubr
          93 91 vstem
          364 -50 -93 callsubr
          158 630 rmoveto
          -98 callsubr
          endchar
        </CharString>
        <CharString name="Egrave">
          -82 callgsubr
          174 9 callsubr
          vstem
          522 580 rmoveto
          -98 callsubr
          -169 144 -92 callgsubr
          endchar
        </CharString>
        <CharString name="Ehookabove">
          -82 callgsubr
          156 47 -36 callgsubr
          148 53 vstem
          289 870 rmoveto
          -12 -11 -1 -3 -10 hvcurveto
          -3 callgsubr
          -13 -16 -6 -21 -2 hvcurveto
          -54 28 callsubr
          47 -42 21 -50 vhcurveto
          233 -290 rmoveto
          -98 callsubr
          endchar
        </CharString>
        <CharString name="Emacron">
          -82 callgsubr
          69 60 -36 callgsubr
          vstem
          430 796 -67 callgsubr
          92 -216 rmoveto
          -98 callsubr
          endchar
        </CharString>
        <CharString name="Eng">
          107 -172 78 115 -21 667 -20 hstemhm
          87 93 302 177 -93 93 hintmask 11110100
          566 -19 callgsubr
          -531 vlineto
          -373 531 rlineto
          -106 -667 93 534 hlineto
          388 -551 rlineto
          hintmask 11111000
          -43 -2 -13 -34 -71 hhcurveto
          -78 vlineto
          119 58 55 112 hvcurveto
          672 vlineto
          hintmask 11110100
          -93 hlineto
          endchar
        </CharString>
        <CharString name="Eogonek">
          -51 -175 53 122 87 203 -50 callgsubr
          hstemhm
          87 93 170 80 -80 172 hintmask 11111100
          489 -30 callgsubr
          hvcurveto
          hintmask 11111010
          41 callgsubr
          vhcurveto
          87 -342 203 301 87 -301 203 342 -39 callsubr
          351 vlineto
          -4 -2 -84 -46 -60 -75 callgsubr
          endchar
        </CharString>
        <CharString name="Eth">
          -77 callgsubr
        </CharString>
        <CharString name="Etilde">
          -82 callgsubr
          -36 callgsubr
          cntrmask 11100000
          462 742 -105 callgsubr
          60 -162 rmoveto
          -98 callsubr
          endchar
        </CharString>
        <CharString name="Euro">
          53 -8 84 144 69 91 69 143 84 hstem
          118 96 vstem
          439 14 callgsubr
          -119 -140 -42 -185 -40 hvcurveto
          -79 -69 70 hlineto
          -1 -15 -1 -15 -16 vvcurveto
          -16 0 -15 1 -14 vhcurveto
          -69 -69 79 hlineto
          -186 40 139 -42 120 hhcurveto
          76 68 16 24 60 hvcurveto
          86 vlineto
          -25 -56 -65 -17 -72 hhcurveto
          -119 -68 44 100 -26 hvcurveto
          300 69 -310 hlineto
          -2 14 0 15 16 vvcurveto
          16 1 15 1 15 vhcurveto
          310 69 -300 hlineto
          99 26 68 44 119 hhcurveto
          endchar
        </CharString>
        <CharString name="F">
          -82 21 -21 290 -50 callgsubr
          -36 callgsubr
          vstem
          87 -19 callgsubr
          -667 93 290 288 87 -288 203 327 87 vlineto
          endchar
        </CharString>
        <CharString name="Fdotaccent">
          -82 21 -21 290 -50 callgsubr
          57 85 -36 callgsubr
          81 91 vstem
          352 -29 callgsubr
          -265 -142 rmoveto
          -667 93 290 288 87 -288 203 327 87 -420 vlineto
          endchar
        </CharString>
        <CharString name="G">
          -26 callsubr
          -25 callgsubr
          hintmask 11111000
          380 370 rmoveto
          -87 vlineto
          hintmask 11110100
          -81 callgsubr
          hintmask 11111000
          -94 callgsubr
          325 vlineto
          endchar
        </CharString>
        <CharString name="Gacute">
          -26 callsubr
          -84 250 -25 callgsubr
          hintmask 11011100
          324 -85 callsubr
          -6 -471 rmoveto
          -87 vlineto
          hintmask 11101010
          -81 callgsubr
          hintmask 11101100
          -94 callgsubr
          325 -226 vlineto
          endchar
        </CharString>
        <CharString name="Gbreve">
          -26 callsubr
          30 -13 callgsubr
          61 93 95 -24 callsubr
          -91 226 -90 90 hintmask 1110110101000000
          360 705 -65 callgsubr
          20 -335 rmoveto
          -87 vlineto
          hintmask 1111011001000000
          -81 callgsubr
          hintmask 1111011010000000
          -94 callgsubr
          325 -226 vlineto
          endchar
        </CharString>
        <CharString name="Gcaron">
          -26 callsubr
          171 -20 -25 callgsubr
          hintmask 11111100
          360 781 -99 callsubr
          20 -411 rmoveto
          -87 vlineto
          hintmask 11111010
          -81 callgsubr
          hintmask 11111100
          -94 callgsubr
          325 -226 vlineto
          endchar
        </CharString>
        <CharString name="Gcircumflex">
          46 -8 84 0 207 0 87 221 84 0 49 122 -20 -25 callgsubr
          hintmask 1010111100000000
          357 789 -106 callgsubr
          23 -419 rmoveto
          -87 vlineto
          hintmask 0101011010000000
          -81 callgsubr
          hintmask 1011011100000000
          -94 callgsubr
          325 -226 vlineto
          endchar
        </CharString>
        <CharString name="Gcommaaccent">
          46 -22 callgsubr
          41 84 207 0 87 221 84 -25 callgsubr
          hintmask 11011110
          312 -134 rmoveto
          -59 vlineto
          63 12 39 53 79 vvcurveto
          -63 hlineto
          -45 -10 -32 -29 -8 vhcurveto
          68 504 rmoveto
          -87 vlineto
          hintmask 11101101
          -81 callgsubr
          hintmask 11101110
          -94 callgsubr
          hintmask 11011110
          325 -226 vlineto
          endchar
        </CharString>
        <CharString name="Gdotaccent">
          -26 callsubr
          49 85 hstemhm
          61 93 162 91 -27 226 -90 90 hintmask 11111101
          407 -29 callgsubr
          hintmask 11111010
          -27 -439 rmoveto
          -87 vlineto
          hintmask 11111101
          -81 callgsubr
          hintmask 11111010
          -94 callgsubr
          325 -226 vlineto
          endchar
        </CharString>
        <CharString name="Grave">
          -391 745 -21 117 -20 hstem
          198 724 -92 callgsubr
          endchar
        </CharString>
        <CharString name="H">
          47 21 -21 290 87 290 -20 hstem
          87 92 320 92 vstem
          499 -19 callgsubr
          -290 -320 290 -92 -667 31 callsubr
          667 vlineto
          endchar
        </CharString>
        <CharString name="Hbar">
          129 21 -21 290 87 105 72 113 -20 hstem
          128 92 320 92 vstem
          711 554 rmoveto
          -79 113 -92 -113 -320 113 -92 -113 -80 -72 80 -482 31 callsubr
          482 79 72 hlineto
          -171 -177 rmoveto
          -320 105 320 -105 hlineto
          endchar
        </CharString>
        <CharString name="Hcircumflex">
          47 21 -21 290 87 469 -20 hstem
          87 92 320 92 vstem
          338 789 -106 callgsubr
          161 -122 rmoveto
          -290 -320 290 -92 -667 31 callsubr
          667 -92 vlineto
          endchar
        </CharString>
        <CharString name="Hungarumlaut">
          -239 724 117 hstem
          60 724 -46 callsubr
        </CharString>
        <CharString name="I">
          -365 -2 callsubr
          87 92 vstem
          179 -19 callgsubr
          -92 -667 92 hlineto
          endchar
        </CharString>
        <CharString name="Iacute">
          -365 -15 callsubr
          87 92 vstem
          106 -85 callsubr
          11 -841 27 callgsubr
        </CharString>
        <CharString name="Ibreve">
          46 callsubr
          705 -13 callgsubr
          22 65 92 65 hintmask 10111000
          133 43 callsubr
          hintmask 11011000
          -73 callsubr
          hintmask 10111000
          -93 callgsubr
          46 -705 -40 callsubr
        </CharString>
        <CharString name="Icircumflex">
          46 callsubr
          846 -14 callsubr
          132 789 -106 callgsubr
          47 -789 -40 callsubr
        </CharString>
        <CharString name="Idieresis">
          46 callsubr
          724 85 hstem
          13 91 57 91 vstem
          252 -29 callgsubr
          -148 hmoveto
          -91 -85 91 85 hlineto
          75 -809 -40 callsubr
        </CharString>
        <CharString name="Idotaccent">
          46 callsubr
          724 85 hstemhm
          87 91 -91 92 hintmask 11100000
          178 -29 callgsubr
          hintmask 11010000
          1 -809 -40 callsubr
        </CharString>
        <CharString name="Idotbelow">
          -365 -12 callgsubr
          71 -21 667 -14 callsubr
          178 -50 -93 callsubr
          1 50 27 callgsubr
        </CharString>
        <CharString name="Igrave">
          -365 -1 callsubr
          174 hstem
          87 92 vstem
          159 724 -92 callgsubr
          -72 -57 rmoveto
          92 -667 -92 667 hlineto
          endchar
        </CharString>
        <CharString name="Ihookabove">
          46 callsubr
          823 47 hstemhm
          87 92 -28 52 hintmask 11010000
          203 802 rmoveto
          47 -41 -48 callsubr
          16 25 -6 -18 -13 -17 -6 -20 -2 hvcurveto
          -54 40 23 vlineto
          0 49 7 48 vvcurveto
          hintmask 11100000
          -24 -802 27 callgsubr
        </CharString>
        <CharString name="Imacron">
          46 callsubr
          736 60 hstem
          249 796 -67 callgsubr
          -70 -796 -40 callsubr
        </CharString>
        <CharString name="Iogonek">
          -365 -175 53 143 -21 667 -20 hstemhm
          7 80 0 92 hintmask 11101000
          146 -30 callgsubr
          41 callgsubr
          hvcurveto
          667 -92 -667 8 vlineto
          hintmask 11110000
          -4 -2 -84 -46 -60 -75 callgsubr
          endchar
        </CharString>
        <CharString name="Itilde">
          46 callsubr
          hstem
          285 742 -105 callgsubr
          -106 -742 -40 callsubr
        </CharString>
        <CharString name="J">
          -176 -9 91 585 -20 hstem
          274 92 vstem
          274 667 -29 callsubr
          vlineto
          endchar
        </CharString>
        <CharString name="Jcircumflex">
          -176 -9 91 585 57 -5 callsubr
          hstem
          274 92 vstem
          319 789 -106 callgsubr
          -45 -122 -29 callsubr
          -92 vlineto
          endchar
        </CharString>
        <CharString name="K">
          43 -2 callsubr
          87 92 vstem
          319 365 -33 callgsubr
          endchar
        </CharString>
        <CharString name="Kcommaaccent">
          43 -172 -21 214 -21 667 -14 callsubr
          301 11 callgsubr
          18 414 -33 callgsubr
          -308 365 rlineto
          endchar
        </CharString>
        <CharString name="L">
          -99 0 87 580 -14 callsubr
          179 87 rmoveto
          580 -92 -667 424 87 vlineto
          endchar
        </CharString>
        <CharString name="Lacute">
          -99 0 87 754 -14 callsubr
          106 -85 callsubr
          11 -754 -37 callgsubr
        </CharString>
        <CharString name="Lcaron">
          -99 0 87 580 -14 callsubr
          281 -19 callgsubr
          -45 -9 -32 -29 -8 vhcurveto
          -59 vlineto
          62 12 39 53 79 vvcurveto
          -63 hlineto
          -102 -580 -37 callgsubr
        </CharString>
        <CharString name="Lcommaaccent">
          -99 -22 callgsubr
          49 0 87 580 -20 hstemhm
          87 92 hintmask 11011000
          281 -49 rmoveto
          -45 -9 -32 -79 callgsubr
          -64 hlineto
          hintmask 10111000
          -102 136 -37 callgsubr
        </CharString>
        <CharString name="Ldot">
          -99 0 87 204 85 291 -20 hstem
          87 92 181 91 vstem
          451 376 -93 callsubr
          -272 -289 -37 callgsubr
        </CharString>
        <CharString name="Lslash">
          -99 0 87 580 -20 hstemhm
          17 162 -92 92 -92 232 hintmask 11100000
          179 87 rmoveto
          256 vlineto
          hintmask 11001000
          140 88 rlineto
          73 vlineto
          hintmask 11100000
          -140 -88 rlineto
          251 vlineto
          hintmask 11010000
          -92 -309 hlineto
          hintmask 11100000
          -70 -43 rlineto
          -73 vlineto
          70 44 rlineto
          -286 424 87 -332 vlineto
          endchar
        </CharString>
        <CharString name="M">
          182 -2 callsubr
          87 92 455 92 vstem
          626 -19 callgsubr
          -220 -288 -219 288 rlineto
          -100 -667 92 526 hlineto
          227 -299 228 299 rlineto
          -526 92 667 vlineto
          endchar
        </CharString>
        <CharString name="Macron">
          -228 736 60 hstem
          319 796 -67 callgsubr
          endchar
        </CharString>
        <CharString name="N">
          107 21 -21 667 30 callgsubr
          566 667 -78 callgsubr
          hlineto
          endchar
        </CharString>
        <CharString name="NULL">
          -631 endchar
        </CharString>
        <CharString name="Nacute">
          107 21 -21 841 30 callgsubr
          348 -85 callsubr
          156 -174 -78 callgsubr
          -93 hlineto
          endchar
        </CharString>
        <CharString name="Ncaron">
          107 21 -21 846 30 callgsubr
          385 781 -99 callsubr
          181 -114 -78 callgsubr
          -93 hlineto
          endchar
        </CharString>
        <CharString name="Ncommaaccent">
          107 -172 -21 214 -21 667 30 callgsubr
          341 -49 rmoveto
          -45 -9 -32 -29 -8 vhcurveto
          -59 vlineto
          62 12 39 53 79 vvcurveto
          -63 hlineto
          225 716 -78 callgsubr
          -93 hlineto
          endchar
        </CharString>
        <CharString name="Ntilde">
          107 21 -21 -36 callgsubr
          386 93 vstem
          525 742 -105 callgsubr
          41 -75 -78 callgsubr
          -93 hlineto
          endchar
        </CharString>
        <CharString name="O">
          34 callgsubr
          371 676 rmoveto
          -141 -169 -59 -283 26 callgsubr
          283 -169 59 -141 hvcurveto
          -600 vmoveto
          -84 callgsubr
          endchar
        </CharString>
        <CharString name="OE">
          373 0 87 -74 -21 298 -50 callgsubr
          -75 75 9 -20 hstemhm
          61 93 350 93 hintmask 10110011
          939 580 rmoveto
          87 -435 -13 vlineto
          hintmask 01100111
          16 -43 -46 6 -44 hhcurveto
          -141 -169 -59 -283 -283 169 -59 141 44 46 6 16 43 hvcurveto
          hintmask 10110011
          -14 -27 callsubr
          vlineto
          -568 -504 rmoveto
          -101 -116 29 229 hvcurveto
          hintmask 10101011
          229 116 29 101 45 49 -6 -27 39 vhcurveto
          -450 vlineto
          -27 -39 -49 -6 -45 hhcurveto
          endchar
        </CharString>
        <CharString name="Oacute">
          -41 callsubr
          hintmask 10111000
          334 -85 callsubr
          hintmask 11011000
          -25 -165 rmoveto
          -141 -169 -59 -283 26 callgsubr
          283 -169 59 -141 hvcurveto
          -600 vmoveto
          -84 callgsubr
          endchar
        </CharString>
        <CharString name="Obreve">
          -73 callgsubr
          29 -13 callgsubr
          61 93 106 -24 callsubr
          106 93 hintmask 11011011
          371 43 callsubr
          hintmask 11101101
          -73 callsubr
          hintmask 11011101
          -93 callgsubr
          -29 vmoveto
          -141 -169 -59 -283 26 callgsubr
          283 -169 59 -141 hvcurveto
          -600 vmoveto
          -84 callgsubr
          endchar
        </CharString>
        <CharString name="Ocircumflex">
          -73 callgsubr
          0 48 122 -20 22 callsubr
          hintmask 10111100
          370 789 -106 callgsubr
          1 -113 -75 callsubr
          hintmask 11011100
          -100 callgsubr
          vhcurveto
          endchar
        </CharString>
        <CharString name="Ocircumflexacute">
          -73 callgsubr
          239 -20 hstem
          -34 callgsubr
          vstem
          438 798 -100 callsubr
          -130 -143 -106 callgsubr
          1 -96 rmoveto
          -141 -169 -59 -283 26 callgsubr
          283 -169 59 -141 hvcurveto
          -600 vmoveto
          -84 callgsubr
          endchar
        </CharString>
        <CharString name="Ocircumflexdotbelow">
          -12 callgsubr
          42 84 516 84 0 31 122 44 callsubr
          hintmask 11011111
          416 -50 -93 callsubr
          -46 822 -106 callgsubr
          1 -96 -75 callsubr
          hintmask 11101111
          -100 callgsubr
          vhcurveto
          endchar
        </CharString>
        <CharString name="Ocircumflexgrave">
          -73 callgsubr
          -84 115 208 -20 22 callsubr
          hintmask 10111100
          304 798 -92 callgsubr
          67 -69 callgsubr
          -310 -438 15 callsubr
          hintmask 11011100
          283 -169 59 -141 -141 -169 -59 -283 vhcurveto
          93 hmoveto
          -100 callgsubr
          -101 -116 29 229 vhcurveto
          endchar
        </CharString>
        <CharString name="Ocircumflexhookabove">
          -73 callgsubr
          31 225 -47 47 hstemhm
          61 93 339 53 42 93 hintmask 11101110
          370 772 rmoveto
          42 -65 rlineto
          71 hlineto
          -89 122 rlineto
          -48 hlineto
          0 callgsubr
          hintmask 11011110
          -43 callgsubr
          17 -64 callsubr
          -50 vhcurveto
          -83 -256 rmoveto
          -141 -169 -59 -283 26 callgsubr
          283 -169 59 -141 hvcurveto
          -600 vmoveto
          -84 callgsubr
          endchar
        </CharString>
        <CharString name="Ocircumflextilde">
          -73 callgsubr
          0 25 22 callsubr
          hintmask 10111000
          530 -54 callsubr
          1 -90 -75 callsubr
          hintmask 11011000
          -100 callgsubr
          vhcurveto
          endchar
        </CharString>
        <CharString name="Odieresis">
          -73 callgsubr
          48 85 hstem
          61 93 97 91 57 91 98 93 vstem
          490 -29 callgsubr
          -148 hmoveto
          -91 -85 91 85 hlineto
          29 -133 rmoveto
          -141 -169 -59 -283 26 callgsubr
          283 -169 59 -141 hvcurveto
          -600 vmoveto
          -84 callgsubr
          endchar
        </CharString>
        <CharString name="Odotbelow">
          -12 callgsubr
          42 84 516 84 hstem
          61 93 171 91 172 93 vstem
          416 -50 -93 callsubr
          -45 726 rmoveto
          -141 -169 -59 -283 26 callgsubr
          283 -169 59 -141 hvcurveto
          -600 vmoveto
          -84 callgsubr
          endchar
        </CharString>
        <CharString name="Ograve">
          -41 callsubr
          hintmask 10111000
          408 724 -92 callgsubr
          -347 -390 15 callsubr
          hintmask 11011000
          283 -169 59 -141 -141 -169 -59 -283 vhcurveto
          93 hmoveto
          -100 callgsubr
          -101 -116 29 229 vhcurveto
          endchar
        </CharString>
        <CharString name="Ohookabove">
          -73 callgsubr
          147 47 hstem
          -34 callgsubr
          vstem
          393 799 39 callsubr
          -54 -16 callgsubr
          47 -42 -48 callsubr
          17 24 -6 -18 hvcurveto
          -22 -123 rmoveto
          -141 -169 -59 -283 26 callgsubr
          283 -169 59 -141 hvcurveto
          -600 vmoveto
          -84 callgsubr
          endchar
        </CharString>
        <CharString name="Ohorn">
          155 -73 callgsubr
          16 -20 22 callsubr
          hintmask 10111000
          815 604 -68 callsubr
          hintmask 11011000
          91 -62 -101 24 -90 hhcurveto
          -141 -169 -59 -283 26 callgsubr
          75 -12 60 -20 46 hvcurveto
          24 5 27 11 32 21 rrcurveto
          43 27 40 25 0 vvcurveto
          -444 -528 rmoveto
          -84 callgsubr
          endchar
        </CharString>
        <CharString name="Ohornacute">
          155 -41 callsubr
          hintmask 11011000
          815 604 -68 callsubr
          91 -62 -101 24 -90 hhcurveto
          -141 -169 -59 -283 26 callgsubr
          75 -12 60 -20 46 hvcurveto
          24 5 27 11 32 21 rrcurveto
          43 27 40 25 0 vvcurveto
          -444 -528 rmoveto
          -84 callgsubr
          hintmask 10111000
          116 765 -35 callsubr
          endchar
        </CharString>
        <CharString name="Ohorndotbelow">
          155 -12 callgsubr
          42 84 516 84 16 44 callsubr
          hintmask 11011110
          416 -50 -93 callsubr
          399 654 -68 callsubr
          hintmask 11101110
          91 -62 -101 24 -90 hhcurveto
          -141 -169 -59 -283 26 callgsubr
          75 -12 60 -20 46 hvcurveto
          24 5 27 11 32 21 rrcurveto
          43 27 40 25 0 vvcurveto
          -444 -528 rmoveto
          -84 callgsubr
          endchar
        </CharString>
        <CharString name="Ohorngrave">
          155 -41 callsubr
          hintmask 10111000
          255 841 rmoveto
          -14 callgsubr
          -63 117 rlineto
          471 -237 -68 callsubr
          hintmask 11011000
          91 -62 -101 24 -90 hhcurveto
          -141 -169 -59 -283 26 callgsubr
          75 -12 60 -20 46 hvcurveto
          24 5 27 11 32 21 rrcurveto
          43 27 40 25 0 vvcurveto
          -444 -528 rmoveto
          -84 callgsubr
          endchar
        </CharString>
        <CharString name="Ohornhookabove">
          155 -73 callgsubr
          147 47 hstem
          61 93 237 53 144 93 vstem
          444 802 rmoveto
          47 -42 21 -49 -13 -35 callgsubr
          17 24 -6 -18 -13 -16 -6 -20 -2 hvcurveto
          -54 -16 callgsubr
          371 -198 -68 callsubr
          91 -62 -101 24 -90 hhcurveto
          -141 -169 -59 -283 26 callgsubr
          75 -12 60 -20 46 hvcurveto
          24 5 27 11 32 21 rrcurveto
          43 27 40 25 0 vvcurveto
          -444 -528 rmoveto
          -84 callgsubr
          endchar
        </CharString>
        <CharString name="Ohorntilde">
          155 34 callgsubr
          523 742 -105 callgsubr
          292 -138 -68 callsubr
          91 -62 -101 24 -90 hhcurveto
          -141 -169 -59 -283 26 callgsubr
          75 -12 60 -20 46 hvcurveto
          24 5 27 11 32 21 rrcurveto
          43 27 40 25 0 vvcurveto
          -444 -528 rmoveto
          -84 callgsubr
          endchar
        </CharString>
        <CharString name="Ohungarumlaut">
          -73 callgsubr
          48 117 hstem
          -34 callgsubr
          vstem
          371 676 rmoveto
          -141 -169 -59 -283 26 callgsubr
          283 -169 59 -141 hvcurveto
          -600 vmoveto
          -84 callgsubr
          -100 648 -100 callsubr
          66 -117 -100 callsubr
          endchar
        </CharString>
        <CharString name="Omacron">
          -73 callgsubr
          60 60 hstem
          -34 callgsubr
          vstem
          487 796 -67 callgsubr
          -116 -120 rmoveto
          -141 -169 -59 -283 26 callgsubr
          283 -169 59 -141 hvcurveto
          -600 vmoveto
          -84 callgsubr
          endchar
        </CharString>
        <CharString name="Oslash">
          -8 84 -55 -21 592 84 22 callsubr
          hintmask 01111000
          699 -19 callgsubr
          -93 hlineto
          -40 -46 rlineto
          -22 callsubr
          hintmask 10111000
          -76 callsubr
        </CharString>
        <CharString name="Oslashacute">
          -8 84 -55 -21 592 84 -84 249 22 callsubr
          hintmask 10011100
          331 -85 callsubr
          306 -174 rmoveto
          -93 hlineto
          -40 -46 rlineto
          hintmask 01101100
          -22 callsubr
          hintmask 10101100
          -76 callsubr
        </CharString>
        <CharString name="Otilde">
          34 callgsubr
          523 742 -105 callgsubr
          -152 -66 rmoveto
          -141 -169 -59 -283 26 callgsubr
          283 -169 59 -141 hvcurveto
          -600 vmoveto
          -84 callgsubr
          endchar
        </CharString>
        <CharString name="P">
          -31 21 -21 247 82 254 84 hstem
          86 93 288 92 vstem
          326 -19 callgsubr
          -240 -667 93 247 147 24 callsubr
          -8 -338 rmoveto
          -139 254 139 hlineto
          131 18 -64 -63 -63 -18 -64 -131 hvcurveto
          endchar
        </CharString>
        <CharString name="Q">
          -176 71 696 84 hstemhm
          61 93 177 91 -91 191 67 92 hintmask 11101100
          681 334 rmoveto
          282 -168 59 -142 -141 -169 -59 -282 -257 139 -72 131 -11 vhcurveto
          -93 78 -77 113 vhcurveto
          71 vlineto
          hintmask 11110100
          -66 -34 50 50 hvcurveto
          128 14 131 76 249 vvcurveto
          -310 -258 rmoveto
          -101 -116 30 228 228 116 29 101 101 117 -29 -228 -228 -117 -30 -101 hvcurveto
          endchar
        </CharString>
        <CharString name="R">
          19 callgsubr
          -36 callgsubr
          300 93 vstem
          424 268 -90 callsubr
        </CharString>
        <CharString name="Racute">
          19 callgsubr
          174 9 callsubr
          300 93 vstem
          259 -85 callsubr
          103 -573 -90 callsubr
        </CharString>
        <CharString name="Rcaron">
          19 callgsubr
          179 9 callsubr
          300 93 vstem
          298 781 -99 callsubr
          126 -513 -90 callsubr
        </CharString>
        <CharString name="Rcommaaccent">
          3 -172 -21 214 -21 253 88 0 243 0 83 -36 callgsubr
          300 93 vstem
          298 -49 rmoveto
          -45 -10 -32 -28 -8 vhcurveto
          -59 vlineto
          62 12 39 53 79 vvcurveto
          -63 hlineto
          126 317 -90 callsubr
        </CharString>
        <CharString name="S">
          36 callsubr
          -16 callsubr
          hintmask 11110000
          -95 callsubr
          -29 58 67 -20 73 hhcurveto
          hintmask 11101000
          -57 callsubr
          endchar
        </CharString>
        <CharString name="Sacute">
          36 callsubr
          166 -20 -16 callsubr
          hintmask 11111000
          -95 callsubr
          -29 58 67 -20 73 hhcurveto
          hintmask 11110100
          -57 callsubr
          90 239 rmoveto
          57 hlineto
          95 117 rlineto
          -89 hlineto
          endchar
        </CharString>
        <CharString name="Scaron">
          36 callsubr
          171 -20 -16 callsubr
          hintmask 11111000
          -95 callsubr
          -29 58 67 -20 73 hhcurveto
          hintmask 11110100
          -57 callsubr
          136 296 12 callsubr
          endchar
        </CharString>
        <CharString name="Scedilla">
          -67 -128 209 -88 88 504 90 -16 callsubr
          hintmask 01111000
          -95 callsubr
          51 -26 59 -18 63 -4 rrcurveto
          hintmask 10110100
          -88 -121 rlineto
          91 hlineto
          69 -74 callgsubr
          122 13 72 66 102 236 -355 -42 116 vvcurveto
          endchar
        </CharString>
        <CharString name="Scircumflex">
          36 callsubr
          0 49 122 -20 -16 callsubr
          hintmask 11011100
          -95 callsubr
          -29 58 67 -20 73 hhcurveto
          hintmask 10111010
          -57 callsubr
          136 304 rmoveto
          -104 callgsubr
          endchar
        </CharString>
        <CharString name="Scommaaccent">
          -67 -180 -21 151 131 -89 89 504 90 hstemhm
          61 93 170 185 -93 50 hintmask 10111010
          -95 callsubr
          -29 58 67 -20 73 hhcurveto
          hintmask 11011100
          -57 callsubr
          99 -535 rmoveto
          71 hlineto
          -73 -33 -64 -79 -14 vhcurveto
          63 vlineto
          34 10 7 35 43 vvcurveto
          endchar
        </CharString>
        <CharString name="T">
          -63 21 -21 32 callgsubr
          555 -19 callgsubr
          -543 -17 callsubr
          hlineto
          endchar
        </CharString>
        <CharString name="Tbar">
          -63 21 -21 298 71 211 87 hstem
          237 92 vstem
          555 580 rmoveto
          87 -543 -87 225 -211 -136 -71 136 -298 92 298 136 71 -136 211 226 vlineto
          endchar
        </CharString>
        <CharString name="Tcaron">
          -63 21 -21 580 87 179 -20 hstem
          237 92 vstem
          284 781 -99 callsubr
          -272 -114 rmoveto
          -17 callsubr
          87 -543 vlineto
          endchar
        </CharString>
        <CharString name="Tcommaaccent">
          -63 -22 callgsubr
          49 32 callgsubr
          250 -49 rmoveto
          -45 -9 -32 -79 callgsubr
          -64 hlineto
          -238 716 rmoveto
          -17 callsubr
          87 -543 vlineto
          endchar
        </CharString>
        <CharString name="Thorn">
          -51 21 -21 147 82 256 82 100 -20 hstem
          86 93 254 92 vstem
          292 567 rmoveto
          -113 100 -93 -667 93 147 113 24 callsubr
          141 -211 rmoveto
          -63 -18 -64 -131 vhcurveto
          -105 256 105 hlineto
          131 18 -64 -63 0 0 -1 0 hvcurveto
          0 0 -1 0 vhcurveto
          endchar
        </CharString>
        <CharString name="U">
          89 -9 84 592 -39 callgsubr
          540 -19 callgsubr
          -105 callsubr
          392 vlineto
          endchar
        </CharString>
        <CharString name="Uacute">
          90 -9 84 766 -39 callgsubr
          325 -85 callsubr
          153 -174 rmoveto
          -105 callsubr
          392 -93 vlineto
          endchar
        </CharString>
        <CharString name="Ubreve">
          90 -9 84 630 -13 callgsubr
          87 93 69 -24 callsubr
          69 93 hintmask 10110110
          360 43 callsubr
          hintmask 11011010
          -73 callsubr
          hintmask 10111010
          -93 callgsubr
          180 -38 rmoveto
          -105 callsubr
          392 -93 vlineto
          endchar
        </CharString>
        <CharString name="Ucaron">
          90 -9 84 771 -39 callgsubr
          360 781 -99 callsubr
          180 -114 rmoveto
          -105 callsubr
          392 -93 vlineto
          endchar
        </CharString>
        <CharString name="Ucircumflex">
          90 -9 84 771 -39 callgsubr
          359 789 -106 callgsubr
          181 -122 rmoveto
          -105 callsubr
          392 -93 vlineto
          endchar
        </CharString>
        <CharString name="Udieresis">
          90 -9 84 649 85 -36 callgsubr
          60 91 57 91 61 93 vstem
          479 -29 callgsubr
          -148 hmoveto
          -91 -85 91 85 hlineto
          209 -142 rmoveto
          -105 callsubr
          392 -93 vlineto
          endchar
        </CharString>
        <CharString name="Udotbelow">
          90 -12 callgsubr
          41 84 592 9 callsubr
          134 91 135 93 vstem
          405 -50 -93 callsubr
          135 717 rmoveto
          -105 callsubr
          392 -93 vlineto
          endchar
        </CharString>
        <CharString name="Ugrave">
          90 -9 84 766 -39 callgsubr
          395 724 -92 callgsubr
          -308 -57 rmoveto
          -392 vlineto
          -180 100 -104 173 174 99 104 180 vhcurveto
          392 -93 -400 vlineto
          -131 -57 -61 -123 -123 -57 61 131 vhcurveto
          400 -93 vlineto
          endchar
        </CharString>
        <CharString name="Uhookabove">
          90 -9 84 748 47 -36 callgsubr
          202 53 105 93 vstem
          343 870 rmoveto
          -12 -11 -1 -3 -10 hvcurveto
          -3 callgsubr
          -13 -16 -6 -21 -2 hvcurveto
          -54 28 callsubr
          47 -42 21 -50 vhcurveto
          197 -203 rmoveto
          -105 callsubr
          392 -93 vlineto
          endchar
        </CharString>
        <CharString name="Uhorn">
          171 -9 84 628 -39 callgsubr
          776 703 -103 callsubr
        </CharString>
        <CharString name="Uhornacute">
          171 -9 84 766 -39 callgsubr
          479 841 -35 callsubr
          297 -138 -103 callsubr
        </CharString>
        <CharString name="Uhorndotbelow">
          171 -12 callgsubr
          41 84 628 9 callsubr
          134 91 135 93 vstem
          405 -50 -93 callsubr
          371 753 -103 callsubr
        </CharString>
        <CharString name="Uhorngrave">
          171 -9 84 766 -39 callgsubr
          241 841 rmoveto
          -14 callgsubr
          -63 117 rlineto
          446 -138 -103 callsubr
        </CharString>
        <CharString name="Uhornhookabove">
          171 -9 84 748 47 -36 callgsubr
          200 53 107 93 vstem
          341 870 rmoveto
          -12 -11 -1 -2 -10 hvcurveto
          -46 vlineto
          -63 callsubr
          435 -167 -103 callsubr
        </CharString>
        <CharString name="Uhorntilde">
          171 -9 84 -60 callgsubr
          514 742 -105 callgsubr
          262 -39 -103 callsubr
        </CharString>
        <CharString name="Uhungarumlaut">
          90 -9 84 649 117 -60 callgsubr
          540 -19 callgsubr
          -105 callsubr
          392 -93 vlineto
          -280 57 -100 callsubr
          66 -117 -100 callsubr
          endchar
        </CharString>
        <CharString name="Umacron">
          90 -9 84 661 60 -60 callgsubr
          476 796 -67 callgsubr
          64 -129 rmoveto
          -105 callsubr
          392 -93 vlineto
          endchar
        </CharString>
        <CharString name="Uogonek">
          90 -175 53 113 84 592 9 callsubr
          88 80 192 93 vstem
          540 -19 callgsubr
          -400 vlineto
          -131 -57 -61 -123 -123 -57 61 131 vhcurveto
          400 -93 -392 vlineto
          -174 92 -102 162 -8 vhcurveto
          -25 -16 -48 -37 -46 -75 callgsubr
          -71 callgsubr
          34 50 36 40 23 hvcurveto
          125 28 70 97 151 vvcurveto
          392 -93 vlineto
          endchar
        </CharString>
        <CharString name="Uring">
          90 -9 84 620 41 90 41 -36 callgsubr
          93 48 78 48 93 93 vstem
          360 695 -83 callsubr
          180 -159 rmoveto
          -105 callsubr
          392 -93 vlineto
          endchar
        </CharString>
        <CharString name="Utilde">
          90 -9 84 -60 callgsubr
          512 742 -105 callgsubr
          28 -75 rmoveto
          -105 callsubr
          392 -93 vlineto
          endchar
        </CharString>
        <CharString name="V">
          -2 -2 callsubr
          518 -19 callgsubr
          -204 -550 -203 550 rlineto
          -99 hlineto
          256 -37 callsubr
          93 hlineto
          256 667 rlineto
          endchar
        </CharString>
        <CharString name="W">
          327 -2 callsubr
          846 667 -86 callgsubr
          endchar
        </CharString>
        <CharString name="Wacute">
          327 -15 callsubr
          451 -85 callsubr
          -501 -174 rmoveto
          214 -37 callsubr
          95 hlineto
          156 501 157 -501 rlineto
          95 hlineto
          214 667 rlineto
          -97 44 callgsubr
          -79 44 callgsubr
          -97 hlineto
          endchar
        </CharString>
        <CharString name="Wcircumflex">
          327 21 -21 846 -20 hstem
          477 789 -106 callgsubr
          369 -122 -86 callgsubr
          -97 hlineto
          endchar
        </CharString>
        <CharString name="Wdieresis">
          327 21 -21 724 85 hstem
          358 91 57 91 vstem
          597 -29 callgsubr
          -148 hmoveto
          -91 -85 91 85 hlineto
          397 -142 -86 callgsubr
          -97 hlineto
          endchar
        </CharString>
        <CharString name="Wgrave">
          327 -15 callsubr
          503 724 -92 callgsubr
          343 -57 -86 callgsubr
          -97 hlineto
          endchar
        </CharString>
        <CharString name="X">
          -19 -2 callsubr
          594 -19 callgsubr
          -113 hlineto
          -175 -249 -175 249 rlineto
          -113 hlineto
          233 -333 -239 -334 rlineto
          113 hlineto
          181 257 180 -257 rlineto
          114 hlineto
          -242 343 rlineto
          endchar
        </CharString>
        <CharString name="Y">
          -8 -2 callsubr
          265 92 vstem
          611 -19 callgsubr
          -113 hlineto
          -187 -273 -187 273 rlineto
          -112 hlineto
          253 -369 rlineto
          -298 92 299 vlineto
          endchar
        </CharString>
        <CharString name="Yacute">
          -8 -15 callsubr
          265 92 vstem
          274 -85 callsubr
          275 -174 -85 callgsubr
        </CharString>
        <CharString name="Ycircumflex">
          -8 21 -21 846 -20 hstem
          265 92 vstem
          311 789 -106 callgsubr
          300 -122 -85 callgsubr
        </CharString>
        <CharString name="Ydieresis">
          -7 21 -21 724 85 hstemhm
          192 91 -18 92 -17 91 hintmask 11101000
          431 -29 callgsubr
          -148 hmoveto
          -91 -85 91 85 hlineto
          328 -142 rmoveto
          -113 hlineto
          -187 -273 -187 273 rlineto
          -112 hlineto
          hintmask 11010000
          13 callgsubr
        </CharString>
        <CharString name="Ydotbelow">
          -8 -12 callgsubr
          71 -21 667 -20 hstem
          265 92 vstem
          357 -50 -93 callsubr
          254 717 -85 callgsubr
        </CharString>
        <CharString name="Ygrave">
          -8 -15 callsubr
          265 92 vstem
          192 841 rmoveto
          -14 callgsubr
          -63 117 rlineto
          330 -174 -85 callgsubr
        </CharString>
        <CharString name="Yhookabove">
          -8 21 -21 823 47 hstemhm
          265 92 -29 53 hintmask 11010000
          290 870 rmoveto
          -13 -11 -1 -3 -9 hvcurveto
          -46 vlineto
          2 8 10 1 12 hhcurveto
          17 24 -6 -18 -13 -16 -6 -20 -2 hvcurveto
          -54 -16 callgsubr
          47 -42 21 -49 vhcurveto
          321 -203 rmoveto
          -113 hlineto
          -187 -273 -187 273 rlineto
          -112 hlineto
          hintmask 11100000
          13 callgsubr
        </CharString>
        <CharString name="Ytilde">
          -7 21 -21 hstem
          265 92 vstem
          467 742 -105 callgsubr
          144 -75 -85 callgsubr
        </CharString>
        <CharString name="Z">
          35 callsubr
          hstem
          536 584 -60 callsubr
          endchar
        </CharString>
        <CharString name="Zacute">
          35 callsubr
          174 -20 hstem
          269 -85 callsubr
          205 -257 -60 callsubr
          350 492 rlineto
          endchar
        </CharString>
        <CharString name="Zcaron">
          35 callsubr
          179 -20 hstem
          309 781 -99 callsubr
          227 -197 -60 callsubr
          350 492 rlineto
          endchar
        </CharString>
        <CharString name="Zdotaccent">
          35 callsubr
          57 85 hstem
          254 91 vstem
          345 -29 callgsubr
          191 -225 -60 callsubr
          350 492 rlineto
          endchar
        </CharString>
        <CharString name="a">
          -97 -81 callsubr
          hstem
          56 91 235 92 vstem
          257 507 rmoveto
          -64 -50 -13 -14 -37 hvcurveto
          -78 vlineto
          -80 callgsubr
          -101 callgsubr
          -39 15 -126 196 192 15 -47 callsubr
          144 vlineto
          135 -78 74 -139 vhcurveto
          125 -352 rmoveto
          -55 -39 -27 -76 -79 -41 28 57 71 105 13 43 33 30 -2 -4 24 vhcurveto
          endchar
        </CharString>
        <CharString name="aacute">
          -94 -81 callsubr
          174 -20 21 callgsubr
          225 564 -100 callsubr
          -30 -174 rmoveto
          -40 callgsubr
          -103 callgsubr
          -71 callsubr
        </CharString>
        <CharString name="abreve">
          -94 -81 callsubr
          38 -13 callgsubr
          56 91 15 -24 callsubr
          -2 91 hintmask 1110110100000000
          273 545 -65 callgsubr
          -16 -38 rmoveto
          -40 callgsubr
          -103 callgsubr
          -71 callsubr
        </CharString>
        <CharString name="abreveacute">
          -23 callgsubr
          241 661 -100 callsubr
          -29 -239 rmoveto
          hintmask 1110101010000000
          -83 callgsubr
          hintmask 1111001101000000
          -73 callsubr
          hintmask 1110101101000000
          -93 callgsubr
          -17 -32 rmoveto
          -40 callgsubr
          -103 callgsubr
          -71 callsubr
        </CharString>
        <CharString name="abrevedotbelow">
          -97 -12 callgsubr
          42 81 169 73 112 80 32 58 -58 107 6 callsubr
          -156 91 62 91 hintmask 1111011101100000
          -38 callsubr
          -39 15 -126 196 192 14 -47 callsubr
          144 vlineto
          -106 callsubr
          -62 -205 -93 callsubr
          -46 589 rmoveto
          hintmask 1111011010000000
          -83 callgsubr
          hintmask 1111101101100000
          -73 callsubr
          hintmask 1111011101100000
          -93 callgsubr
          endchar
        </CharString>
        <CharString name="abrevegrave">
          -23 callgsubr
          307 661 -92 callgsubr
          -33 -122 rmoveto
          hintmask 1110101010000000
          -83 callgsubr
          hintmask 1111001101000000
          -73 callsubr
          hintmask 1110101101000000
          -93 callgsubr
          -17 -32 rmoveto
          -40 callgsubr
          -103 callgsubr
          -71 callsubr
        </CharString>
        <CharString name="abrevehookabove">
          -97 -81 callsubr
          32 58 -58 107 112 47 hstemhm
          56 91 16 60 71 52 -21 60 -3 91 hintmask 1110111101000000
          274 539 rmoveto
          -83 callgsubr
          hintmask 1111011110100000
          -73 callsubr
          hintmask 1110111110100000
          -93 callgsubr
          -17 -32 rmoveto
          -40 callgsubr
          -103 callgsubr
          -106 callsubr
          -108 384 rmoveto
          hintmask 1110111101000000
          -83 callgsubr
          hintmask 1111011110100000
          -73 callsubr
          hintmask 1110111110100000
          -93 callgsubr
          -19 266 rmoveto
          -12 -11 -1 -2 -10 hvcurveto
          -46 vlineto
          -43 callgsubr
          16 25 -5 -19 -12 -17 -6 -20 -2 hvcurveto
          -55 40 23 vlineto
          0 49 7 48 vvcurveto
          48 -41 20 -50 vhcurveto
          endchar
        </CharString>
        <CharString name="abrevetilde">
          -97 -81 callsubr
          32 58 -58 107 6 callsubr
          -3 91 hintmask 1110111010000000
          -38 callsubr
          -39 15 -126 196 192 14 -47 callsubr
          144 vlineto
          -106 callsubr
          -108 384 rmoveto
          hintmask 1110110100000000
          -83 callgsubr
          hintmask 1111011010000000
          -73 callsubr
          hintmask 1110111010000000
          -93 callgsubr
          152 176 -82 callsubr
        </CharString>
        <CharString name="acaron">
          -97 -81 callsubr
          179 -20 21 callgsubr
          -38 callsubr
          -39 15 -126 196 192 14 -47 callsubr
          144 vlineto
          -106 callsubr
          -103 466 -9 callgsubr
        </CharString>
        <CharString name="acircumflex">
          -94 -8 81 0 169 0 73 0 112 0 80 0 57 -24 callgsubr
          -6 callsubr
          hintmask 1010011110000000
          277 629 -106 callgsubr
          -20 -122 rmoveto
          -88 callgsubr
          hintmask 1001011110000000
          -80 callgsubr
          -103 callgsubr
          hintmask 0100101110000000
          -71 callsubr
        </CharString>
        <CharString name="acircumflexacute">
          -97 -81 callsubr
          164 -20 106 -20 21 callgsubr
          342 640 -100 callsubr
          -129 -143 -106 callgsubr
          -18 -107 rmoveto
          -40 callgsubr
          -103 callgsubr
          -71 callsubr
        </CharString>
        <CharString name="acircumflexdotbelow">
          -97 -12 callgsubr
          42 81 0 169 0 73 0 112 0 80 0 40 -24 callgsubr
          56 91 82 91 62 91 hintmask 1100101111100000
          -38 callsubr
          -39 15 -126 196 192 14 -47 callsubr
          144 vlineto
          hintmask 1010010111100000
          -106 callsubr
          -62 -205 -93 callsubr
          -46 662 rmoveto
          hintmask 1101001111100000
          -65 callsubr
        </CharString>
        <CharString name="acircumflexgrave">
          -97 -81 callsubr
          164 -20 106 -20 hstem
          57 9 callgsubr
          vstem
          208 640 -92 callgsubr
          68 -26 -106 callgsubr
          -18 -107 rmoveto
          -40 callgsubr
          -103 callgsubr
          -71 callsubr
        </CharString>
        <CharString name="acircumflexhookabove">
          -97 -81 callsubr
          42 39 callgsubr
          -6 callsubr
          -76 53 hintmask 1111001100000000
          -38 callsubr
          -39 15 -126 196 192 14 -47 callsubr
          144 vlineto
          -106 callsubr
          -107 459 rmoveto
          -63 callgsubr
          hintmask 1110111100000000
          -89 -74 callgsubr
          -48 hlineto
          hintmask 1111001100000000
          -88 -122 rlineto
          70 hlineto
          42 65 rlineto
          83 -52 callsubr
          hintmask 1110111010000000
          -43 callgsubr
          17 -64 callsubr
          -50 vhcurveto
          endchar
        </CharString>
        <CharString name="acircumflextilde">
          -97 -8 81 0 169 0 73 0 112 0 80 0 34 hstemhm
          -6 callsubr
          hintmask 10100111
          434 712 -105 callgsubr
          -159 -106 -106 callgsubr
          -18 -99 rmoveto
          -88 callgsubr
          hintmask 10010111
          -80 callgsubr
          -103 callgsubr
          hintmask 01001011
          -71 callsubr
        </CharString>
        <CharString name="acute">
          -378 585 -21 117 -20 hstem
          117 564 rmoveto
          95 -67 callsubr
          -62 -117 rlineto
          endchar
        </CharString>
        <CharString name="adieresis">
          -94 -81 callsubr
          57 85 hstemhm
          56 91 11 91 57 91 -15 91 hintmask 11111110
          397 6 callgsubr
          -148 hmoveto
          -91 -85 91 85 hlineto
          8 -142 rmoveto
          -40 callgsubr
          hintmask 11111101
          -103 callgsubr
          -71 callsubr
        </CharString>
        <CharString name="adotbelow">
          -97 -12 callgsubr
          42 81 169 73 112 80 hstem
          56 91 82 91 62 91 vstem
          -38 callsubr
          -39 15 -126 196 192 14 -47 callsubr
          144 vlineto
          -106 callsubr
          -62 -205 -93 callsubr
          endchar
        </CharString>
        <CharString name="ae">
          25 callgsubr
          hstemhm
          54 9 callgsubr
          hintmask 10011110
          819 266 -70 callsubr
          hintmask 01101110
          26 callsubr
          hintmask 10101110
          -19 -39 -56 -18 -77 hhcurveto
          -66 -61 23 104 -14 hvcurveto
          344 hlineto
          2 22 1 23 24 vvcurveto
          -439 -111 rmoveto
          -55 -39 -27 -76 -79 -41 28 57 vhcurveto
          hintmask 10011110
          71 105 13 43 33 30 -2 -4 24 vhcurveto
          -81 vlineto
          hintmask 10101110
          91 125 -52 callgsubr
        </CharString>
        <CharString name="aeacute">
          25 callgsubr
          174 -20 hstemhm
          54 9 callgsubr
          hintmask 10011111
          405 564 -100 callsubr
          352 -415 -70 callsubr
          hintmask 01101111
          26 callsubr
          hintmask 10101111
          -19 -39 -56 -18 -77 hhcurveto
          -66 -61 23 104 -14 hvcurveto
          344 hlineto
          2 22 1 23 24 vvcurveto
          -439 -111 rmoveto
          -55 -39 -27 -76 -79 -41 28 57 vhcurveto
          hintmask 10011111
          71 105 13 43 33 30 -2 -4 24 vhcurveto
          -81 vlineto
          hintmask 10101111
          91 125 -52 callgsubr
        </CharString>
        <CharString name="agrave">
          -94 -81 callsubr
          174 -20 21 callgsubr
          306 564 -92 callgsubr
          -49 -57 rmoveto
          -40 callgsubr
          -103 callgsubr
          -71 callsubr
        </CharString>
        <CharString name="ahookabove">
          -97 -81 callsubr
          156 47 hstem
          56 91 132 53 50 91 vstem
          -38 callsubr
          -39 15 -126 196 192 14 -47 callsubr
          144 vlineto
          -106 callsubr
          -103 484 rmoveto
          -12 -16 -6 -21 -2 vhcurveto
          -55 40 2 callsubr
          -12 -11 -1 -2 -10 vhcurveto
          -46 vlineto
          -43 callgsubr
          17 24 -5 -19 hvcurveto
          endchar
        </CharString>
        <CharString name="amacron">
          -94 -81 callsubr
          69 60 21 callgsubr
          389 636 -67 callgsubr
          -132 -129 rmoveto
          -40 callgsubr
          -103 callgsubr
          -71 callsubr
        </CharString>
        <CharString name="ampersand">
          16 -8 78 -49 -21 602 74 hstemhm
          54 83 -16 82 149 81 hintmask 10101100
          502 139 rmoveto
          32 53 17 57 7 43 rrcurveto
          -86 hlineto
          0 -8 -45 -18 -41 vhcurveto
          -130 156 rlineto
          79 46 38 42 74 vvcurveto
          85 -68 67 -88 -86 -70 -70 -86 -45 33 -52 29 -36 vhcurveto
          hintmask 10110100
          -113 -65 -16 -74 -60 vvcurveto
          -76 58 -120 154 79 60 32 45 45 vhcurveto
          hintmask 01101100
          57 -69 rlineto
          111 hlineto
          -116 139 rlineto
          -224 463 rmoveto
          42 32 -31 -41 -34 -10 -22 -83 -47 hvcurveto
          -30 36 -26 42 21 vvcurveto
          42 33 34 42 vhcurveto
          hintmask 10110100
          -10 -532 rmoveto
          -108 -23 83 32 32 0 52 103 54 hvcurveto
          160 -193 rlineto
          -34 -32 -43 -26 -57 hhcurveto
          endchar
        </CharString>
        <CharString name="aogonek">
          -94 -175 53 115 80 169 73 112 80 hstem
          56 91 23 80 132 91 vstem
          -38 callsubr
          -38 14 -118 175 -8 hvcurveto
          -24 -16 -51 -38 -47 -75 callgsubr
          -71 callgsubr
          34 50 37 41 23 hvcurveto
          122 27 10 95 32 vvcurveto
          144 vlineto
          -71 callsubr
        </CharString>
        <CharString name="approxequal">
          -7 518 260 rmoveto
          -131 -147 -158 262 -132 -138 rrcurveto
          -74 vlineto
          131 147 158 -263 132 138 rrcurveto
          221 vmoveto
          -131 -147 -158 263 -132 -138 rrcurveto
          -75 vlineto
          131 147 158 -262 132 138 rrcurveto
          endchar
        </CharString>
        <CharString name="aring">
          -94 -81 callsubr
          28 41 90 41 hstem
          56 91 38 48 78 48 23 91 vstem
          272 535 -83 callsubr
          -15 -159 rmoveto
          -40 callgsubr
          -103 callgsubr
          -71 callsubr
        </CharString>
        <CharString name="asciicircum">
          -71 494 -21 217 -20 hstem
          293 690 rmoveto
          -55 hlineto
          -105 -217 rlineto
          70 hlineto
          63 148 63 -148 rlineto
          70 hlineto
          -106 217 rlineto
          endchar
        </CharString>
        <CharString name="asciitilde">
          -131 402 250 -82 callsubr
        </CharString>
        <CharString name="asterisk">
          -220 481 -21 241 -20 hstem
          327 615 rmoveto
          -31 53 -68 -49 7 82 rlineto
          -61 hlineto
          9 -82 -68 49 -31 -53 79 -35 -79 -34 31 -55 68 50 -9 -81 rlineto
          61 hlineto
          -7 81 68 -50 31 55 -78 34 78 35 rlineto
          endchar
        </CharString>
        <CharString name="at">
          282 -150 55 125 57 148 59 90 61 99 57 hstem
          83 55 151 65 223 66 141 57 vstem
          510 601 rmoveto
          -202 -225 -172 -248 -241 200 -90 126 87 68 16 24 54 hvcurveto
          9 65 rlineto
          -27 -51 -70 -23 -95 hhcurveto
          -71 -202 54 219 205 188 161 180 109 169 -72 -197 -133 -53 -55 -52 -86 50 112 107 90 -55 49 -102 -47 -43 -11 -11 -33 hvcurveto
          -9 -63 rlineto
          13 32 43 11 48 hhcurveto
          92 8 -39 -39 hvcurveto
          -6 -1 -5 -5 vvcurveto
          3 -21 -23 1 -25 hhcurveto
          -190 -28 -92 -55 -72 58 -45 94 80 41 31 31 22 hvcurveto
          -33 13 26 -29 52 hhcurveto
          116 50 128 119 236 -203 88 -128 hvcurveto
          53 -405 rmoveto
          -55 -8 -13 -45 -101 hhcurveto
          -40 -47 9 44 58 52 28 101 22 20 -1 -2 18 hvcurveto
          -2 -12 -1 -12 -1 -12 rrcurveto
          endchar
        </CharString>
        <CharString name="atilde">
          -94 -81 callsubr
          21 callgsubr
          426 582 -105 callgsubr
          -169 -75 rmoveto
          -40 callgsubr
          -103 callgsubr
          -71 callsubr
        </CharString>
        <CharString name="b">
          -61 18 callgsubr
          83 91 244 92 vstem
          281 507 45 callgsubr
          -535 vlineto
          -38 15 -124 191 83 138 34 230 207 -125 44 -104 vhcurveto
          8 -434 rmoveto
          -76 -39 25 50 hvcurveto
          257 vlineto
          14 34 36 7 37 hhcurveto
          71 66 -21 -149 -162 -69 -21 -60 hvcurveto
          endchar
        </CharString>
        <CharString name="backslash">
          -239 -77 -21 854 -20 hstem
          50 756 rmoveto
          -87 hlineto
          368 -854 rlineto
          86 hlineto
          -367 854 rlineto
          endchar
        </CharString>
        <CharString name="bar">
          -169 -78 -21 766 -20 hstem
          185 92 vstem
          277 -99 rmoveto
          766 -92 -766 92 vlineto
          endchar
        </CharString>
        <CharString name="braceleft">
          -258 -110 77 655 77 hstemhm
          144 88 -88 164 hintmask 11100000
          232 396 rmoveto
          150 vlineto
          hintmask 11010000
          64 26 12 50 vhcurveto
          77 vlineto
          -3 -2 0 -3 hhcurveto
          -101 -55 -55 -101 hvcurveto
          -153 vlineto
          -39 -29 -16 -24 -7 vhcurveto
          -67 vlineto
          24 -7 29 -16 -39 vvcurveto
          -152 vlineto
          -101 55 -56 101 vhcurveto
          3 2 0 3 hhcurveto
          77 vlineto
          hintmask 11100000
          -50 1 -26 12 63 vvcurveto
          150 vlineto
          40 -24 37 -34 25 vhcurveto
          34 24 24 37 40 vvcurveto
          endchar
        </CharString>
        <CharString name="braceright">
          -260 -110 77 655 77 hstemhm
          76 165 -89 89 hintmask 11010000
          152 193 rmoveto
          -150 vlineto
          hintmask 11100000
          -63 -25 -12 -51 -1 vhcurveto
          -77 vlineto
          3 3 0 3 hhcurveto
          100 56 56 101 hvcurveto
          152 vlineto
          39 29 16 23 7 vhcurveto
          67 vlineto
          -23 7 -29 16 39 vvcurveto
          153 vlineto
          101 -56 55 -100 vhcurveto
          -3 -3 0 -3 hhcurveto
          -77 vlineto
          hintmask 11010000
          51 25 -12 -64 hvcurveto
          -150 vlineto
          -40 24 -37 34 -24 vhcurveto
          -34 -25 -24 -37 -40 vvcurveto
          endchar
        </CharString>
        <CharString name="bracketleft">
          -248 -116 74 664 74 hstemhm
          119 77 -77 181 hintmask 11100000
          196 622 rmoveto
          hintmask 11010000
          104 74 -181 -812 181 74 hlineto
          hintmask 11100000
          -104 664 hlineto
          endchar
        </CharString>
        <CharString name="bracketright">
          -250 -116 74 664 74 hstemhm
          84 180 -77 77 hintmask 11010000
          187 622 rmoveto
          -664 vlineto
          hintmask 11100000
          -103 -74 180 812 -180 -74 hlineto
          hintmask 11010000
          103 hlineto
          endchar
        </CharString>
        <CharString name="breve">
          -189 545 -13 callgsubr
          111 -24 callsubr
          hintmask 01010000
          222 -18 callsubr
          hintmask 10100000
          -73 callsubr
          hintmask 01100000
          -93 callgsubr
          endchar
        </CharString>
        <CharString name="bullet">
          -209 211 245 hstem
          83 245 vstem
          328 334 rmoveto
          68 -55 54 -67 -68 -55 -54 -68 -68 55 -55 68 67 55 55 68 vhcurveto
          endchar
        </CharString>
        <CharString name="c">
          -3 callsubr
          hstem
          58 96 vstem
          301 75 -89 callsubr
        </CharString>
        <CharString name="cacute">
          -3 callsubr
          174 -20 hstem
          58 96 vstem
          260 564 -100 callsubr
          -21 -606 -89 callsubr
        </CharString>
        <CharString name="caron">
          -206 585 -21 -5 callsubr
          hstem
          214 621 -9 callgsubr
        </CharString>
        <CharString name="ccaron">
          -3 callsubr
          179 -20 hstem
          58 96 vstem
          280 621 rmoveto
          -41 65 rlineto
          -71 hlineto
          89 -122 rlineto
          47 hlineto
          89 -74 callgsubr
          -71 hlineto
          -21 -611 -89 callsubr
        </CharString>
        <CharString name="ccedilla">
          -159 -130 205 350 82 hstem
          58 96 vstem
          301 425 rmoveto
          33 callsubr
          hvcurveto
          87 vlineto
          17 -43 -50 11 -54 hhcurveto
          -152 -83 -91 -166 -154 71 -90 131 -12 hvcurveto
          -89 -124 rlineto
          92 hlineto
          68 124 39 4 37 9 33 13 rlinecurve
          87 vlineto
          -19 -40 -47 -13 -52 hhcurveto
          -76 -71 21 154 153 71 22 76 hvcurveto
          endchar
        </CharString>
        <CharString name="ccircumflex">
          -3 callsubr
          0 57 -24 callgsubr
          58 96 hintmask 10111000
          280 629 rmoveto
          -91 callsubr
          -47 hlineto
          -89 -122 -5 callgsubr
          62 -489 rmoveto
          -76 -71 21 154 hvcurveto
          hintmask 11011000
          153 71 22 76 33 callsubr
          vhcurveto
          87 vlineto
          17 -43 -50 11 -54 hhcurveto
          -152 -83 -91 -166 -166 83 -92 152 54 50 11 17 43 hvcurveto
          87 vlineto
          -19 -40 -47 -13 -52 hhcurveto
          endchar
        </CharString>
        <CharString name="cdotaccent">
          -3 callsubr
          57 85 hstem
          58 96 79 91 vstem
          233 564 rmoveto
          91 85 -91 hlineto
          68 -574 -89 callsubr
        </CharString>
        <CharString name="cedilla">
          -360 -128 123 hstem
          145 -5 rmoveto
          -89 -123 rlineto
          91 hlineto
          69 123 rlineto
          -71 hlineto
          endchar
        </CharString>
        <CharString name="cent">
          -154 -6 callgsubr
          hstemhm
          57 96 110 60 -60 176 hintmask 11101000
          439 476 rmoveto
          87 vlineto
          hintmask 11110000
          -35 14 -39 9 -42 4 rrcurveto
          77 -60 -77 vlineto
          -134 -11 -72 -90 -155 vvcurveto
          -155 72 -91 134 -11 vhcurveto
          -77 60 77 vlineto
          hintmask 11101000
          42 3 39 10 35 14 rrcurveto
          87 vlineto
          hintmask 11110000
          -34 -16 -39 -12 -43 -3 rrcurveto
          348 vlineto
          hintmask 11101000
          43 -3 39 -13 34 -16 rrcurveto
          -286 -142 rmoveto
          128 49 36 61 9 vhcurveto
          -346 vlineto
          -61 9 -49 35 129 vvcurveto
          endchar
        </CharString>
        <CharString name="circumflex">
          -200 585 -21 -5 callsubr
          hstem
          213 629 rmoveto
          -65 callsubr
        </CharString>
        <CharString name="colon">
          -234 46 88 228 88 hstem
          153 94 vstem
          247 134 rmoveto
          -94 -88 94 hlineto
          404 vmoveto
          -94 -88 94 hlineto
          endchar
        </CharString>
        <CharString name="comma">
          -305 -112 196 hstem
          148 84 17 callsubr
        </CharString>
        <CharString name="commaaccent">
          -362 -22 callgsubr
          -20 hstem
          121 -49 rmoveto
          -45 -9 -32 -79 callgsubr
          -64 hlineto
          endchar
        </CharString>
        <CharString name="copyright">
          147 -8 44 97 49 301 49 97 44 hstem
          48 44 119 56 418 44 vstem
          398 182 rmoveto
          -92 -39 45 105 106 39 45 92 42 38 -10 -15 33 hvcurveto
          51 vlineto
          14 -35 -40 9 -44 hhcurveto
          -82 -99 -35 -165 -165 99 -34 82 44 40 9 14 35 hvcurveto
          50 vlineto
          -14 -33 -38 -10 -42 hhcurveto
          -10 491 rmoveto
          -188 -152 -153 -188 -188 152 -152 188 188 153 152 188 188 -153 153 -188 hvcurveto
          -637 vmoveto
          -163 -133 133 163 164 133 133 163 164 133 -133 -164 -163 -133 -133 -164 hvcurveto
          endchar
        </CharString>
        <CharString name="d">
          -69 18 callgsubr
          63 91 245 91 vstem
          63 256 -66 callgsubr
        </CharString>
        <CharString name="dagger">
          -147 118 -21 380 60 130 -20 hstem
          213 60 vstem
          392 537 rmoveto
          -119 130 -60 -130 -119 -60 119 -380 60 380 119 60 hlineto
          endchar
        </CharString>
        <CharString name="daggerdbl">
          -127 21 -21 145 69 189 69 145 -20 hstem
          214 69 vstem
          428 403 rmoveto
          69 -145 145 -69 -145 -146 -69 146 -189 -146 -69 146 -145 69 145 145 69 -145 189 145 vlineto
          endchar
        </CharString>
        <CharString name="dcaron">
          29 18 callgsubr
          63 91 245 91 32 113 vstem
          563 689 rmoveto
          -43 -6 -35 -35 -10 vhcurveto
          -63 vlineto
          79 15 34 63 73 vvcurveto
          -72 hlineto
          -500 -433 -66 callgsubr
        </CharString>
        <CharString name="dcroat">
          -31 -8 81 353 81 55 71 56 -20 hstem
          63 91 245 91 vstem
          490 633 rmoveto
          56 -91 -56 -112 -71 112 -70 vlineto
          10 -35 -35 5 -37 hhcurveto
          -104 -125 -44 -208 -229 45 callsubr
          hvcurveto
          408 67 71 -67 vlineto
          -91 -486 rmoveto
          -49 -39 -25 -76 -61 -69 20 163 149 67 21 71 37 36 -7 -14 34 vhcurveto
          -258 vlineto
          endchar
        </CharString>
        <CharString name="degree">
          -244 448 41 138 42 hstem
          82 45 127 46 vstem
          191 669 rmoveto
          -70 -39 -39 -72 -71 39 -39 70 70 39 39 71 72 -39 39 -70 hvcurveto
          -180 vmoveto
          -45 -19 20 49 49 19 20 45 45 18 -20 -49 -49 -18 -20 -45 hvcurveto
          endchar
        </CharString>
        <CharString name="dieresis">
          -225 564 85 hstem
          79 91 57 91 vstem
          318 649 rmoveto
          -91 -85 91 hlineto
          -148 85 rmoveto
          -91 -85 91 hlineto
          endchar
        </CharString>
        <CharString name="divide">
          -3 70 85 66 74 66 85 hstem
          268 91 cntrmask 11100000
          111 295 rmoveto
          -74 406 74 -406 vlineto
          248 -140 -93 callsubr
          291 vmoveto
          -91 -85 91 85 hlineto
          endchar
        </CharString>
        <CharString name="dollar">
          -46 -87 -21 101 88 504 90 101 -20 hstemhm
          77 93 100 62 -62 212 -50 93 hintmask 11111101
          525 175 rmoveto
          125 -99 47 -94 34 vhcurveto
          204 vlineto
          hintmask 11111010
          66 -2 51 -22 33 -20 rrcurveto
          92 vlineto
          hintmask 11111101
          -39 20 -50 18 -61 4 rrcurveto
          101 -62 -102 vlineto
          -142 -15 -51 -89 -85 vvcurveto
          -115 99 -32 94 -29 vhcurveto
          -228 vlineto
          -70 2 -63 23 -51 31 rrcurveto
          -96 vlineto
          54 -27 62 -19 68 -2 rrcurveto
          -101 62 103 vlineto
          122 13 71 66 101 vvcurveto
          -355 310 rmoveto
          63 47 25 53 9 vhcurveto
          -179 vlineto
          -57 21 -43 21 40 vvcurveto
          162 -400 rmoveto
          202 vlineto
          56 -22 44 -29 -61 vvcurveto
          -57 -47 -24 -53 -9 vhcurveto
          endchar
        </CharString>
        <CharString name="dong">
          -218 119 49 31 54 0 233 53 34 0 49 37 -20 hstemhm
          56 60 162 60 hintmask 10101111
          338 622 rmoveto
          37 -60 -37 -74 -49 74 -44 vlineto
          hintmask 11010111
          7 -23 -24 3 -24 hhcurveto
          -69 -82 -29 -137 -151 91 -23 55 126 10 82 25 hvcurveto
          267 44 vlineto
          hintmask 10101111
          49 -44 vlineto
          -60 -320 rmoveto
          -33 -26 -16 -50 -40 -46 13 107 99 44 14 47 24 24 -5 -9 23 vhcurveto
          -170 vlineto
          77 -183 rmoveto
          -299 49 299 -49 hlineto
          endchar
        </CharString>
        <CharString name="dotaccent">
          -293 564 85 hstem
          125 91 vstem
          216 6 callgsubr
          endchar
        </CharString>
        <CharString name="dotbelowcmb">
          -631 -12 callgsubr
          hstem
          -269 91 vstem
          -178 -50 -93 callsubr
          endchar
        </CharString>
        <CharString name="dotlessi">
          -343 35 callgsubr
          98 92 vstem
          98 hmoveto
          92 499 -92 hlineto
          endchar
        </CharString>
        <CharString name="dotlessj">
          -374 -196 78 617 -20 hstemhm
          89 91 vstemhm
          180 499 rmoveto
          -91 -528 hlineto
          hintmask 11100000
          -48 -9 -30 callsubr
          endchar
        </CharString>
        <CharString name="e">
          -76 -9 15 callgsubr
          vstem
          298 70 rmoveto
          -66 -61 23 104 -14 hvcurveto
          344 hlineto
          2 22 1 23 24 vvcurveto
          -86 callsubr
          71 59 13 20 47 vhcurveto
          83 vlineto
          -22 -42 -56 -15 -74 hhcurveto
          -14 355 rmoveto
          99 24 -87 -58 5 hvcurveto
          -256 hlineto
          107 8 36 38 84 hhcurveto
          endchar
        </CharString>
        <CharString name="eacute">
          -78 callsubr
          173 -20 hstem
          63 93 vstem
          504 267 -107 callgsubr
          91 283 -100 callsubr
          endchar
        </CharString>
        <CharString name="ebreve">
          -78 callsubr
          37 -13 callgsubr
          63 93 16 -24 callsubr
          hintmask 11101101
          283 -18 callsubr
          hintmask 11110110
          -73 callsubr
          hintmask 11101110
          -93 callgsubr
          221 -278 -107 callgsubr
          endchar
        </CharString>
        <CharString name="ecaron">
          -78 callsubr
          178 -20 hstem
          63 93 vstem
          504 267 -107 callgsubr
          128 340 -9 callgsubr
        </CharString>
        <CharString name="ecircumflex">
          -78 callsubr
          0 56 -24 callgsubr
          63 93 hintmask 11101100
          504 267 -107 callgsubr
          127 348 rmoveto
          hintmask 11011100
          -65 callsubr
        </CharString>
        <CharString name="ecircumflexacute">
          -78 callsubr
          161 -20 106 -20 hstem
          63 93 vstem
          352 638 -100 callsubr
          -130 -143 -106 callgsubr
          220 -345 -107 callgsubr
          endchar
        </CharString>
        <CharString name="ecircumflexdotbelow">
          -76 -12 callgsubr
          42 79 127 83 145 82 0 39 -24 callgsubr
          63 93 88 91 hintmask 11110111
          504 267 -107 callgsubr
          179 -331 -93 callsubr
          -52 662 rmoveto
          hintmask 11101111
          -65 callsubr
        </CharString>
        <CharString name="ecircumflexgrave">
          -78 callsubr
          161 -20 106 -20 hstem
          63 93 vstem
          217 638 -92 callgsubr
          67 -26 -106 callgsubr
          220 -345 -107 callgsubr
          endchar
        </CharString>
        <CharString name="ecircumflexhookabove">
          -78 callsubr
          39 39 callgsubr
          63 93 251 52 hintmask 11110011
          504 267 -107 callgsubr
          128 331 rmoveto
          -63 callgsubr
          hintmask 11101111
          -89 -74 callgsubr
          -48 hlineto
          hintmask 11110011
          0 callgsubr
          hintmask 11101111
          -28 callsubr
          endchar
        </CharString>
        <CharString name="ecircumflextilde">
          -76 -8 79 127 83 0 145 82 33 hstemhm
          63 93 hintmask 11011000
          443 712 -105 callgsubr
          -159 -106 -106 callgsubr
          220 -339 rmoveto
          -86 callsubr
          71 59 13 20 47 vhcurveto
          -102 callsubr
          hintmask 10111000
          -95 callgsubr
          endchar
        </CharString>
        <CharString name="edieresis">
          -78 callsubr
          56 85 hstem
          63 93 8 91 57 91 vstem
          403 6 callgsubr
          -148 hmoveto
          -91 -85 91 85 hlineto
          249 -382 -107 callgsubr
          endchar
        </CharString>
        <CharString name="edotaccent">
          -78 callsubr
          56 85 hstem
          63 93 82 91 vstem
          329 6 callgsubr
          175 -382 -107 callgsubr
          endchar
        </CharString>
        <CharString name="edotbelow">
          -76 -12 callgsubr
          42 15 callgsubr
          91 91 vstem
          338 -50 -93 callsubr
          166 317 -107 callgsubr
          endchar
        </CharString>
        <CharString name="egrave">
          -78 callsubr
          173 -20 hstem
          63 93 vstem
          504 267 -107 callgsubr
          165 283 -92 callgsubr
          endchar
        </CharString>
        <CharString name="ehookabove">
          -78 callsubr
          155 47 hstem
          63 93 148 53 vstem
          504 267 -107 callgsubr
          148 358 rmoveto
          -12 -16 -6 -21 -2 vhcurveto
          -55 40 2 callsubr
          -12 -11 -1 -2 -10 vhcurveto
          -46 vlineto
          -43 callgsubr
          17 24 -5 -19 hvcurveto
          endchar
        </CharString>
        <CharString name="eight">
          -47 -8 85 235 84 194 85 hstemhm
          61 93 -68 68 -68 92 235 93 -68 68 -68 92 hintmask 1110100100000000
          296 312 rmoveto
          64 78 -19 -91 -38 -14 -87 -128 -128 -14 87 38 91 77 19 65 hvcurveto
          hintmask 1110011000000000
          -118 187 rmoveto
          60 40 31 78 78 39 -31 -60 -31 -11 -72 -106 -106 -12 72 31 vhcurveto
          254 -139 rmoveto
          37 23 37 41 73 vvcurveto
          86 -55 92 -155 -155 -55 -92 -86 -70 36 -43 39 -25 vhcurveto
          hintmask 1111000010000000
          -54 -29 -46 -55 -72 vvcurveto
          -105 73 -106 162 162 72 106 105 88 -55 46 -43 23 vhcurveto
          endchar
        </CharString>
        <CharString name="eight.denominator">
          -294 -3 45 127 45 104 46 -55 callsubr
          169 rmoveto
          35 41 -10 -50 -20 -7 -47 -69 -69 -7 47 20 50 41 10 35 hvcurveto
          hintmask 1110011000000000
          -63 101 rmoveto
          32 21 16 42 42 21 -16 -32 -17 -6 -39 -57 -57 -6 39 17 vhcurveto
          136 -75 rmoveto
          20 12 20 22 39 vvcurveto
          47 -30 49 -83 -84 -29 -49 -47 -37 20 -23 20 -14 vhcurveto
          hintmask 1111000010000000
          -29 -16 -24 -29 -39 vvcurveto
          -56 39 -57 87 87 39 57 56 47 -29 25 -24 13 vhcurveto
          endchar
        </CharString>
        <CharString name="eight.inferior">
          -294 -154 46 126 45 105 46 -55 callsubr
          18 rmoveto
          35 41 -10 -49 -20 -7 -47 -69 -69 -7 47 20 49 41 10 35 hvcurveto
          hintmask 1110011000000000
          -63 101 rmoveto
          32 21 17 42 42 21 -17 -32 -17 -6 -39 -57 -57 -6 39 17 vhcurveto
          136 -75 rmoveto
          20 13 20 22 39 vvcurveto
          46 -30 50 -83 -84 -29 -50 -46 -38 20 -23 20 -14 vhcurveto
          hintmask 1111000010000000
          -29 -15 -24 -30 -38 vvcurveto
          -57 39 -57 87 87 39 57 57 47 -29 25 -24 12 vhcurveto
          endchar
        </CharString>
        <CharString name="eight.numerator">
          -294 311 45 127 45 105 45 -55 callsubr
          483 -79 callsubr
        </CharString>
        <CharString name="eight.superior">
          -294 459 45 127 45 105 45 -55 callsubr
          631 -79 callsubr
        </CharString>
        <CharString name="ellipsis">
          154 0 85 hstem
          107 91 149 91 148 91 vstem
          438 85 -93 callsubr
          -240 hmoveto
          -91 -85 91 85 hlineto
          479 hmoveto
          -91 -85 91 85 hlineto
          endchar
        </CharString>
        <CharString name="emacron">
          -78 callsubr
          68 60 hstem
          63 93 vstem
          400 636 -67 callgsubr
          104 -369 -107 callgsubr
          endchar
        </CharString>
        <CharString name="emdash">
          260 252 78 hstem
          79 330 rmoveto
          -78 733 78 -733 vlineto
          endchar
        </CharString>
        <CharString name="endash">
          -71 252 78 hstem
          69 330 rmoveto
          -78 420 78 -420 vlineto
          endchar
        </CharString>
        <CharString name="eng">
          -46 -172 78 115 -21 423 85 hstemhm
          82 92 145 177 -92 92 hintmask 11110100
          295 508 rmoveto
          -117 -92 -50 -2 -4 hvcurveto
          -456 92 405 vlineto
          10 31 41 8 45 hhcurveto
          100 13 -48 -47 hvcurveto
          -333 vlineto
          hintmask 11111000
          -48 -8 -30 callsubr
          327 vlineto
          116 -75 70 -126 vhcurveto
          endchar
        </CharString>
        <CharString name="eogonek">
          -76 -175 53 114 15 callgsubr
          122 80 vstem
          504 267 rmoveto
          -86 callsubr
          23 22 1 3 21 vhcurveto
          -21 -13 -60 -40 -51 -75 callgsubr
          -71 callgsubr
          36 66 55 46 28 hvcurveto
          -102 callsubr
          107 8 36 38 84 hhcurveto
          99 24 -87 -58 5 hvcurveto
          -256 hlineto
          endchar
        </CharString>
        <CharString name="equal">
          7 178 78 85 78 hstem
          127 256 rmoveto
          -78 385 78 vlineto
          -385 163 rmoveto
          -78 385 78 vlineto
          endchar
        </CharString>
        <CharString name="eth">
          -39 -8 84 274 85 154 86 14 -20 hstemhm
          58 93 275 93 hintmask 11011100
          425 594 rmoveto
          66 40 -33 55 -87 -53 rlineto
          hintmask 11101100
          33 -57 -61 6 -39 hhcurveto
          -34 -31 -4 -7 -26 hvcurveto
          -84 vlineto
          5 22 26 4 28 hhcurveto
          28 26 -3 -8 23 hvcurveto
          -74 -44 33 -55 106 64 39 -32 27 -49 13 -62 rlinecurve
          -10 callgsubr
          145 -41 89 -53 54 vhcurveto
          -137 -518 -13 callsubr
        </CharString>
        <CharString name="etilde">
          -76 -8 15 callgsubr
          vstem
          504 267 -107 callgsubr
          287 301 -82 callsubr
        </CharString>
        <CharString name="exclam">
          -240 0 85 582 -20 hstem
          150 87 vstem
          239 85 -93 callsubr
          -93 582 rmoveto
          8 -504 rlineto
          79 hlineto
          8 504 rlineto
          -95 hlineto
          endchar
        </CharString>
        <CharString name="exclamdown">
          -246 -147 -21 582 85 hstem
          150 87 vstem
          148 414 rmoveto
          91 85 -91 -85 hlineto
          93 -582 rmoveto
          -8 503 rlineto
          -79 hlineto
          -8 -503 rlineto
          95 hlineto
          endchar
        </CharString>
        <CharString name="f">
          -301 21 -21 419 80 128 29 callsubr
          hintmask 11101000
          293 627 -69 callsubr
          -24 -70 -80 70 -419 vlineto
          hintmask 11110000
          91 419 hlineto
          hintmask 11101000
          129 80 hlineto
          hintmask 11110000
          -129 24 hlineto
          104 45 0 47 vhcurveto
          endchar
        </CharString>
        <CharString name="fi">
          -44 21 -21 419 81 76 97 -46 29 callsubr
          100 92 hintmask 11010110
          293 627 -69 callsubr
          -23 -70 -81 70 -419 vlineto
          hintmask 11101010
          91 419 hlineto
          hintmask 11100110
          129 81 hlineto
          hintmask 11011010
          18 callsubr
          137 -627 rmoveto
          92 499 -92 hlineto
          hintmask 11101010
          46 callgsubr
        </CharString>
        <CharString name="five">
          -31 -8 89 255 88 157 86 hstem
          431 93 vstem
          121 -19 callgsubr
          -34 -306 47 -49 rlineto
          14 36 45 10 54 hhcurveto
          135 27 -51 -77 -76 -26 -51 -126 -99 -57 31 30 -32 hvcurveto
          -100 vlineto
          -28 45 64 -22 87 hhcurveto
          155 82 74 142 141 -82 75 -155 -37 -34 -5 -8 -30 hvcurveto
          16 170 rlineto
          288 86 hlineto
          endchar
        </CharString>
        <CharString name="five.denominator">
          -305 -3 48 137 47 84 47 37 callgsubr
          360 rmoveto
          -18 -165 25 -26 rlineto
          7 20 24 6 29 hhcurveto
          72 15 -28 -41 -41 -14 -27 -68 -53 -31 16 17 -17 hvcurveto
          -55 vlineto
          -15 25 33 -11 48 hhcurveto
          83 44 40 76 76 -44 40 -83 -20 -19 -3 -4 -16 hvcurveto
          9 91 rlineto
          155 47 -199 hlineto
          endchar
        </CharString>
        <CharString name="five.inferior">
          -304 -154 48 138 47 84 46 37 callgsubr
          209 rmoveto
          -18 -164 25 -26 rlineto
          7 20 24 6 29 hhcurveto
          72 15 -28 -42 -41 -14 -27 -68 -53 -31 17 16 -17 hvcurveto
          -54 vlineto
          -15 25 33 -12 48 hhcurveto
          83 44 40 76 76 -44 41 -83 -20 -19 -3 -4 -16 hvcurveto
          9 91 rlineto
          155 46 -199 hlineto
          endchar
        </CharString>
        <CharString name="five.numerator">
          -303 311 48 137 47 85 46 37 callgsubr
          674 -66 callsubr
        </CharString>
        <CharString name="five.superior">
          -303 459 48 137 47 85 46 37 callgsubr
          822 -66 callsubr
        </CharString>
        <CharString name="fiveeighths">
          207 -7 callsubr
          -7 48 137 47 85 46 11 -20 hstemhm
          266 49 222 24 callgsubr
          hintmask 0110111010010000
          99 674 rmoveto
          -19 -165 26 -26 rlineto
          8 19 24 5 30 hhcurveto
          72 15 -27 -42 -41 -14 -27 -68 -53 -31 17 16 -17 hvcurveto
          -54 vlineto
          -15 24 34 -12 47 hhcurveto
          83 44 40 76 76 -44 40 -83 -20 -18 -2 -4 -17 hvcurveto
          9 91 rlineto
          156 46 -199 hlineto
          551 -505 12 callgsubr
          hintmask 0111011011001010
          -49 callgsubr
          hintmask 1011010110100100
          -43 callsubr
        </CharString>
        <CharString name="fl">
          -35 21 -21 419 81 127 29 callsubr
          100 92 hintmask 11101100
          293 627 -69 callsubr
          -23 -70 -81 70 -419 vlineto
          hintmask 11110100
          91 419 hlineto
          hintmask 11101100
          129 81 hlineto
          hintmask 11110100
          18 callsubr
          137 62 22 callgsubr
          vlineto
          endchar
        </CharString>
        <CharString name="florin">
          -256 -122 82 441 81 127 82 hstemhm
          10 220 -91 220 hintmask 11101000
          322 609 -69 callsubr
          -23 -94 -81 94 -337 vlineto
          -104 -45 0 -47 vhcurveto
          hintmask 11110000
          -15 -12 2 2 -10 hvcurveto
          -79 vlineto
          -4 15 18 -3 21 hhcurveto
          111 55 63 123 hvcurveto
          337 vlineto
          hintmask 11101000
          129 81 hlineto
          hintmask 11110000
          18 callsubr
          endchar
        </CharString>
        <CharString name="four">
          -40 21 -21 210 83 374 -20 hstem
          342 93 vstem
          435 293 rmoveto
          374 -104 vlineto
          -293 -374 rlineto
          -83 304 -210 93 210 95 83 vlineto
          -382 hmoveto
          194 241 rlineto
          -241 vlineto
          endchar
        </CharString>
        <CharString name="four.denominator">
          -303 22 -21 112 45 202 -20 hstem
          193 50 vstem
          243 158 rmoveto
          202 -56 vlineto
          -158 -19 callsubr
          endchar
        </CharString>
        <CharString name="four.inferior">
          -303 -128 -21 111 2 callgsubr
          8 rmoveto
          201 -56 vlineto
          -158 -201 rlineto
          -46 164 -111 50 111 51 46 -61 callsubr
          endchar
        </CharString>
        <CharString name="four.numerator">
          -303 336 -21 112 2 callgsubr
          473 -36 callsubr
        </CharString>
        <CharString name="four.superior">
          -303 484 -21 112 2 callgsubr
          621 -36 callsubr
        </CharString>
        <CharString name="fraction">
          -266 -1 -21 707 -20 hstem
          366 685 rmoveto
          -437 -62 callsubr
          -63 hlineto
          endchar
        </CharString>
        <CharString name="g">
          -17 callgsubr
          hstem
          60 92 231 91 vstem
          274 508 -96 callsubr
        </CharString>
        <CharString name="gbreve">
          -17 callgsubr
          37 -13 callgsubr
          60 92 17 -24 callsubr
          -8 91 hintmask 1110110100000000
          280 545 -65 callgsubr
          -6 -37 -96 callsubr
        </CharString>
        <CharString name="gcaron">
          -17 callgsubr
          178 -20 hstem
          60 92 231 91 vstem
          283 621 -99 callsubr
          -9 -113 -96 callsubr
        </CharString>
        <CharString name="gcircumflex">
          23 callsubr
          -24 callgsubr
          60 92 231 91 hintmask 01001111
          280 629 -106 callgsubr
          -6 -121 rmoveto
          -152 -62 -110 -145 -157 79 -87 143 34 34 5 9 33 hvcurveto
          -44 vlineto
          -33 0 -56 -136 -51 -47 9 13 -42 vhcurveto
          -87 vlineto
          hintmask 10110111
          -13 45 49 -8 54 hhcurveto
          181 38 95 80 hvcurveto
          371 vlineto
          103 -81 55 -119 vhcurveto
          109 -397 rmoveto
          -13 -32 -34 -6 -35 hhcurveto
          -68 -62 19 142 154 65 19 57 109 0 -52 -18 hvcurveto
          -245 vlineto
          endchar
        </CharString>
        <CharString name="gcommaaccent">
          23 callsubr
          144 -20 hstemhm
          60 92 231 91 hintmask 01001111
          247 564 rmoveto
          64 hlineto
          45 9 32 29 8 vhcurveto
          59 vlineto
          -63 -12 -39 -53 -79 vvcurveto
          27 -56 rmoveto
          -152 -62 -110 -145 -157 79 -87 143 34 34 5 9 33 hvcurveto
          -44 vlineto
          -33 0 -56 -136 -51 -47 9 13 -42 vhcurveto
          -87 vlineto
          hintmask 10110111
          -13 45 49 -8 54 hhcurveto
          181 38 95 80 hvcurveto
          371 vlineto
          103 -81 55 -119 vhcurveto
          109 -397 rmoveto
          -13 -32 -34 -6 -35 hhcurveto
          -68 -62 19 142 154 65 19 57 109 0 -52 -18 hvcurveto
          -245 vlineto
          endchar
        </CharString>
        <CharString name="gdotaccent">
          -17 callgsubr
          56 85 hstem
          60 92 84 91 56 91 vstem
          327 6 callgsubr
          -53 -141 -96 callsubr
        </CharString>
        <CharString name="germandbls">
          -18 0 85 226 70 214 81 hstemhm
          88 94 106 237 -94 94 -63 95 hintmask 11110100
          433 348 rmoveto
          51 25 41 42 70 vvcurveto
          93 -59 98 -165 -97 -116 -44 -211 vhcurveto
          -421 94 417 vlineto
          156 57 22 62 86 44 -36 -71 vhcurveto
          hintmask 11111000
          -87 -77 -19 -66 -1 vhcurveto
          -70 vlineto
          hintmask 11110010
          72 -3 102 -19 -91 vvcurveto
          hintmask 11111000
          -95 -106 -17 -68 -1 vhcurveto
          -85 vlineto
          hintmask 11110010
          160 109 70 124 99 -69 39 -55 16 hvcurveto
          endchar
        </CharString>
        <CharString name="grave">
          -391 585 -21 117 -20 hstem
          196 564 rmoveto
          -62 -67 callsubr
          -58 callsubr
          endchar
        </CharString>
        <CharString name="greater">
          22 69 -21 442 -20 hstem
          132 48 rmoveto
          414 185 rlineto
          72 vlineto
          -414 185 rlineto
          -88 vlineto
          313 -133 -313 -133 rlineto
          -88 vlineto
          endchar
        </CharString>
        <CharString name="greaterequal">
          1 callsubr
          470 vmoveto
          -76 vlineto
          264 -105 -264 -107 rlineto
          -75 vlineto
          363 150 rlineto
          62 vlineto
          -363 151 rlineto
          endchar
        </CharString>
        <CharString name="guillemotleft">
          -59 85 -21 381 -20 hstem
          309 445 rmoveto
          -51 callsubr
          212 hmoveto
          -51 callsubr
          endchar
        </CharString>
        <CharString name="guillemotright">
          -39 85 -21 381 -20 hstem
          279 445 rmoveto
          178 -190 -31 callsubr
          -321 hmoveto
          178 -190 -31 callsubr
          endchar
        </CharString>
        <CharString name="guilsinglleft">
          -273 85 -21 381 -20 hstem
          309 445 rmoveto
          -51 callsubr
          endchar
        </CharString>
        <CharString name="guilsinglright">
          -244 85 -21 381 -20 hstem
          245 255 rmoveto
          -31 callsubr
          -109 hlineto
          endchar
        </CharString>
        <CharString name="h">
          -51 21 -21 419 88 182 -20 hstem
          94 92 235 92 vstem
          318 507 rmoveto
          -51 -45 -11 -14 -36 hvcurveto
          207 -92 -689 -64 callgsubr
        </CharString>
        <CharString name="hbar">
          -25 21 -21 419 88 51 72 59 -20 hstem
          114 92 235 92 vstem
          338 507 rmoveto
          -51 -45 -11 -14 -36 hvcurveto
          76 127 72 -127 59 -92 -59 -68 -72 68 -558 -64 callgsubr
        </CharString>
        <CharString name="hcircumflex">
          -51 21 -21 419 88 182 35 -5 callsubr
          hstem
          94 92 235 92 vstem
          139 789 -106 callgsubr
          179 -282 rmoveto
          -51 -45 -11 -14 -36 hvcurveto
          207 -92 -689 -64 callgsubr
        </CharString>
        <CharString name="hookcmb">
          -631 622 -21 99 47 hstem
          -231 52 vstem
          -231 676 rmoveto
          -12 -17 -6 -20 -2 vhcurveto
          -55 40 23 vlineto
          0 49 7 48 vvcurveto
          48 -41 20 -50 -12 -11 -1 -2 -10 vhcurveto
          -46 vlineto
          -43 callgsubr
          16 25 -5 -19 hvcurveto
          endchar
        </CharString>
        <CharString name="horncmb">
          -631 441 48 131 -20 hstem
          -195 620 rmoveto
          -88 -58 callgsubr
          -33 -16 -10 -28 hhcurveto
          -28 -16 16 0 hvcurveto
          -48 vlineto
          0 17 -16 31 30 33 12 27 43 vhcurveto
          42 27 40 -2 callgsubr
          endchar
        </CharString>
        <CharString name="hungarumlaut">
          -235 564 117 hstem
          60 564 -46 callsubr
        </CharString>
        <CharString name="hyphen">
          -167 259 78 hstem
          79 337 rmoveto
          -78 305 78 vlineto
          endchar
        </CharString>
        <CharString name="i">
          8 callsubr
          576 97 hstem
          98 92 vstem
          98 hmoveto
          92 499 -92 hlineto
          46 callgsubr
        </CharString>
        <CharString name="iacute">
          8 callsubr
          681 -20 hstem
          98 92 vstem
          115 564 -100 callsubr
          13 -681 rmoveto
          499 -92 -499 vlineto
          endchar
        </CharString>
        <CharString name="ibreve">
          8 callsubr
          545 -13 callgsubr
          33 65 92 65 hintmask 10111000
          144 -18 callsubr
          hintmask 11011000
          -73 callsubr
          hintmask 10111000
          -93 callgsubr
          46 -545 -28 callgsubr
        </CharString>
        <CharString name="icircumflex">
          8 callsubr
          686 -20 hstem
          98 92 vstem
          143 629 -106 callgsubr
          47 -629 -28 callgsubr
        </CharString>
        <CharString name="idieresis">
          8 callsubr
          564 85 hstem
          24 91 57 91 vstem
          263 6 callgsubr
          -148 hmoveto
          -91 -85 91 85 hlineto
          75 -649 -28 callgsubr
        </CharString>
        <CharString name="idotbelow">
          -343 -12 callgsubr
          71 -21 576 97 hstem
          98 92 vstem
          189 -50 -93 callsubr
          -94 723 rmoveto
          -97 98 97 -98 vlineto
          3 -673 rmoveto
          92 499 -92 -499 hlineto
          endchar
        </CharString>
        <CharString name="igrave">
          8 callsubr
          499 182 hstem
          98 92 vstem
          172 564 -92 callgsubr
          -74 -65 rmoveto
          92 -499 -92 499 hlineto
          endchar
        </CharString>
        <CharString name="ihookabove">
          8 callsubr
          663 47 hstemhm
          98 92 -28 52 hintmask 11010000
          214 642 rmoveto
          47 -41 -48 callsubr
          16 25 -6 -18 -12 -17 -7 -20 -2 hvcurveto
          -54 40 23 vlineto
          0 49 7 48 vvcurveto
          hintmask 11100000
          -24 -642 rmoveto
          499 -92 -499 vlineto
          endchar
        </CharString>
        <CharString name="imacron">
          8 callsubr
          576 60 hstem
          260 636 -67 callgsubr
          -70 -636 -28 callgsubr
        </CharString>
        <CharString name="infinity">
          110 220 54 198 54 hstem
          57 65 493 65 vstem
          536 526 rmoveto
          -75 -56 -55 -49 -37 hvcurveto
          49 -36 -56 55 -76 hhcurveto
          -57 -86 -41 -112 -112 86 -41 57 76 55 55 49 37 hvcurveto
          -49 37 56 -55 75 hhcurveto
          58 86 41 112 112 -86 41 -58 hvcurveto
          -331 -252 rmoveto
          -4 -79 1 98 98 79 1 4 54 45 -53 -46 31 hvcurveto
          -46 -31 -45 -53 -54 hhcurveto
          327 hmoveto
          -54 -46 53 46 -30 hvcurveto
          46 30 46 53 54 hhcurveto
          3 80 -1 -98 -98 -80 -1 -3 hvcurveto
          endchar
        </CharString>
        <CharString name="integral">
          -289 -122 82 649 82 hstemhm
          10 205 -91 91 -91 205 hintmask 11010000
          290 691 rmoveto
          -111 -55 -63 -123 hvcurveto
          -441 vlineto
          -104 -45 0 -47 vhcurveto
          hintmask 11100000
          -8 -7 1 -7 hhcurveto
          -79 vlineto
          -3 12 13 -1 14 hhcurveto
          111 55 63 123 hvcurveto
          441 vlineto
          104 45 0 47 vhcurveto
          hintmask 11001000
          9 7 -1 -1 6 hvcurveto
          80 vlineto
          2 -11 -13 2 -15 hhcurveto
          endchar
        </CharString>
        <CharString name="iogonek">
          -365 -175 53 143 -21 576 97 hstemhm
          8 80 0 92 hintmask 11101000
          85 673 rmoveto
          -97 98 97 -98 vlineto
          62 -768 37 callsubr
          41 callgsubr
          hvcurveto
          499 -92 -499 8 vlineto
          hintmask 11110000
          -4 -2 -84 -46 -60 -75 callgsubr
          endchar
        </CharString>
        <CharString name="itilde">
          8 callsubr
          hstem
          296 582 -105 callgsubr
          -106 -582 -28 callgsubr
        </CharString>
        <CharString name="j">
          -374 -196 78 694 97 hstemhm
          89 91 vstemhm
          86 576 rmoveto
          97 97 -97 hlineto
          94 -174 rmoveto
          -91 -528 hlineto
          hintmask 11100000
          -48 -9 -30 callsubr
          endchar
        </CharString>
        <CharString name="jcircumflex">
          -374 -196 78 617 65 -24 callgsubr
          3 177 -91 91 hintmask 11101000
          134 629 -106 callgsubr
          -45 -658 rmoveto
          hintmask 11110000
          -48 -9 -30 callsubr
          528 vlineto
          hintmask 11101000
          -91 -528 hlineto
          endchar
        </CharString>
        <CharString name="k">
          -43 21 -21 689 -20 hstem
          92 91 vstem
          306 291 -34 callsubr
          endchar
        </CharString>
        <CharString name="kcommaaccent">
          -43 -172 -21 214 -21 689 -20 hstem
          92 91 vstem
          260 11 callgsubr
          46 340 -34 callsubr
          -246 291 rlineto
          endchar
        </CharString>
        <CharString name="kgreenlandic">
          -43 35 callgsubr
          92 91 vstem
          306 291 rmoveto
          217 208 rlineto
          -124 hlineto
          -216 -209 rlineto
          209 -91 -499 91 172 vlineto
          62 60 185 -232 rlineto
          122 hlineto
          -246 291 rlineto
          endchar
        </CharString>
        <CharString name="l">
          -337 21 -21 689 -20 hstem
          101 92 vstem
          101 689 22 callgsubr
          vlineto
          endchar
        </CharString>
        <CharString name="lacute">
          -337 -15 callsubr
          101 92 vstem
          120 -85 callsubr
          -81 -152 22 callgsubr
          -92 vlineto
          endchar
        </CharString>
        <CharString name="lcaron">
          -337 21 -21 689 -20 hstemhm
          101 92 -92 228 hintmask 11010000
          265 689 rmoveto
          -45 -9 -32 -79 callgsubr
          -64 hlineto
          -164 hmoveto
          -689 vlineto
          hintmask 11100000
          92 689 -92 hlineto
          endchar
        </CharString>
        <CharString name="lcommaaccent">
          -337 -22 callgsubr
          49 689 -20 hstem
          101 92 vstem
          76 -134 rmoveto
          -59 vlineto
          63 12 39 53 79 vvcurveto
          -64 hlineto
          -45 -9 -32 -29 -8 vhcurveto
          25 823 22 callgsubr
          -92 vlineto
          endchar
        </CharString>
        <CharString name="ldot">
          -333 21 -21 292 85 312 -20 hstem
          101 92 58 91 vstem
          342 377 -93 callsubr
          -241 312 22 callgsubr
          -92 vlineto
          endchar
        </CharString>
        <CharString name="less">
          32 69 -21 442 -20 hstem
          535 490 rmoveto
          -415 -185 rlineto
          -72 vlineto
          415 -185 rlineto
          88 vlineto
          -314 133 314 133 rlineto
          88 vlineto
          endchar
        </CharString>
        <CharString name="lessequal">
          1 callsubr
          363 107 rmoveto
          76 vlineto
          -264 106 264 106 rlineto
          75 vlineto
          -363 -150 rlineto
          -62 vlineto
          363 -151 rlineto
          endchar
        </CharString>
        <CharString name="logicalnot">
          -9 258 76 hstemhm
          451 74 vstemhm
          97 334 rmoveto
          -76 354 vlineto
          hintmask 11000000
          -100 74 176 -428 vlineto
          endchar
        </CharString>
        <CharString name="lozenge">
          5 -15 -21 740 -20 hstem
          319 704 rmoveto
          -255 -370 255 -370 255 370 -255 370 rlineto
          -624 vmoveto
          -175 254 175 255 175 -255 -175 -254 rlineto
          endchar
        </CharString>
        <CharString name="lslash">
          -329 21 -21 689 -20 hstemhm
          31 162 -92 92 -92 177 hintmask 11010000
          193 451 rmoveto
          238 -92 -295 vlineto
          hintmask 11100000
          -70 -44 rlineto
          -73 vlineto
          hintmask 11010000
          70 44 rlineto
          -321 92 378 vlineto
          hintmask 11001000
          85 54 rlineto
          72 vlineto
          hintmask 11100000
          -85 -53 rlineto
          endchar
        </CharString>
        <CharString name="m">
          274 21 -21 421 87 hstem
          94 92 224 92 225 91 vstem
          618 508 rmoveto
          -79 -67 -23 -15 -37 hvcurveto
          24 -33 -45 14 -55 hhcurveto
          -106 -84 -41 -9 -18 hvcurveto
          -458 92 406 vlineto
          8 30 38 7 41 hhcurveto
          102 13 -48 -47 hvcurveto
          -326 92 321 vlineto
          27 -4 25 -8 22 vhcurveto
          12 29 48 16 57 hhcurveto
          90 13 -49 -47 hvcurveto
          -327 91 321 vlineto
          117 -74 70 -126 vhcurveto
          endchar
        </CharString>
        <CharString name="macron">
          -228 576 60 hstem
          319 636 -67 callgsubr
          endchar
        </CharString>
        <CharString name="mu">
          -19 -189 -21 202 85 423 -20 hstem
          99 40 callsubr
          421 500 rmoveto
          -405 vlineto
          -10 -31 -41 -8 -45 hhcurveto
          -100 -13 48 47 hvcurveto
          328 -92 -710 92 225 vlineto
          -15 30 37 -8 42 hhcurveto
          117 92 50 2 4 hvcurveto
          456 -92 vlineto
          endchar
        </CharString>
        <CharString name="multiply">
          -118 99 -21 356 -20 hstem
          433 434 rmoveto
          -79 hlineto
          -99 -126 -98 126 rlineto
          -80 hlineto
          138 -178 -138 -178 rlineto
          80 hlineto
          98 126 99 -126 rlineto
          79 hlineto
          -137 178 137 178 rlineto
          endchar
        </CharString>
        <CharString name="n">
          -46 21 3 callgsubr
          174 hmoveto
          -89 callgsubr
          vlineto
          endchar
        </CharString>
        <CharString name="nacute">
          -46 21 -21 423 85 173 -20 20 callsubr
          258 564 -100 callsubr
          -146 -681 rmoveto
          -89 callgsubr
          92 vlineto
          endchar
        </CharString>
        <CharString name="napostrophe">
          -50 21 -21 423 85 156 -20 hstemhm
          77 57 -57 92 230 92 hintmask 11110100
          70 664 rmoveto
          -46 -9 -31 -29 -9 vhcurveto
          -58 vlineto
          63 12 39 53 79 vvcurveto
          -64 hlineto
          hintmask 11101100
          99 -664 rmoveto
          -89 callgsubr
          92 vlineto
          endchar
        </CharString>
        <CharString name="ncaron">
          -46 21 -21 423 85 178 -20 20 callsubr
          289 621 -99 callsubr
          -115 -621 rmoveto
          -89 callgsubr
          92 vlineto
          endchar
        </CharString>
        <CharString name="ncommaaccent">
          -46 -172 -21 214 3 callgsubr
          262 -49 rmoveto
          -45 -9 -32 -79 callgsubr
          -64 hlineto
          -88 49 rmoveto
          -89 callgsubr
          92 vlineto
          endchar
        </CharString>
        <CharString name="nine">
          -39 -8 86 154 85 274 84 hstem
          58 93 276 92 vstem
          214 -8 rmoveto
          92 213 36 333 208 -77 106 -153 -160 -71 -115 -114 -103 53 -111 170 85 54 35 0 hvcurveto
          -120 -25 -76 -69 -119 hhcurveto
          -34 -30 5 7 -25 hvcurveto
          -84 vlineto
          -8 29 35 -6 39 hhcurveto
          75 325 rmoveto
          -90 -48 44 85 43 13 102 125 44 91 0 -225 3 hvcurveto
          -17 -18 -44 -32 -76 hhcurveto
          endchar
        </CharString>
        <CharString name="nine.denominator">
          -290 -3 46 83 45 148 45 -8 callsubr
          -3 rmoveto
          49 115 19 -10 callsubr
          -37 7 callgsubr
          -46 vlineto
          -4 15 19 -3 21 hhcurveto
          40 174 rmoveto
          -48 -26 24 46 23 7 55 67 24 49 0 -121 1 hvcurveto
          -9 -9 -24 -18 -41 hhcurveto
          endchar
        </CharString>
        <CharString name="nine.inferior">
          -289 -154 46 84 45 147 46 -8 callsubr
          -154 rmoveto
          49 115 20 -10 callsubr
          -38 7 callgsubr
          -45 vlineto
          -5 -41 callgsubr
          -120 1 hvcurveto
          -10 -9 -24 -17 -41 hhcurveto
          endchar
        </CharString>
        <CharString name="nine.numerator">
          -290 311 46 83 46 147 46 -8 callsubr
          311 42 callgsubr
          57 -83 -85 -39 -62 -62 -55 29 -60 91 46 29 19 0 hvcurveto
          -65 -14 -40 -37 7 callgsubr
          -45 vlineto
          -5 -41 callgsubr
          -121 1 hvcurveto
          -9 -9 -24 -17 -41 hhcurveto
          endchar
        </CharString>
        <CharString name="nine.superior">
          -289 459 46 83 46 147 45 -8 callsubr
          459 42 callgsubr
          56 -83 -85 -39 -61 -62 -55 29 -60 91 46 29 19 0 hvcurveto
          -65 -14 -40 -37 7 callgsubr
          -46 vlineto
          -4 -41 callgsubr
          -121 1 hvcurveto
          -9 -9 -24 -17 -41 hhcurveto
          endchar
        </CharString>
        <CharString name="notequal">
          -20 30 -21 122 78 85 78 121 -20 hstem
          498 294 rmoveto
          78 -88 vlineto
          50 89 -57 32 -68 -121 rlineto
          -222 -78 179 hlineto
          -48 -85 rlineto
          -131 -78 88 hlineto
          -50 -90 57 -32 68 -74 callgsubr
          222 78 -179 hlineto
          48 85 rlineto
          131 hlineto
          endchar
        </CharString>
        <CharString name="ntilde">
          -46 21 3 callgsubr
          441 582 -105 callgsubr
          -267 -582 rmoveto
          -89 callgsubr
          92 vlineto
          endchar
        </CharString>
        <CharString name="numbersign">
          -40 19 174 -66 66 155 66 -66 174 hstemhm
          hintmask 10010000
          412 522 rmoveto
          hintmask 10100000
          -19 -108 rlineto
          -125 hlineto
          hintmask 10010000
          19 108 rlineto
          -70 hlineto
          hintmask 10100000
          -19 -108 rlineto
          -99 -66 88 hlineto
          -27 -155 rlineto
          -89 hlineto
          hintmask 01100000
          -66 78 vlineto
          hintmask 10100000
          -19 -108 rlineto
          70 hlineto
          hintmask 01100000
          18 108 rlineto
          126 hlineto
          hintmask 10100000
          -19 -108 rlineto
          70 hlineto
          hintmask 01100000
          19 108 rlineto
          88 66 -77 hlineto
          27 155 rlineto
          78 66 -67 hlineto
          hintmask 10010000
          19 108 rlineto
          -70 hlineto
          -57 -329 rmoveto
          -125 hlineto
          27 155 rlineto
          125 hlineto
          -27 -155 rlineto
          endchar
        </CharString>
        <CharString name="o">
          -64 -59 callsubr
          -44 callsubr
          284 506 rmoveto
          -107 -128 -45 -212 -212 128 -45 107 -80 callsubr
          212 -128 45 -107 hvcurveto
          -433 vmoveto
          -88 callsubr
          endchar
        </CharString>
        <CharString name="oacute">
          -67 17 callgsubr
          260 564 -100 callsubr
          -38 -175 rmoveto
          -107 -128 -45 -212 -212 128 -45 107 -80 callsubr
          212 -128 45 -107 hvcurveto
          -433 vmoveto
          -88 callsubr
          endchar
        </CharString>
        <CharString name="obreve">
          -67 -59 callsubr
          39 -13 callgsubr
          49 92 32 -24 callsubr
          32 92 hintmask 11011011
          284 -18 callsubr
          hintmask 11101101
          -73 callsubr
          hintmask 11011101
          -93 callgsubr
          -39 vmoveto
          -107 -128 -45 -212 -212 128 -45 107 -80 callsubr
          212 -128 45 -107 hvcurveto
          -433 vmoveto
          -88 callsubr
          endchar
        </CharString>
        <CharString name="ocircumflex">
          -67 -59 callsubr
          0 58 122 38 callsubr
          hintmask 10111100
          283 629 -106 callgsubr
          1 -123 rmoveto
          -107 -128 -45 -212 -212 128 -45 107 -80 callsubr
          212 -128 45 -107 hvcurveto
          -433 vmoveto
          -72 callgsubr
          hvcurveto
          hintmask 11011100
          -97 callgsubr
          vhcurveto
          endchar
        </CharString>
        <CharString name="ocircumflexacute">
          -63 -59 callsubr
          163 -20 106 31 callgsubr
          351 638 -100 callsubr
          -130 -143 -106 callgsubr
          1 -106 rmoveto
          -107 -128 -45 -212 -212 128 -45 107 -80 callsubr
          212 -128 45 -107 hvcurveto
          -433 vmoveto
          -88 callsubr
          endchar
        </CharString>
        <CharString name="ocircumflexdotbelow">
          -63 30 callsubr
          0 41 -24 callgsubr
          49 92 97 91 98 92 hintmask 11011111
          329 -50 -93 callsubr
          -46 662 -106 callgsubr
          1 -106 rmoveto
          -107 -128 -45 -212 -212 128 -45 107 -80 callsubr
          212 -128 45 -107 hvcurveto
          -433 vmoveto
          -72 callgsubr
          hvcurveto
          hintmask 11101111
          -97 callgsubr
          vhcurveto
          endchar
        </CharString>
        <CharString name="ocircumflexgrave">
          -63 -59 callsubr
          -81 122 -5 callsubr
          106 38 callsubr
          hintmask 10111110
          216 638 -92 callgsubr
          68 -69 callgsubr
          hintmask 11011110
          -106 vmoveto
          -107 -128 -45 -212 -212 128 -45 107 -80 callsubr
          212 -128 45 -107 hvcurveto
          -433 vmoveto
          -88 callsubr
          endchar
        </CharString>
        <CharString name="ocircumflexhookabove">
          -63 -59 callsubr
          41 39 callgsubr
          49 92 265 53 -32 92 hintmask 11100110
          283 612 rmoveto
          -63 callgsubr
          hintmask 11011110
          -89 -74 callgsubr
          -48 hlineto
          hintmask 11100110
          0 callgsubr
          hintmask 11011110
          -63 callsubr
          -83 -266 rmoveto
          -107 -128 -45 -212 -212 128 -45 107 hvcurveto
          hintmask 11100101
          -80 callsubr
          212 -128 45 -107 hvcurveto
          -433 vmoveto
          -88 callsubr
          endchar
        </CharString>
        <CharString name="ocircumflextilde">
          -63 -59 callsubr
          0 35 23 callgsubr
          hintmask 10111000
          443 712 -105 callgsubr
          -160 -106 -106 callgsubr
          1 -100 rmoveto
          -107 -128 -45 -212 -212 128 -45 107 -80 callsubr
          212 -128 45 -107 hvcurveto
          -433 vmoveto
          -72 callgsubr
          hvcurveto
          hintmask 11011000
          -97 callgsubr
          vhcurveto
          endchar
        </CharString>
        <CharString name="odieresis">
          -67 -59 callsubr
          58 85 hstem
          49 92 23 91 57 91 24 92 vstem
          403 6 callgsubr
          -148 hmoveto
          -91 -85 91 85 hlineto
          29 -143 rmoveto
          -107 -128 -45 -212 -212 128 -45 107 -80 callsubr
          212 -128 45 -107 hvcurveto
          -433 vmoveto
          -88 callsubr
          endchar
        </CharString>
        <CharString name="odotbelow">
          -63 30 callsubr
          hstem
          49 92 97 91 98 92 vstem
          329 -50 -93 callsubr
          -45 556 rmoveto
          -107 -128 -45 -212 -212 128 -45 107 -80 callsubr
          212 -128 45 -107 hvcurveto
          -433 vmoveto
          -88 callsubr
          endchar
        </CharString>
        <CharString name="oe">
          290 -8 79 127 83 144 83 -44 callsubr
          867 267 rmoveto
          -76 callgsubr
          -92 -54 -35 -45 -31 vhcurveto
          61 -48 -73 17 -65 hhcurveto
          -107 -128 -45 -212 -212 128 -45 107 66 74 17 64 47 hvcurveto
          -64 46 74 -17 65 hhcurveto
          71 59 13 20 47 hvcurveto
          82 vlineto
          -19 -39 -56 -17 -77 hhcurveto
          -66 -61 23 104 -14 hvcurveto
          344 hlineto
          2 22 1 23 24 vvcurveto
          -583 -194 rmoveto
          -88 callsubr
          235 208 -52 callgsubr
        </CharString>
        <CharString name="ogonek">
          -269 -175 53 -53 175 hstemhm
          92 80 hintmask 10100000
          231 -30 callgsubr
          hvcurveto
          hintmask 01100000
          41 callgsubr
          vhcurveto
          -84 hlineto
          -4 -2 -84 -46 -60 -75 callgsubr
          endchar
        </CharString>
        <CharString name="ograve">
          -67 17 callgsubr
          308 564 -92 callgsubr
          -259 -315 rmoveto
          -212 128 -45 107 -80 callsubr
          212 -128 45 -107 -107 -128 -45 -212 vhcurveto
          92 hmoveto
          -97 callgsubr
          -72 callgsubr
          vhcurveto
          endchar
        </CharString>
        <CharString name="ohookabove">
          -63 -59 callsubr
          158 47 -44 callsubr
          306 640 39 callsubr
          -55 39 24 vlineto
          0 50 7 47 vvcurveto
          48 -42 -48 callsubr
          17 24 -6 -18 hvcurveto
          -22 -134 rmoveto
          -107 -128 -45 -212 -212 128 -45 107 -80 callsubr
          212 -128 45 -107 hvcurveto
          -433 vmoveto
          -88 callsubr
          endchar
        </CharString>
        <CharString name="ohorn">
          40 -59 callsubr
          17 38 callsubr
          hintmask 10111000
          -72 callsubr
          hintmask 11011000
          -99 callgsubr
          endchar
        </CharString>
        <CharString name="ohornacute">
          40 17 callgsubr
          -72 callsubr
          -99 callgsubr
          116 608 -35 callsubr
          endchar
        </CharString>
        <CharString name="ohorndotbelow">
          40 30 callsubr
          17 -20 hstemhm
          49 92 97 91 98 92 hintmask 11011110
          329 -50 -93 callsubr
          351 485 rmoveto
          -56 88 -88 -56 29 -46 -31 -18 -17 -10 -26 -1 rlinecurve
          hintmask 11101110
          -99 callgsubr
          endchar
        </CharString>
        <CharString name="ohorngrave">
          40 17 callgsubr
          -72 callsubr
          -99 callgsubr
          -116 608 rmoveto
          -14 callgsubr
          -63 117 rlineto
          endchar
        </CharString>
        <CharString name="ohornhookabove">
          40 -59 callsubr
          157 47 hstem
          49 92 163 53 70 92 vstem
          -72 callsubr
          -99 callgsubr
          73 569 rmoveto
          48 -42 20 -50 -12 -11 -1 -2 -10 vhcurveto
          -46 vlineto
          -43 callgsubr
          17 -53 callgsubr
          endchar
        </CharString>
        <CharString name="ohorntilde">
          40 -59 callsubr
          -44 callsubr
          -72 callsubr
          -99 callgsubr
          152 509 -82 callsubr
        </CharString>
        <CharString name="ohungarumlaut">
          -67 -59 callsubr
          58 117 -44 callsubr
          284 506 rmoveto
          -107 -128 -45 -212 -212 128 -45 107 -80 callsubr
          212 -128 45 -107 hvcurveto
          -433 vmoveto
          -88 callsubr
          -102 491 -46 callsubr
        </CharString>
        <CharString name="omacron">
          -67 -59 callsubr
          70 60 -44 callsubr
          400 636 -67 callgsubr
          -116 -130 rmoveto
          -107 -128 -45 -212 -212 128 -45 107 -80 callsubr
          212 -128 45 -107 hvcurveto
          -433 vmoveto
          -88 callsubr
          endchar
        </CharString>
        <CharString name="one">
          -179 -6 callgsubr
          hstemhm
          103 210 -93 93 hintmask 11100000
          212 -19 callgsubr
          -109 -62 rlineto
          -97 vlineto
          hintmask 11010000
          117 68 rlineto
          -576 93 667 vlineto
          endchar
        </CharString>
        <CharString name="one.denominator">
          -397 22 -21 359 5 callgsubr
          360 rmoveto
          -58 -33 rlineto
          -53 vlineto
          63 37 rlineto
          -310 50 359 -55 vlineto
          endchar
        </CharString>
        <CharString name="one.inferior">
          -397 -128 -21 358 5 callgsubr
          209 rmoveto
          -58 -33 rlineto
          -52 vlineto
          63 36 rlineto
          -309 50 358 -55 vlineto
          endchar
        </CharString>
        <CharString name="one.numerator">
          -397 336 -21 359 5 callgsubr
          674 13 callsubr
        </CharString>
        <CharString name="one.superior">
          -391 484 -21 359 5 callgsubr
          822 13 callsubr
        </CharString>
        <CharString name="oneeighth">
          92 -7 callsubr
          356 20 callgsubr
          267 37 -37 50 -13 153 -140 127 13 37 -37 50 hintmask 0111101001000000
          110 674 -48 callgsubr
          434 -505 rmoveto
          -34 -42 -10 -50 -20 8 -47 68 69 8 47 20 50 -42 10 -35 hvcurveto
          hintmask 0111101100101000
          -63 101 rmoveto
          -17 6 -39 57 58 6 39 17 32 -22 16 -42 -42 -21 -16 -32 vhcurveto
          137 -75 rmoveto
          23 -13 30 -25 -47 vvcurveto
          -56 -39 -57 -88 -87 -39 57 56 39 25 29 29 16 vhcurveto
          hintmask 1011011010010000
          -21 14 -20 23 37 vvcurveto
          47 30 49 83 84 -7 callgsubr
          -105 490 rmoveto
          -437 -62 callsubr
          -63 hlineto
          endchar
        </CharString>
        <CharString name="onehalf">
          93 -1 -21 23 50 267 46 310 20 callgsubr
          278 217 hintmask 11110110
          659 261 rmoveto
          50 -32 53 -90 29 callgsubr
          12 19 30 15 39 hhcurveto
          37 43 -10 -48 -72 -106 -96 -67 -51 hvcurveto
          -40 221 50 -135 vlineto
          60 52 76 82 76 vvcurveto
          -549 413 -48 callgsubr
          hintmask 11101110
          397 11 rmoveto
          -436 -62 callsubr
          -64 hlineto
          endchar
        </CharString>
        <CharString name="onequarter">
          76 -1 -21 135 45 516 20 callgsubr
          390 50 hintmask 11101100
          110 674 -48 callgsubr
          494 -516 rmoveto
          202 -56 vlineto
          -158 -19 callsubr
          hintmask 11011100
          58 527 rmoveto
          -436 -62 callsubr
          -64 hlineto
          endchar
        </CharString>
        <CharString name="onethird">
          91 -3 45 -43 -21 190 44 105 47 310 20 callgsubr
          279 206 -50 50 -32 50 hintmask 1011101100000000
          607 193 -38 callgsubr
          51 -90 -34 -28 -9 -10 -22 vhcurveto
          -49 vlineto
          11 19 26 10 34 hhcurveto
          hintmask 1011101010000000
          35 42 -9 -43 -44 -42 -9 -35 hvcurveto
          -30 -44 31 hlineto
          hintmask 1011101001000000
          43 51 -11 -52 -52 -49 -11 -40 -37 -30 13 -25 callsubr
          37 hhcurveto
          99 36 56 53 49 -32 25 -28 13 hvcurveto
          -497 481 -48 callgsubr
          hintmask 0111011100000000
          397 11 rmoveto
          -436 -62 callsubr
          -64 hlineto
          endchar
        </CharString>
        <CharString name="ordfeminine">
          -234 390 45 94 40 63 44 hstem
          76 51 130 51 vstem
          188 676 rmoveto
          -30 -29 -6 -9 -25 hvcurveto
          -43 vlineto
          6 18 27 8 31 hhcurveto
          55 20 -21 -45 2 hvcurveto
          2 -16 -17 1 -17 hhcurveto
          -82 -49 -33 -55 -21 8 -70 109 107 8 69 21 hvcurveto
          80 vlineto
          75 -43 41 -77 vhcurveto
          69 -196 rmoveto
          -30 -21 -15 -43 -44 -22 15 32 39 58 8 24 18 17 -1 -3 13 vhcurveto
          -45 vlineto
          endchar
        </CharString>
        <CharString name="ordmasculine">
          -209 388 46 197 45 hstem
          76 51 160 52 vstem
          207 676 rmoveto
          -59 -72 -25 -119 -118 72 -26 59 60 72 26 118 119 -72 25 -60 hvcurveto
          -242 vmoveto
          -42 -38 11 87 87 38 12 42 42 38 -12 -87 -87 -38 -11 -42 hvcurveto
          endchar
        </CharString>
        <CharString name="oslash">
          -57 -8 81 -52 -21 425 81 23 callgsubr
          hintmask 01111000
          541 499 -32 callsubr
          hintmask 10111000
          -27 42 51 -9 47 hhcurveto
          -80 callsubr
          77 -17 55 -27 39 hvcurveto
          66 79 rlineto
          -400 -250 rmoveto
          155 68 21 75 31 30 -4 -15 24 vhcurveto
          -215 -254 rlineto
          -8 24 -5 32 41 vvcurveto
          286 hmoveto
          -155 -68 -21 -75 -31 -31 4 15 -24 vhcurveto
          215 255 rlineto
          9 -24 5 -32 -42 vvcurveto
          endchar
        </CharString>
        <CharString name="oslashacute">
          -67 -8 81 -52 -21 425 81 175 38 callsubr
          hintmask 01111100
          250 564 -100 callsubr
          229 -182 -32 callsubr
          hintmask 10111100
          -27 42 51 -9 47 hhcurveto
          -80 callsubr
          77 -17 55 -27 39 hvcurveto
          66 79 rlineto
          -400 -250 rmoveto
          155 68 21 75 31 30 -4 -15 24 vhcurveto
          -215 -254 rlineto
          -8 24 -5 32 41 vvcurveto
          286 hmoveto
          -155 -68 -21 -75 -31 -31 4 15 -24 vhcurveto
          215 255 rlineto
          9 -24 5 -32 -42 vvcurveto
          endchar
        </CharString>
        <CharString name="otilde">
          -67 -59 callsubr
          -44 callsubr
          436 582 -105 callgsubr
          -152 -76 rmoveto
          -107 -128 -45 -212 -212 128 -45 107 -80 callsubr
          212 -128 45 -107 hvcurveto
          -433 vmoveto
          -88 callsubr
          endchar
        </CharString>
        <CharString name="p">
          -61 43 callgsubr
          82 92 244 92 vstem
          510 244 rmoveto
          229 -139 34 -82 -192 -15 -123 -38 vhcurveto
          -536 92 197 vlineto
          -10 34 36 -5 36 hhcurveto
          105 125 44 208 hvcurveto
          -92 hmoveto
          -150 -66 -20 -72 -37 -35 7 13 -34 vhcurveto
          258 vlineto
          50 39 25 76 60 69 -21 -162 vhcurveto
          endchar
        </CharString>
        <CharString name="paragraph">
          -172 -2 callsubr
          307 83 vstem
          274 -19 callgsubr
          -153 -83 -75 -135 -136 83 -75 153 hvcurveto
          33 -246 83 667 -116 hlineto
          endchar
        </CharString>
        <CharString name="parenleft">
          -278 -92 -21 837 -20 hstem
          93 90 vstem
          286 724 rmoveto
          -90 hlineto
          -41 -81 -62 -153 -184 vvcurveto
          -185 62 -152 41 -82 vhcurveto
          90 hlineto
          -41 82 -62 152 185 vvcurveto
          184 62 153 41 81 vhcurveto
          endchar
        </CharString>
        <CharString name="parenright">
          -278 -92 -21 837 -20 hstem
          168 90 vstem
          65 -113 rmoveto
          90 hlineto
          41 82 62 152 185 vvcurveto
          184 -62 153 -41 81 vhcurveto
          -90 hlineto
          42 -81 61 -153 -184 vvcurveto
          -185 -61 -152 -42 -82 vhcurveto
          endchar
        </CharString>
        <CharString name="partialdiff">
          -41 16 callsubr
          221 675 rmoveto
          -27 -24 -3 -4 -22 hvcurveto
          -84 vlineto
          3 17 20 2 22 hhcurveto
          119 76 -69 -120 25 hvcurveto
          -10 callgsubr
          333 -213 36 -92 vhcurveto
          74 -599 -13 callsubr
        </CharString>
        <CharString name="percent">
          255 1 callgsubr
          170 64 162 64 hintmask 1010101111000000
          -51 callgsubr
          hintmask 0110011111000000
          403 316 rmoveto
          25 callsubr
          hintmask 1001101111000000
          57 -664 rmoveto
          98 47 72 113 112 -47 72 -98 -98 -47 -72 -112 -113 47 -72 98 hvcurveto
          313 vmoveto
          60 21 -44 -84 -85 -21 -43 -60 -60 -21 43 85 84 21 44 60 hvcurveto
          endchar
        </CharString>
        <CharString name="period">
          -283 0 89 hstem
          127 95 vstem
          222 89 rmoveto
          -95 -89 95 hlineto
          endchar
        </CharString>
        <CharString name="periodcentered">
          -307 230 85 hstem
          116 91 vstem
          207 315 -93 callsubr
          endchar
        </CharString>
        <CharString name="perthousand">
          537 1 callgsubr
          120 64 162 64 46 64 162 64 hintmask 1010101111110000
          -51 callgsubr
          hintmask 1001011111110000
          410 21 -45 callsubr
          336 312 -45 callsubr
          -369 607 rmoveto
          hintmask 0110011111110000
          25 callsubr
          endchar
        </CharString>
        <CharString name="pi">
          -9 21 -21 424 75 hstem
          139 77 189 76 vstem
          33 499 rmoveto
          -75 106 -424 77 424 189 -424 76 424 108 75 -556 vlineto
          endchar
        </CharString>
        <CharString name="plus">
          -69 143 -21 144 69 145 -20 hstem
          242 69 vstem
          311 335 rmoveto
          145 -69 -145 -145 -69 145 -144 69 144 144 69 -144 vlineto
          endchar
        </CharString>
        <CharString name="plusminus">
          -38 27 73 199 73 147 -20 hstem
          261 73 vstem
          334 372 rmoveto
          147 -73 -147 -148 -73 148 -148 73 148 147 73 -147 vlineto
          -221 -345 rmoveto
          368 73 -368 -73 hlineto
          endchar
        </CharString>
        <CharString name="product">
          88 -111 -21 572 77 hstem
          165 76 237 76 vstem
          33 517 rmoveto
          -77 132 -572 76 572 237 -572 76 572 132 77 -653 vlineto
          endchar
        </CharString>
        <CharString name="published">
          147 -8 44 247 48 148 49 103 44 hstem
          48 44 189 55 168 53 130 44 vstem
          421 528 rmoveto
          -140 -389 55 144 85 hlineto
          87 49 45 77 77 -47 46 -89 hvcurveto
          -4 -197 rmoveto
          -81 148 81 hlineto
          76 11 -37 -37 -37 -11 -37 -76 hvcurveto
          -28 344 rmoveto
          -188 -153 -153 -189 -188 153 -153 188 189 153 153 188 189 -153 153 -189 hvcurveto
          -639 vmoveto
          -164 -133 133 164 165 133 133 164 165 133 -133 -165 -164 -133 -133 -165 hvcurveto
          endchar
        </CharString>
        <CharString name="q">
          -66 43 callgsubr
          56 91 244 92 vstem
          285 -8 rmoveto
          36 36 5 10 34 hvcurveto
          -197 92 536 vlineto
          38 -15 123 -192 -82 -138 -34 -229 -208 124 -44 105 vhcurveto
          -9 435 rmoveto
          77 38 -25 -50 hvcurveto
          -258 vlineto
          -13 -33 -36 -7 -37 hhcurveto
          -72 -66 20 150 162 69 21 60 hvcurveto
          endchar
        </CharString>
        <CharString name="question">
          -122 0 91 498 86 hstem
          208 88 59 89 vstem
          444 481 rmoveto
          96 -52 98 -155 -65 -53 -22 -25 -39 vhcurveto
          -99 vlineto
          23 26 53 37 70 hhcurveto
          81 45 -36 -71 hvcurveto
          -86 -147 -9 -182 vvcurveto
          -37 88 34 vlineto
          136 148 -4 147 vvcurveto
          -143 -390 rmoveto
          -98 -91 98 91 hlineto
          endchar
        </CharString>
        <CharString name="questiondown">
          -117 -176 86 498 91 hstem
          85 89 59 88 vstem
          85 18 rmoveto
          -96 52 -98 155 65 53 22 25 39 vhcurveto
          99 vlineto
          -23 -26 -53 -37 -70 hhcurveto
          -81 -45 36 71 hvcurveto
          86 147 9 182 vvcurveto
          37 -88 -34 vlineto
          -136 -148 4 -147 vvcurveto
          143 390 rmoveto
          98 91 -98 hlineto
          endchar
        </CharString>
        <CharString name="quotedbl">
          -230 475 201 hstem
          318 676 rmoveto
          -93 hlineto
          17 -201 rlineto
          58 hlineto
          18 201 rlineto
          -237 hmoveto
          42 callsubr
          -93 hlineto
          endchar
        </CharString>
        <CharString name="quotedblbase">
          -172 -112 196 hstem
          146 84 -27 callgsubr
        </CharString>
        <CharString name="quotedblleft">
          -219 480 196 hstem
          290 676 rmoveto
          -94 hlineto
          84 -196 rlineto
          84 hlineto
          -317 196 rmoveto
          84 -196 rlineto
          84 hlineto
          -74 196 rlineto
          endchar
        </CharString>
        <CharString name="quotedblright">
          -227 480 196 hstem
          121 676 -27 callgsubr
        </CharString>
        <CharString name="quoteleft">
          -361 480 196 hstem
          47 676 rmoveto
          84 -196 rlineto
          84 hlineto
          -74 196 rlineto
          -94 hlineto
          endchar
        </CharString>
        <CharString name="quoteright">
          -361 480 196 hstem
          121 676 17 callsubr
        </CharString>
        <CharString name="quotesinglbase">
          -317 -112 196 hstem
          146 84 17 callsubr
        </CharString>
        <CharString name="quotesingle">
          -375 496 -21 201 -20 hstem
          81 676 rmoveto
          42 callsubr
          endchar
        </CharString>
        <CharString name="r">
          -288 21 -21 423 84 hstemhm
          81 92 -92 243 hintmask 11100000
          173 402 rmoveto
          hintmask 11010000
          39 10 53 10 59 1 rrcurveto
          84 vlineto
          -134 -104 -48 -2 -5 hvcurveto
          -457 vlineto
          hintmask 11100000
          92 hlineto
          endchar
        </CharString>
        <CharString name="racute">
          -288 21 -21 415 84 182 -20 28 callgsubr
          177 564 -100 callsubr
          -66 -287 -61 callgsubr
        </CharString>
        <CharString name="radical">
          100 -2 callsubr
          630 -19 callgsubr
          -219 -571 -109 288 rlineto
          -208 -65 151 hlineto
          129 -319 rlineto
          73 hlineto
          260 667 rlineto
          -77 hlineto
          endchar
        </CharString>
        <CharString name="rcaron">
          -288 21 -21 415 84 187 -20 28 callgsubr
          200 621 -99 callsubr
          -27 -227 -61 callgsubr
        </CharString>
        <CharString name="rcommaaccent">
          -288 -22 callgsubr
          49 415 84 28 callgsubr
          95 11 callsubr
          78 443 -61 callgsubr
        </CharString>
        <CharString name="registered">
          147 -8 44 103 199 -51 51 142 48 103 45 hstemhm
          48 44 166 54 175 55 145 45 hintmask 1101111110000000
          455 296 rmoveto
          43 12 44 33 69 vvcurveto
          77 -55 41 -85 vhcurveto
          -144 -389 54 hlineto
          hintmask 1011111110000000
          148 88 vlineto
          hintmask 1101111110000000
          94 -148 rlineto
          64 hlineto
          -103 157 rlineto
          -56 42 rmoveto
          -87 142 85 hlineto
          75 15 -36 -35 -35 -13 -36 -75 hvcurveto
          -9 338 rmoveto
          -189 -153 -154 -188 -189 153 -153 189 189 153 153 189 188 -153 154 -189 hvcurveto
          -640 vmoveto
          -165 -133 133 165 164 133 133 165 164 133 -133 -164 -165 -133 -133 -164 hvcurveto
          endchar
        </CharString>
        <CharString name="ring">
          -210 535 41 90 41 hstem
          116 48 78 48 vstem
          203 535 -83 callsubr
          endchar
        </CharString>
        <CharString name="s">
          -195 -8 -11 callsubr
          82 hstem
          33 callgsubr
          vstem
          229 507 -87 callgsubr
          -77 callsubr
          endchar
        </CharString>
        <CharString name="sacute">
          -195 -8 -11 callsubr
          82 174 -20 hstem
          33 callgsubr
          vstem
          182 564 -100 callsubr
          -15 -174 -87 callgsubr
          -77 callsubr
          endchar
        </CharString>
        <CharString name="scaron">
          -195 -8 -11 callsubr
          82 179 -20 hstem
          33 callgsubr
          vstem
          223 621 -99 callsubr
          6 -114 -87 callgsubr
          -77 callsubr
          endchar
        </CharString>
        <CharString name="scedilla">
          -195 -128 201 -80 80 352 82 hstemhm
          33 callgsubr
          hintmask 01111000
          396 139 rmoveto
          188 -255 -46 80 vvcurveto
          -77 callsubr
          -68 callgsubr
          -33 -30 -29 -68 -62 -46 19 18 -32 vhcurveto
          -83 vlineto
          30 -17 41 -14 50 -3 rrcurveto
          hintmask 10111000
          -88 -121 rlineto
          91 hlineto
          70 124 rlineto
          99 17 37 66 60 vvcurveto
          endchar
        </CharString>
        <CharString name="scircumflex">
          -195 -8 -11 callsubr
          82 0 57 -24 callgsubr
          33 callgsubr
          hintmask 10111100
          222 629 -106 callgsubr
          7 -122 -87 callgsubr
          hintmask 11011100
          -77 callsubr
          endchar
        </CharString>
        <CharString name="scommaaccent">
          -195 -22 callgsubr
          41 0 -11 callsubr
          82 hstemhm
          33 callgsubr
          hintmask 11011100
          200 11 callsubr
          -59 410 rmoveto
          -77 callsubr
          -68 callgsubr
          hintmask 10111100
          -33 -30 -29 -68 -62 -46 19 18 -32 vhcurveto
          -83 vlineto
          -19 35 48 -16 61 hhcurveto
          137 49 78 69 hvcurveto
          188 -255 -46 80 vvcurveto
          endchar
        </CharString>
        <CharString name="section">
          -46 -8 88 509 87 hstemhm
          64 96 -21 96 123 96 -21 96 hintmask 11010100
          529 314 rmoveto
          172 -294 -23 65 vvcurveto
          56 85 5 36 54 48 -17 -22 40 vhcurveto
          88 vlineto
          22 -44 -53 16 -60 hhcurveto
          -149 -53 -72 -72 -27 14 -25 21 -16 hvcurveto
          hintmask 11101000
          -55 -16 -55 -32 -62 -172 294 23 -65 vvcurveto
          -55 -84 -5 -36 -66 -58 26 31 -46 vhcurveto
          -93 vlineto
          -29 50 62 -23 71 hhcurveto
          150 53 76 72 27 -16 23 -19 14 hvcurveto
          hintmask 11100100
          55 14 55 33 63 vvcurveto
          -192 -62 rmoveto
          -82 31 -95 13 57 vvcurveto
          31 38 23 58 5 vhcurveto
          82 -31 95 -14 -56 vvcurveto
          -32 -38 -22 -58 -5 vhcurveto
          endchar
        </CharString>
        <CharString name="semicolon">
          -212 -112 196 278 88 hstem
          166 94 vstem
          260 450 rmoveto
          -94 -88 94 hlineto
          -96 -278 rmoveto
          34 callsubr
        </CharString>
        <CharString name="servicemark">
          91 334 40 -23 -21 296 45 hstemhm
          60 46 131 47 49 46 227 46 hintmask 10111110
          602 -19 callgsubr
          -32 callgsubr
          -496 -91 rmoveto
          42 41 8 35 35 28 -11 -11 17 vhcurveto
          46 vlineto
          11 -21 -29 10 -36 hhcurveto
          -86 -30 -49 -46 hvcurveto
          -109 177 41 -87 vvcurveto
          -39 -42 -8 -36 -36 -32 12 16 -27 vhcurveto
          -48 vlineto
          hintmask 01111110
          -14 29 34 -10 36 hhcurveto
          76 45 34 57 hvcurveto
          118 -178 -21 58 vvcurveto
          endchar
        </CharString>
        <CharString name="seven">
          -50 21 -21 575 92 hstem
          70 -19 callgsubr
          -92 365 vlineto
          -283 -575 rlineto
          103 hlineto
          279 579 rlineto
          88 vlineto
          endchar
        </CharString>
        <CharString name="seven.denominator">
          -305 22 -21 309 50 hstem
          40 360 -45 callgsubr
        </CharString>
        <CharString name="seven.inferior">
          -307 -128 -21 309 49 hstem
          40 209 rmoveto
          -49 196 vlineto
          -152 -309 rlineto
          55 hlineto
          150 311 rlineto
          47 -249 vlineto
          endchar
        </CharString>
        <CharString name="seven.numerator">
          -305 336 -21 309 50 hstem
          40 674 -45 callgsubr
        </CharString>
        <CharString name="seven.superior">
          -305 484 -21 309 50 hstem
          40 822 -45 callgsubr
        </CharString>
        <CharString name="seveneighths">
          132 -7 callsubr
          306 50 11 -20 hstemhm
          458 50 -37 37 -37 50 127 50 -37 50 hintmask 0111101000100000
          54 674 rmoveto
          -50 196 vlineto
          -152 -309 rlineto
          56 hlineto
          150 312 rlineto
          47 -250 vlineto
          531 -505 rmoveto
          -35 -42 -10 -50 -20 8 -47 69 68 8 47 20 50 -42 10 -34 hvcurveto
          hintmask 0111100011000000
          -64 101 rmoveto
          -17 6 -39 58 57 6 39 17 32 -22 16 -41 -42 -22 -16 -32 vhcurveto
          137 -75 rmoveto
          hintmask 0111101000100000
          23 -13 30 -25 -47 vvcurveto
          -56 -39 -57 -87 -88 -39 57 56 39 25 29 29 16 vhcurveto
          hintmask 1011010101000000
          -21 14 -20 23 37 vvcurveto
          47 30 49 84 83 -7 callgsubr
          -119 490 rmoveto
          -436 -62 callsubr
          -64 hlineto
          endchar
        </CharString>
        <CharString name="six">
          -44 16 callsubr
          370 675 rmoveto
          -92 -213 -36 -333 -208 78 -106 153 159 71 115 114 103 -53 111 -170 -85 -54 -35 0 hvcurveto
          120 25 76 69 119 hhcurveto
          34 31 -5 -7 24 hvcurveto
          84 vlineto
          8 -29 -35 6 -39 hhcurveto
          -74 -325 rmoveto
          90 47 -44 -85 -43 -13 -102 -124 -44 -91 0 225 -3 hvcurveto
          17 18 43 32 77 hhcurveto
          endchar
        </CharString>
        <CharString name="six.denominator">
          -289 -3 45 147 46 83 46 -9 callsubr
          364 rmoveto
          -49 -115 -19 -179 -113 42 -56 82 86 38 61 62 55 -28 60 -92 -45 -29 -19 0 hvcurveto
          65 13 41 37 64 hhcurveto
          18 17 -3 -4 13 hvcurveto
          46 vlineto
          4 -16 -19 3 19 callsubr
          -45 -18 callgsubr
          17 41 hhcurveto
          endchar
        </CharString>
        <CharString name="six.inferior">
          -289 -154 46 147 45 84 46 -9 callsubr
          214 rmoveto
          -49 -115 -20 -49 callsubr
          38 64 hhcurveto
          18 17 -3 -4 13 hvcurveto
          45 vlineto
          4 -16 -19 4 19 callsubr
          -45 -24 -7 -54 -67 -23 -49 0 120 -2 hvcurveto
          10 10 23 17 41 hhcurveto
          endchar
        </CharString>
        <CharString name="six.numerator">
          -289 311 45 148 45 83 47 -9 callsubr
          679 rmoveto
          -49 -115 -20 -49 callsubr
          37 64 hhcurveto
          18 17 -3 -3 13 hvcurveto
          45 vlineto
          4 -16 -19 4 19 callsubr
          -46 -18 callgsubr
          18 41 hhcurveto
          endchar
        </CharString>
        <CharString name="six.superior">
          -289 459 45 148 45 83 46 -9 callsubr
          826 rmoveto
          -49 -115 -19 -49 callsubr
          37 64 hhcurveto
          18 17 -3 -3 13 hvcurveto
          45 vlineto
          4 -16 -19 3 -21 hhcurveto
          -40 -174 rmoveto
          49 25 -24 -46 -18 callgsubr
          18 41 hhcurveto
          endchar
        </CharString>
        <CharString name="slash">
          -206 -77 -21 854 -20 hstem
          353 756 rmoveto
          -367 -854 rlineto
          86 hlineto
          368 854 rlineto
          -87 hlineto
          endchar
        </CharString>
        <CharString name="space">
          -293 endchar
        </CharString>
        <CharString name="sterling">
          -67 279 82 228 85 hstem
          139 90 vstem
          358 589 rmoveto
          69 52 -31 -22 29 hvcurveto
          94 vlineto
          23 -39 -54 21 -66 hhcurveto
          -155 -55 -96 -91 hvcurveto
          -126 -88 -82 88 -176 vlineto
          -29 -5 -30 -12 -29 -23 rrcurveto
          -89 vlineto
          152 121 152 -181 153 84 rrcurveto
          89 vlineto
          -93 -52 -93 48 -93 17 rrcurveto
          179 190 82 -190 126 vlineto
          68 43 34 86 vhcurveto
          endchar
        </CharString>
        <CharString name="summation">
          -69 0 77 513 77 hstem
          501 -19 callgsubr
          -424 -78 hlineto
          163 -255 -162 -253 -1 -1 rlineto
          -80 424 77 -333 vlineto
          164 257 -164 256 rlineto
          333 77 hlineto
          endchar
        </CharString>
        <CharString name="t">
          -257 -8 81 349 -23 callsubr
          hintmask 11101000
          335 422 rmoveto
          77 vlineto
          hintmask 11110000
          -59 callgsubr
          hintmask 11101000
          -53 callsubr
          hintmask 11110000
          4 callsubr
          endchar
        </CharString>
        <CharString name="tbar">
          -257 -8 81 164 72 113 -23 callsubr
          hintmask 11110100
          335 422 rmoveto
          77 vlineto
          hintmask 11111000
          -133 149 -91 -149 -87 -77 87 -113 -68 -72 68 -99 hlineto
          -135 121 -11 32 vhcurveto
          hintmask 11110100
          -53 callsubr
          hintmask 11111000
          -47 -28 16 43 hvcurveto
          105 114 72 -114 113 vlineto
          hintmask 11110100
          133 hlineto
          endchar
        </CharString>
        <CharString name="tcaron">
          -257 -8 81 349 77 213 -20 hstemhm
          111 91 -91 224 -14 64 hintmask 11110100
          321 712 rmoveto
          -46 -9 -31 -79 callgsubr
          -64 hlineto
          hintmask 11101000
          14 -290 rmoveto
          77 vlineto
          hintmask 11110100
          -59 callgsubr
          hintmask 11101000
          -53 callsubr
          hintmask 11110100
          4 callsubr
          hintmask 11101000
          133 hlineto
          endchar
        </CharString>
        <CharString name="tcommaaccent">
          -46 callgsubr
          -63 hlineto
          124 -56 callsubr
          hintmask 11011010
          133 hlineto
          endchar
        </CharString>
        <CharString name="thorn">
          -73 -163 -21 182 81 340 81 182 -20 hstem
          83 91 245 91 vstem
          281 500 45 callgsubr
          -866 91 197 vlineto
          -10 35 35 -5 37 hhcurveto
          104 125 44 207 207 -125 44 -104 hvcurveto
          -421 vmoveto
          -37 -36 7 14 -34 hvcurveto
          298 vlineto
          14 34 36 7 37 hhcurveto
          71 67 -21 -149 -149 -67 -21 -71 hvcurveto
          endchar
        </CharString>
        <CharString name="three">
          -48 -8 85 234 82 195 87 hstemhm
          376 93 -60 93 hintmask 11110000
          390 357 rmoveto
          40 24 39 41 68 vvcurveto
          90 -59 95 -167 -59 -49 -14 -18 -39 vhcurveto
          -89 vlineto
          18 33 46 16 57 hhcurveto
          66 78 -17 -81 -80 -78 -17 -66 hvcurveto
          -56 -82 58 hlineto
          hintmask 11101000
          80 95 -21 -96 -97 -89 -20 -76 -69 -56 23 22 -38 hvcurveto
          -91 vlineto
          -21 45 57 -18 69 hhcurveto
          184 66 105 98 91 -60 48 -52 23 hvcurveto
          endchar
        </CharString>
        <CharString name="three.denominator">
          -308 -3 45 126 44 105 47 hstemhm
          57 205 -50 50 -32 50 hintmask 11110000
          220 193 -38 callgsubr
          51 -89 -34 -29 -9 -10 -21 vhcurveto
          -49 vlineto
          11 18 26 10 34 hhcurveto
          hintmask 11101000
          35 42 -9 -43 -44 10 callsubr
          -37 -30 13 -25 callsubr
          38 hhcurveto
          99 35 56 53 49 -32 25 -28 13 hvcurveto
          endchar
        </CharString>
        <CharString name="three.inferior">
          -308 -154 46 126 44 105 47 -4 callsubr
          43 rmoveto
          21 13 21 21 37 vvcurveto
          48 -32 52 -89 -34 -29 -9 -11 -21 vhcurveto
          -48 vlineto
          10 18 26 11 34 hhcurveto
          35 42 -9 -44 -43 10 callsubr
          hvcurveto
          hintmask 11110000
          -37 -30 12 8 callgsubr
          -11 24 31 -10 38 hhcurveto
          hintmask 11100100
          99 35 57 52 50 -32 25 -28 13 hvcurveto
          endchar
        </CharString>
        <CharString name="three.numerator">
          -308 311 46 125 45 104 48 -4 callsubr
          507 -38 callgsubr
          52 -89 -34 -29 -9 -11 -21 vhcurveto
          -48 vlineto
          10 18 -31 callgsubr
          hintmask 11100100
          43 51 -11 -52 -51 -48 -11 -33 callsubr
        </CharString>
        <CharString name="three.superior">
          -308 459 46 125 45 104 47 -4 callsubr
          655 -38 callgsubr
          51 -89 -34 -29 -8 -11 -21 vhcurveto
          -48 vlineto
          10 18 -31 callgsubr
          hintmask 11100100
          43 51 -11 -52 -52 -48 -10 -33 callsubr
        </CharString>
        <CharString name="threeeighths">
          183 -7 callsubr
          -7 46 125 45 104 48 6 -20 hstemhm
          67 209 -50 50 -32 32 247 24 callgsubr
          hintmask 011101100100010000000000
          234 507 -38 callgsubr
          52 -89 -34 -29 -9 -11 -22 vhcurveto
          -48 vlineto
          10 19 -31 callgsubr
          hintmask 011011100010010000000000
          43 51 -11 -52 -51 -48 -11 -41 hvcurveto
          hintmask 011011101000010000000000
          -37 -30 12 -25 callsubr
          38 hhcurveto
          98 36 5 callsubr
          402 -338 12 callgsubr
          hintmask 011101101001001010000000
          -49 callgsubr
          hintmask 101101011000100100000000
          -43 callsubr
        </CharString>
        <CharString name="threequarters">
          181 -1 -21 135 45 153 46 125 45 104 48 6 -20 hstemhm
          66 209 -49 49 -32 50 371 50 hintmask 1111100101000000
          233 507 -38 callgsubr
          52 -89 -34 -28 -9 -11 -22 vhcurveto
          -48 vlineto
          10 18 27 10 33 hhcurveto
          35 43 -9 -43 -43 -43 -9 -35 hvcurveto
          -29 -45 30 hlineto
          hintmask 1111100011000000
          43 51 -11 -52 -51 -48 -11 -41 hvcurveto
          hintmask 1111101001000000
          -37 -30 12 8 callgsubr
          -12 25 31 -9 37 hhcurveto
          hintmask 1111010011000000
          99 35 5 callsubr
          481 -349 rmoveto
          202 -57 vlineto
          -157 -19 callsubr
          58 527 rmoveto
          -437 -707 rlineto
          64 hlineto
          436 707 rlineto
          -63 hlineto
          endchar
        </CharString>
        <CharString name="tilde">
          -104 409 582 -82 callsubr
        </CharString>
        <CharString name="trademark">
          135 355 -21 290 43 hstem
          161 46 165 46 227 46 vstem
          49 -19 callgsubr
          -43 112 -290 46 290 113 43 -271 vlineto
          592 hmoveto
          -32 callgsubr
          endchar
        </CharString>
        <CharString name="two">
          -50 0 93 496 86 hstem
          400 91 vstem
          491 483 rmoveto
          93 -60 99 -167 -74 -59 -23 -25 -43 vhcurveto
          -88 vlineto
          23 34 56 27 74 hhcurveto
          67 81 -18 -89 -134 -197 -178 -126 -96 hvcurveto
          -74 421 93 -260 vlineto
          112 98 141 150 142 vvcurveto
          endchar
        </CharString>
        <CharString name="two.denominator">
          -303 1 50 267 46 21 callsubr
          261 rmoveto
          50 -33 53 -89 29 callgsubr
          12 18 31 15 -4 callgsubr
          52 76 82 76 vvcurveto
          endchar
        </CharString>
        <CharString name="two.inferior">
          -303 -149 49 268 46 21 callsubr
          110 16 callgsubr
          15 4 callgsubr
          -73 -106 -95 -68 -52 hvcurveto
          -39 221 49 38 callgsubr
        </CharString>
        <CharString name="two.numerator">
          -303 315 50 267 47 21 callsubr
          575 16 callgsubr
          14 4 callgsubr
          -72 -106 -95 -68 -52 hvcurveto
          -40 221 50 38 callgsubr
        </CharString>
        <CharString name="two.superior">
          -303 463 50 267 46 21 callsubr
          723 rmoveto
          50 -33 53 -89 29 callgsubr
          13 18 31 14 -4 callgsubr
          53 76 81 76 vvcurveto
          endchar
        </CharString>
        <CharString name="u">
          -41 -9 81 427 -20 -20 callsubr
          412 499 rmoveto
          -104 callsubr
          289 vlineto
          endchar
        </CharString>
        <CharString name="uacute">
          -41 -9 81 609 -20 -20 callsubr
          258 564 -100 callsubr
          92 -182 rmoveto
          -104 callsubr
          289 -92 vlineto
          endchar
        </CharString>
        <CharString name="ubreve">
          -41 -9 81 473 -13 callgsubr
          82 91 9 -24 callsubr
          8 92 hintmask 10110110
          293 -18 callsubr
          hintmask 11011010
          -73 callsubr
          hintmask 10111010
          -93 callgsubr
          119 -46 rmoveto
          -104 callsubr
          289 -92 vlineto
          endchar
        </CharString>
        <CharString name="ucaron">
          -41 -9 81 613 -20 -20 callsubr
          293 620 -99 callsubr
          119 -121 rmoveto
          -104 callsubr
          289 -92 vlineto
          endchar
        </CharString>
        <CharString name="ucircumflex">
          -41 -9 81 614 -20 -20 callsubr
          292 629 -106 callgsubr
          120 -130 rmoveto
          -104 callsubr
          289 -92 vlineto
          endchar
        </CharString>
        <CharString name="udieresis">
          -41 -9 81 492 85 hstemhm
          82 91 0 91 57 91 0 92 hintmask 11011000
          412 6 callgsubr
          -148 hmoveto
          -91 -85 91 85 hlineto
          148 -150 rmoveto
          -296 vlineto
          -91 -37 -40 -82 -83 -37 40 91 vhcurveto
          296 vlineto
          hintmask 11100100
          -91 -289 hlineto
          -92 callsubr
          289 -92 vlineto
          endchar
        </CharString>
        <CharString name="udotbelow">
          -41 -12 callgsubr
          41 81 427 -20 hstem
          82 91 74 91 74 92 vstem
          338 -50 -93 callsubr
          74 549 rmoveto
          -104 callsubr
          289 -92 vlineto
          endchar
        </CharString>
        <CharString name="ugrave">
          -41 -9 81 609 -20 hstem
          82 92 239 91 vstem
          327 564 -92 callgsubr
          -245 -65 rmoveto
          -289 vlineto
          -92 callsubr
          289 -91 -296 vlineto
          -91 -37 -40 -83 -82 -37 40 91 vhcurveto
          296 -92 vlineto
          endchar
        </CharString>
        <CharString name="uhookabove">
          -44 -9 81 591 47 hstem
          82 91 142 53 44 92 vstem
          276 710 rmoveto
          -12 -11 -1 -3 -10 hvcurveto
          -3 callgsubr
          -13 -16 -6 -21 -2 hvcurveto
          -54 28 callsubr
          47 -42 21 -50 vhcurveto
          136 -211 rmoveto
          -104 callsubr
          289 -92 vlineto
          endchar
        </CharString>
        <CharString name="uhorn">
          63 -9 81 463 -20 -20 callsubr
          643 535 -101 callsubr
          endchar
        </CharString>
        <CharString name="uhornacute">
          63 -9 81 609 -20 -20 callsubr
          643 535 -101 callsubr
          -231 146 -35 callsubr
          endchar
        </CharString>
        <CharString name="uhorndotbelow">
          63 -12 callgsubr
          41 81 463 -20 hstem
          82 91 74 91 74 92 vstem
          338 -50 -93 callsubr
          305 585 -101 callsubr
          endchar
        </CharString>
        <CharString name="uhorngrave">
          63 -9 81 609 -20 -20 callsubr
          643 535 -101 callsubr
          -469 146 rmoveto
          -14 callgsubr
          -63 117 rlineto
          endchar
        </CharString>
        <CharString name="uhornhookabove">
          63 -9 81 591 47 hstem
          82 91 140 53 46 92 vstem
          643 535 -101 callsubr
          -369 175 rmoveto
          -12 -11 -1 -2 -10 hvcurveto
          -46 vlineto
          -63 callsubr
          endchar
        </CharString>
        <CharString name="uhorntilde">
          63 -9 81 -20 callsubr
          643 535 -101 callsubr
          -196 47 -82 callsubr
        </CharString>
        <CharString name="uhungarumlaut">
          -41 -9 81 492 117 -20 callsubr
          412 499 rmoveto
          -104 callsubr
          289 -92 vlineto
          -217 65 -46 callsubr
        </CharString>
        <CharString name="umacron">
          -44 -9 81 504 60 -20 callsubr
          409 636 -67 callgsubr
          3 -137 rmoveto
          -104 callsubr
          289 -92 vlineto
          endchar
        </CharString>
        <CharString name="underscore">
          -85 -80 56 hstem
          -24 vmoveto
          -56 546 56 -546 vlineto
          endchar
        </CharString>
        <CharString name="uni021A">
          -63 -22 callgsubr
          49 32 callgsubr
          250 -49 rmoveto
          -45 -9 -32 -79 callgsubr
          -302 716 rmoveto
          -17 callsubr
          87 vlineto
          endchar
        </CharString>
        <CharString name="uni021B">
          -46 callgsubr
          61 -56 callsubr
          endchar
        </CharString>
        <CharString name="uni2116">
          472 21 -21 44 80 37 74 242 74 116 -20 hstem
          87 89 327 89 82 84 190 84 vstem
          503 -19 callgsubr
          -514 vlineto
          -318 514 rlineto
          -98 -667 89 hlineto
          1 516 326 -516 rlineto
          89 667 -89 hlineto
          183 -623 rmoveto
          334 80 -334 -80 hlineto
          167 507 rmoveto
          -115 -64 -69 -126 -126 64 -69 115 115 64 69 126 126 -64 69 -115 hvcurveto
          -316 vmoveto
          -57 -38 21 100 100 38 21 57 57 38 -21 -100 -100 -38 -21 -57 hvcurveto
          endchar
        </CharString>
        <CharString name="uogonek">
          -41 -175 53 621 -20 hstem
          82 91 19 80 140 92 vstem
          412 499 rmoveto
          -296 vlineto
          -91 -37 -40 -82 -83 -37 40 91 vhcurveto
          296 -91 -289 vlineto
          -130 67 -78 118 -10 vhcurveto
          -25 -16 -50 -38 -46 -75 callgsubr
          -71 callgsubr
          41 callgsubr
          hvcurveto
          90 24 50 74 112 vvcurveto
          289 -92 vlineto
          endchar
        </CharString>
        <CharString name="uring">
          -41 -9 81 463 41 90 41 hstem
          82 91 33 48 78 48 32 92 vstem
          293 535 -83 callsubr
          119 -167 rmoveto
          -104 callsubr
          289 -92 vlineto
          endchar
        </CharString>
        <CharString name="utilde">
          -41 -9 81 -20 callsubr
          445 582 -105 callgsubr
          -33 -83 rmoveto
          -104 callsubr
          289 -92 vlineto
          endchar
        </CharString>
        <CharString name="v">
          -90 35 callgsubr
          411 499 rmoveto
          -141 -389 -140 389 rlineto
          -98 hlineto
          191 -499 rlineto
          94 hlineto
          192 499 rlineto
          endchar
        </CharString>
        <CharString name="w">
          178 35 callgsubr
          669 499 -87 callsubr
          endchar
        </CharString>
        <CharString name="wacute">
          178 21 -21 681 -20 hstem
          381 564 -100 callsubr
          -404 -182 rmoveto
          165 -499 rlineto
          91 hlineto
          109 347 110 -347 rlineto
          91 hlineto
          165 499 rlineto
          -101 hlineto
          -112 -369 -110 369 rlineto
          -85 hlineto
          -111 -369 -111 369 rlineto
          -101 hlineto
          endchar
        </CharString>
        <CharString name="wcircumflex">
          178 21 -21 686 -20 hstem
          404 629 -106 callgsubr
          265 -130 -87 callsubr
          -101 hlineto
          endchar
        </CharString>
        <CharString name="wdieresis">
          178 21 -21 564 85 hstem
          285 91 57 91 vstem
          524 6 callgsubr
          -148 hmoveto
          -91 -85 91 85 hlineto
          293 -150 -87 callsubr
          -101 hlineto
          endchar
        </CharString>
        <CharString name="wgrave">
          178 21 -21 681 -20 hstem
          428 564 -92 callgsubr
          241 -65 -87 callsubr
          -101 hlineto
          endchar
        </CharString>
        <CharString name="x">
          -107 35 callgsubr
          316 256 rmoveto
          176 243 rlineto
          -112 hlineto
          -118 -167 -118 167 rlineto
          -112 hlineto
          176 -250 -180 -249 rlineto
          112 hlineto
          122 173 122 -173 rlineto
          112 hlineto
          endchar
        </CharString>
        <CharString name="y">
          -107 -197 82 614 -20 hstem
          395 499 -97 callsubr
          endchar
        </CharString>
        <CharString name="yacute">
          -107 -197 82 796 -20 hstem
          228 564 -100 callsubr
          105 -182 -97 callsubr
          -98 hlineto
          endchar
        </CharString>
        <CharString name="ycircumflex">
          -107 -197 82 801 -20 hstem
          261 629 -106 callgsubr
          134 -130 -97 callsubr
          -98 hlineto
          endchar
        </CharString>
        <CharString name="ydieresis">
          -109 -197 82 679 85 hstem
          142 91 57 91 vstem
          381 6 callgsubr
          -148 hmoveto
          -91 -85 91 85 hlineto
          162 -150 -97 callsubr
          -98 hlineto
          endchar
        </CharString>
        <CharString name="ydotbelow">
          -107 -197 82 -20 85 549 -20 hstemhm
          372 91 hintmask 01110000
          463 -50 -93 callsubr
          -68 549 rmoveto
          -132 -374 -134 374 rlineto
          -98 hlineto
          188 -499 rlineto
          hintmask 10110000
          -55 -18 -32 -60 -50 hhcurveto
          -18 -19 3 5 -19 hvcurveto
          -82 vlineto
          -5 23 24 -3 23 hhcurveto
          47 64 25 119 44 hvcurveto
          205 552 rlineto
          -98 hlineto
          endchar
        </CharString>
        <CharString name="yen">
          3 21 -21 131 75 79 75 307 -20 hstem
          271 92 vstem
          617 -19 callgsubr
          -113 hlineto
          -187 -273 -187 273 rlineto
          -112 hlineto
          211 -307 rlineto
          -105 -75 147 -79 -147 -75 147 -131 92 131 147 75 -147 79 147 75 -105 hlineto
          212 307 rlineto
          endchar
        </CharString>
        <CharString name="ygrave">
          -107 -197 82 796 -20 hstem
          143 681 rmoveto
          -14 callgsubr
          -63 117 rlineto
          163 -182 -97 callsubr
          -98 hlineto
          endchar
        </CharString>
        <CharString name="yhookabove">
          -107 -197 82 778 47 hstem
          279 53 vstem
          279 639 rmoveto
          -12 -16 -6 -20 -2 vhcurveto
          -55 -16 callgsubr
          48 -42 20 -49 -13 -11 -1 -2 -9 vhcurveto
          -46 vlineto
          1 8 10 1 12 hhcurveto
          17 24 -5 -19 hvcurveto
          116 -140 -97 callsubr
          -98 hlineto
          endchar
        </CharString>
        <CharString name="ytilde">
          -109 -197 82 hstem
          418 582 -105 callgsubr
          -23 -83 -97 callsubr
          -98 hlineto
          endchar
        </CharString>
        <CharString name="z">
          -161 0 86 328 85 hstem
          51 499 rmoveto
          -85 248 vlineto
          -254 -330 rlineto
          -84 371 86 -253 vlineto
          253 329 rlineto
          84 vlineto
          endchar
        </CharString>
        <CharString name="zacute">
          40 callgsubr
          182 -20 hstem
          204 564 -100 callsubr
          -215 -182 -55 callgsubr
        </CharString>
        <CharString name="zcaron">
          40 callgsubr
          187 -20 hstem
          234 621 -99 callsubr
          -183 -122 -55 callgsubr
        </CharString>
        <CharString name="zdotaccent">
          40 callgsubr
          65 85 hstem
          187 91 vstem
          278 6 callgsubr
          -227 -150 -55 callgsubr
        </CharString>
        <CharString name="zero">
          27 callsubr
          331 675 rmoveto
          -122 -144 -59 -282 -283 144 -59 122 121 144 59 283 282 -144 59 -121 hvcurveto
          -599 vmoveto
          -81 -92 29 229 228 92 29 81 80 92 -29 -228 -229 -92 -29 -80 hvcurveto
          endchar
        </CharString>
</ttFont>
